STARTFONT 2.1
FONT -HP-Pilgi-Bold-R-Normal--48-480-75-75-C-480-KSC5601.1987-1
SIZE 48 75 75
FONTBOUNDINGBOX 48 48 0 -6

STARTPROPERTIES 23
FONTNAME_REGISTRY ""
FOUNDRY "HP"
FAMILY_NAME "Pilgi"
WEIGHT_NAME "Bold"
SLANT "R"
SETWIDTH_NAME "Normal"
ADD_STYLE_NAME ""
PIXEL_SIZE 48
POINT_SIZE 480
RESOLUTION_X 75
RESOLUTION_Y 75
SPACING "C"
AVERAGE_WIDTH 480
CHARSET_REGISTRY "KSC5601.1987"
CHARSET_ENCODING "1"
COPYRIGHT "Copyright (c) 1994 Samsung Hewlett-Packard Company."
WEIGHT 19463
X_HEIGHT 42
QUAD_WIDTH 48
_HP_ASXVERSION "@(#) ASX 3.00 $Revision: 13.9 $ pilB48h"
DEFAULT_CHAR 41702
FONT_DESCENT 6
FONT_ASCENT 42
ENDPROPERTIES

CHARS 3337

STARTCHAR kor_A1A1
ENCODING 41377
SWIDTH 1024 0
DWIDTH 48 0
BBX 48 48 0 -6
BITMAP
000000000000
000000000000
000000000000
000000000000
000000000000
000000000000
000000000000
000000000000
000000000000
000000000000
000000000000
000000000000
000000000000
000000000000
000000000000
000000000000
000000000000
000000000000
000000000000
000000000000
000000000000
000000000000
000000000000
000000000000
000000000000
000000000000
000000000000
000000000000
000000000000
000000000000
000000000000
000000000000
000000000000
000000000000
000000000000
000000000000
000000000000
000000000000
000000000000
000000000000
000000000000
000000000000
000000000000
000000000000
000000000000
000000000000
000000000000
000000000000
ENDCHAR

STARTCHAR kor_A1A2
ENCODING 41378
SWIDTH 1024 0
DWIDTH 48 0
BBX 48 48 0 -6
BITMAP
000000000000
000000003C00
000000003F00
000000001FC0
000000000FF0
0000000007F8
0000000003FC
0000000001FE
0000000000FE
00000000007E
00000000007E
00000000003C
000000000000
000000000000
000000000000
000000000000
000000000000
000000000000
000000000000
000000000000
000000000000
000000000000
000000000000
000000000000
000000000000
000000000000
000000000000
000000000000
000000000000
000000000000
000000000000
000000000000
000000000000
000000000000
000000000000
000000000000
000000000000
000000000000
000000000000
000000000000
000000000000
000000000000
000000000000
000000000000
000000000000
000000000000
000000000000
000000000000
ENDCHAR

STARTCHAR kor_A1A3
ENCODING 41379
SWIDTH 1024 0
DWIDTH 48 0
BBX 48 48 0 -6
BITMAP
000000000000
000000000000
0000000003E0
000000000FF8
000000001FFC
000000001F7C
000000003C1E
000000003C1E
00000000380E
000000003C1E
000000003C1E
000000001F7C
000000001FFC
000000000FF8
0000000003E0
000000000000
000000000000
000000000000
000000000000
000000000000
000000000000
000000000000
000000000000
000000000000
000000000000
000000000000
000000000000
000000000000
000000000000
000000000000
000000000000
000000000000
000000000000
000000000000
000000000000
000000000000
000000000000
000000000000
000000000000
000000000000
000000000000
000000000000
000000000000
000000000000
000000000000
000000000000
000000000000
000000000000
ENDCHAR

STARTCHAR kor_A1A4
ENCODING 41380
SWIDTH 1024 0
DWIDTH 48 0
BBX 48 48 0 -6
BITMAP
000000000000
000000000000
000000000000
000000000000
000000000000
000000000000
000000000000
000000000000
000000000000
000000000000
000000000000
000000000000
000000000000
000000000000
000000000000
000000000000
000000000000
000000000000
000000000000
000001E00000
000007F80000
000007F80000
00000FFC0000
00000FFC0000
00000FFC0000
00000FFC0000
000007F80000
000007F80000
000001E00000
000000000000
000000000000
000000000000
000000000000
000000000000
000000000000
000000000000
000000000000
000000000000
000000000000
000000000000
000000000000
000000000000
000000000000
000000000000
000000000000
000000000000
000000000000
000000000000
ENDCHAR

STARTCHAR kor_A1A5
ENCODING 41381
SWIDTH 1024 0
DWIDTH 48 0
BBX 48 48 0 -6
BITMAP
000000000000
000000000000
000000000000
000000000000
000000000000
000000000000
000000000000
000000000000
000000000000
000000000000
000000000000
000000000000
000000000000
000000000000
000000000000
000000000000
000000000000
000000000000
000000000000
001C00000E00
007F00003F80
007F00003F80
00FF80007FC0
00FF80007FC0
00FF80007FC0
007F00003F80
007F00003F80
001C00000E00
000000000000
000000000000
000000000000
000000000000
000000000000
000000000000
000000000000
000000000000
000000000000
000000000000
000000000000
000000000000
000000000000
000000000000
000000000000
000000000000
000000000000
000000000000
000000000000
000000000000
ENDCHAR

STARTCHAR kor_A1A6
ENCODING 41382
SWIDTH 1024 0
DWIDTH 48 0
BBX 48 48 0 -6
BITMAP
000000000000
000000000000
000000000000
000000000000
000000000000
000000000000
000000000000
000000000000
000000000000
000000000000
000000000000
000000000000
000000000000
000000000000
000000000000
000000000000
000000000000
000000000000
000000000000
01C001C001C0
07F007F007F0
07F007F007F0
0FF80FF80FF8
0FF80FF80FF8
0FF80FF80FF8
07F007F007F0
07F007F007F0
01C001C001C0
000000000000
000000000000
000000000000
000000000000
000000000000
000000000000
000000000000
000000000000
000000000000
000000000000
000000000000
000000000000
000000000000
000000000000
000000000000
000000000000
000000000000
000000000000
000000000000
000000000000
ENDCHAR

STARTCHAR kor_A1A7
ENCODING 41383
SWIDTH 1024 0
DWIDTH 48 0
BBX 48 48 0 -6
BITMAP
000000000000
000000000000
000000000000
000000000000
0001C000E000
0007F003F800
0007F003F800
000FF807FC00
000FF807FC00
000FF807FC00
0007F003F800
0007F003F800
0001C000E000
000000000000
000000000000
000000000000
000000000000
000000000000
000000000000
000000000000
000000000000
000000000000
000000000000
000000000000
000000000000
000000000000
000000000000
000000000000
000000000000
000000000000
000000000000
000000000000
000000000000
000000000000
000000000000
000000000000
000000000000
000000000000
000000000000
000000000000
000000000000
000000000000
000000000000
000000000000
000000000000
000000000000
000000000000
000000000000
ENDCHAR

STARTCHAR kor_A1A8
ENCODING 41384
SWIDTH 1024 0
DWIDTH 48 0
BBX 48 48 0 -6
BITMAP
000000000000
000000000000
000000000000
000000000000
000000000000
000000000000
000000000000
000000000000
000000000000
000000000000
000000000000
000000000000
000000000000
000000000000
000007878000
00000FCFC000
00000FCFC000
00000FCFC000
00000FCFC000
00000FCFC000
00000F8F8000
00000F8F8000
00001F9F8000
00001F1F0000
00001F1F0000
00001E1E0000
00003E3E0000
00003C3C0000
00003C3C0000
000078780000
000078780000
0000F0F00000
0000E0E00000
0000C0C00000
000000000000
000000000000
000000000000
000000000000
000000000000
000000000000
000000000000
000000000000
000000000000
000000000000
000000000000
000000000000
000000000000
000000000000
ENDCHAR

STARTCHAR kor_A1A9
ENCODING 41385
SWIDTH 1024 0
DWIDTH 48 0
BBX 48 48 0 -6
BITMAP
000000000000
000000000000
000000000000
000000000000
000000000000
000000000000
000000000000
000000000000
000000000000
000000000000
000000000000
000000000000
000000000000
000000000000
000000000000
000000000000
000000000000
000000000000
000000000000
000000000000
000000000000
0000FFFFE000
0000FFFFE000
0000FFFFE000
0000FFFFE000
000000000000
000000000000
000000000000
000000000000
000000000000
000000000000
000000000000
000000000000
000000000000
000000000000
000000000000
000000000000
000000000000
000000000000
000000000000
000000000000
000000000000
000000000000
000000000000
000000000000
000000000000
000000000000
000000000000
ENDCHAR

STARTCHAR kor_A1AA
ENCODING 41386
SWIDTH 1024 0
DWIDTH 48 0
BBX 48 48 0 -6
BITMAP
000000000000
000000000000
000000000000
000000000000
000000000000
000000000000
000000000000
000000000000
000000000000
000000000000
000000000000
000000000000
000000000000
000000000000
000000000000
000000000000
000000000000
000000000000
000000000000
000000000000
000000000000
3FFFFFFFFFFE
3FFFFFFFFFFE
3FFFFFFFFFFE
3FFFFFFFFFFE
000000000000
000000000000
000000000000
000000000000
000000000000
000000000000
000000000000
000000000000
000000000000
000000000000
000000000000
000000000000
000000000000
000000000000
000000000000
000000000000
000000000000
000000000000
000000000000
000000000000
000000000000
000000000000
000000000000
ENDCHAR

STARTCHAR kor_A1AB
ENCODING 41387
SWIDTH 1024 0
DWIDTH 48 0
BBX 48 48 0 -6
BITMAP
000000000000
00003C0F0000
00003C0F0000
00003C0F0000
00003C0F0000
00003C0F0000
00003C0F0000
00003C0F0000
00003C0F0000
00003C0F0000
00003C0F0000
00003C0F0000
00003C0F0000
00003C0F0000
00003C0F0000
00003C0F0000
00003C0F0000
00003C0F0000
00003C0F0000
00003C0F0000
00003C0F0000
00003C0F0000
00003C0F0000
00003C0F0000
00003C0F0000
00003C0F0000
00003C0F0000
00003C0F0000
00003C0F0000
00003C0F0000
00003C0F0000
00003C0F0000
00003C0F0000
00003C0F0000
00003C0F0000
00003C0F0000
00003C0F0000
00003C0F0000
00003C0F0000
00003C0F0000
00003C0F0000
00003C0F0000
00003C0F0000
00003C0F0000
00003C0F0000
00003C0F0000
000000000000
000000000000
ENDCHAR

STARTCHAR kor_A1AC
ENCODING 41388
SWIDTH 1024 0
DWIDTH 48 0
BBX 48 48 0 -6
BITMAP
000000000000
380000000000
3C0000000000
3E0000000000
3F0000000000
1F8000000000
0FC000000000
07E000000000
03F000000000
01F800000000
00FC00000000
007E00000000
003F00000000
001F80000000
000FC0000000
0007E0000000
0003F0000000
0001F8000000
0000FC000000
00007E000000
00003F000000
00001F800000
00000FC00000
000007E00000
000003F00000
000001F80000
000000FC0000
0000007E0000
0000003F0000
0000001F8000
0000000FC000
00000007E000
00000003F000
00000001F800
00000000FC00
000000007E00
000000003F00
000000001F80
000000000FC0
0000000007E0
0000000003F0
0000000001F8
0000000000FC
00000000007E
00000000003E
00000000001E
000000000000
000000000000
ENDCHAR

STARTCHAR kor_A1AD
ENCODING 41389
SWIDTH 1024 0
DWIDTH 48 0
BBX 48 48 0 -6
BITMAP
000000000000
000000000000
000000000000
000000000000
000000000000
000000000000
000000000000
000000000000
000000000000
000000000000
000000000000
000000000000
000000000000
000000000000
000000000000
000000000000
000000000000
000000000000
000000000000
0003FC000038
001FFF800078
007FFFE000F8
00FFFFFC03F0
01FFFFFFFFE0
03F007FFFFC0
07C000FFFF80
0780003FFE00
07000007F000
000000000000
000000000000
000000000000
000000000000
000000000000
000000000000
000000000000
000000000000
000000000000
000000000000
000000000000
000000000000
000000000000
000000000000
000000000000
000000000000
000000000000
000000000000
000000000000
000000000000
ENDCHAR

STARTCHAR kor_A1AE
ENCODING 41390
SWIDTH 1024 0
DWIDTH 48 0
BBX 48 48 0 -6
BITMAP
000000000000
0000000001C0
0000000007C0
000000000F80
000000001F00
000000003E00
000000007C00
000000007C00
00000000F800
00000000FE00
00000000FF00
00000000FF80
00000000FF80
00000000FF80
000000007F80
000000007F00
000000003E00
000000000000
000000000000
000000000000
000000000000
000000000000
000000000000
000000000000
000000000000
000000000000
000000000000
000000000000
000000000000
000000000000
000000000000
000000000000
000000000000
000000000000
000000000000
000000000000
000000000000
000000000000
000000000000
000000000000
000000000000
000000000000
000000000000
000000000000
000000000000
000000000000
000000000000
000000000000
ENDCHAR

STARTCHAR kor_A1AF
ENCODING 41391
SWIDTH 1024 0
DWIDTH 48 0
BBX 48 48 0 -6
BITMAP
000000000000
000000000000
001F00000000
003F80000000
007FC0000000
007FC0000000
007FC0000000
007FC0000000
003FC0000000
000FC0000000
0007C0000000
000F80000000
000F80000000
001F00000000
003E00000000
007C00000000
00F800000000
00E000000000
000000000000
000000000000
000000000000
000000000000
000000000000
000000000000
000000000000
000000000000
000000000000
000000000000
000000000000
000000000000
000000000000
000000000000
000000000000
000000000000
000000000000
000000000000
000000000000
000000000000
000000000000
000000000000
000000000000
000000000000
000000000000
000000000000
000000000000
000000000000
000000000000
000000000000
ENDCHAR

STARTCHAR kor_A1B0
ENCODING 41392
SWIDTH 1024 0
DWIDTH 48 0
BBX 48 48 0 -6
BITMAP
000000000000
000000001C07
000000007C1F
00000000F83E
00000001F07C
00000003E0F8
00000007C1F0
00000007C1F0
0000000F83E0
0000000FE3F8
0000000FF3FC
0000000FFBFE
0000000FFBFE
0000000FFBFE
00000007F9FE
00000007F1FC
00000003E0F8
000000000000
000000000000
000000000000
000000000000
000000000000
000000000000
000000000000
000000000000
000000000000
000000000000
000000000000
000000000000
000000000000
000000000000
000000000000
000000000000
000000000000
000000000000
000000000000
000000000000
000000000000
000000000000
000000000000
000000000000
000000000000
000000000000
000000000000
000000000000
000000000000
000000000000
000000000000
ENDCHAR

STARTCHAR kor_A1B1
ENCODING 41393
SWIDTH 1024 0
DWIDTH 48 0
BBX 48 48 0 -6
BITMAP
000000000000
000000000000
03E07C000000
07F0FE000000
0FF9FF000000
0FF9FF000000
0FF9FF000000
0FF9FF000000
07F8FF000000
01F83F000000
00F81F000000
01F03E000000
01F03E000000
03E07C000000
07C0F8000000
0F81F0000000
1F03E0000000
1C0380000000
000000000000
000000000000
000000000000
000000000000
000000000000
000000000000
000000000000
000000000000
000000000000
000000000000
000000000000
000000000000
000000000000
000000000000
000000000000
000000000000
000000000000
000000000000
000000000000
000000000000
000000000000
000000000000
000000000000
000000000000
000000000000
000000000000
000000000000
000000000000
000000000000
000000000000
ENDCHAR

STARTCHAR kor_A1B2
ENCODING 41394
SWIDTH 1024 0
DWIDTH 48 0
BBX 48 48 0 -6
BITMAP
000000000000
00000000FFF8
00000000FFF8
00000000FFF8
00000000FFF8
00000000F000
00000000F000
00000000F000
00000000F000
00000000F000
00000000F000
00000000F000
00000000F000
00000000F000
00000000F000
00000000F000
00000000F000
00000000F000
00000000F000
00000000F000
00000000F000
00000000F000
00000000F000
00000000F000
00000000F000
00000000F000
00000000F000
00000000F000
00000000F000
00000000F000
00000000F000
00000000F000
00000000F000
00000000F000
00000000F000
00000000F000
00000000F000
00000000F000
00000000F000
00000000F000
00000000F000
00000000F000
00000000FFF8
00000000FFF8
00000000FFF8
00000000FFF8
000000000000
000000000000
ENDCHAR

STARTCHAR kor_A1B3
ENCODING 41395
SWIDTH 1024 0
DWIDTH 48 0
BBX 48 48 0 -6
BITMAP
000000000000
0FFF00000000
0FFF00000000
0FFF00000000
0FFF00000000
000F00000000
000F00000000
000F00000000
000F00000000
000F00000000
000F00000000
000F00000000
000F00000000
000F00000000
000F00000000
000F00000000
000F00000000
000F00000000
000F00000000
000F00000000
000F00000000
000F00000000
000F00000000
000F00000000
000F00000000
000F00000000
000F00000000
000F00000000
000F00000000
000F00000000
000F00000000
000F00000000
000F00000000
000F00000000
000F00000000
000F00000000
000F00000000
000F00000000
000F00000000
000F00000000
000F00000000
000F00000000
0FFF00000000
0FFF00000000
0FFF00000000
0FFF00000000
000000000000
000000000000
ENDCHAR

STARTCHAR kor_A1B4
ENCODING 41396
SWIDTH 1024 0
DWIDTH 48 0
BBX 48 48 0 -6
BITMAP
00000000003C
00000000007C
0000000000FC
0000000001F8
0000000003F0
0000000003E0
0000000007C0
000000000F80
000000001F80
000000003F00
000000007E00
000000007C00
00000000F800
00000001F000
00000003F000
00000007E000
0000000FC000
0000000F8000
0000001F0000
0000003E0000
0000007E0000
000000FC0000
000001F80000
000001F00000
000001F80000
000000FC0000
0000007E0000
0000003E0000
0000001F0000
0000000F8000
0000000FC000
00000007E000
00000003F000
00000001F000
00000000F800
000000007C00
000000007E00
000000003F00
000000001F80
000000000F80
0000000007C0
0000000003E0
0000000003F0
0000000001F8
0000000000FC
00000000007C
00000000003C
000000000000
ENDCHAR

STARTCHAR kor_A1B5
ENCODING 41397
SWIDTH 1024 0
DWIDTH 48 0
BBX 48 48 0 -6
BITMAP
1E0000000000
1F0000000000
1F8000000000
0FC000000000
07E000000000
03E000000000
01F000000000
00F800000000
00FC00000000
007E00000000
003F00000000
001F00000000
000F80000000
0007C0000000
0007E0000000
0003F0000000
0001F8000000
0000F8000000
00007C000000
00003E000000
00003F000000
00001F800000
00000FC00000
000007C00000
00000FC00000
00001F800000
00003F000000
00003E000000
00007C000000
0000F8000000
0001F8000000
0003F0000000
0007E0000000
0007C0000000
000F80000000
001F00000000
003F00000000
007E00000000
00FC00000000
00F800000000
01F000000000
03E000000000
07E000000000
0FC000000000
1F8000000000
1F0000000000
1E0000000000
000000000000
ENDCHAR

STARTCHAR kor_A1B6
ENCODING 41398
SWIDTH 1024 0
DWIDTH 48 0
BBX 48 48 0 -6
BITMAP
0000000007BC
0000000007BC
000000000FFC
000000000F78
000000001FF8
000000001EF0
000000003FF0
000000003DE0
000000007FE0
000000007BC0
00000000FFC0
00000000F780
00000001FF80
00000001EF00
00000003FF00
00000003DE00
00000007FE00
00000007BC00
0000000FFC00
0000000F7800
0000001FF800
0000001EF000
0000003FF000
0000003DE000
0000003FF000
0000001EF000
0000001FF800
0000000F7800
0000000FFC00
00000007BC00
00000007FE00
00000003DE00
00000003FF00
00000001EF00
00000001FF80
00000000F780
00000000FFC0
000000007BC0
000000007FE0
000000003DE0
000000003FF0
000000001EF0
000000001FF8
000000000F78
000000000FFC
0000000007BC
0000000007BC
000000000000
ENDCHAR

STARTCHAR kor_A1B7
ENCODING 41399
SWIDTH 1024 0
DWIDTH 48 0
BBX 48 48 0 -6
BITMAP
1EF000000000
1EF000000000
1FF800000000
0F7800000000
0FFC00000000
07BC00000000
07FE00000000
03DE00000000
03FF00000000
01EF00000000
01FF80000000
00F780000000
00FFC0000000
007BC0000000
007FE0000000
003DE0000000
003FF0000000
001EF0000000
001FF8000000
000F78000000
000FFC000000
0007BC000000
0007FE000000
0003DE000000
0007FE000000
0007BC000000
000FFC000000
000F78000000
001FF8000000
001EF0000000
003FF0000000
003DE0000000
007FE0000000
007BC0000000
00FFC0000000
00F780000000
01FF80000000
01EF00000000
03FF00000000
03DE00000000
07FE00000000
07BC00000000
0FFC00000000
0F7800000000
1FF800000000
1EF000000000
1EF000000000
000000000000
ENDCHAR

STARTCHAR kor_A1B8
ENCODING 41400
SWIDTH 1024 0
DWIDTH 48 0
BBX 48 48 0 -6
BITMAP
000000000000
00000007FFFC
00000007FFFC
00000007FFFC
00000007FFFC
000000078000
000000078000
000000078000
000000078000
000000078000
000000078000
000000078000
000000078000
000000078000
000000078000
000000078000
000000078000
000000078000
000000078000
000000078000
000000078000
000000078000
000000078000
000000078000
000000078000
000000078000
000000078000
000000078000
000000078000
000000078000
000000078000
000000078000
000000078000
000000078000
000000078000
000000078000
000000078000
000000078000
000000078000
000000078000
000000078000
000000078000
000000078000
000000078000
000000078000
000000078000
000000000000
000000000000
ENDCHAR

STARTCHAR kor_A1B9
ENCODING 41401
SWIDTH 1024 0
DWIDTH 48 0
BBX 48 48 0 -6
BITMAP
000000000000
0000F0000000
0000F0000000
0000F0000000
0000F0000000
0000F0000000
0000F0000000
0000F0000000
0000F0000000
0000F0000000
0000F0000000
0000F0000000
0000F0000000
0000F0000000
0000F0000000
0000F0000000
0000F0000000
0000F0000000
0000F0000000
0000F0000000
0000F0000000
0000F0000000
0000F0000000
0000F0000000
0000F0000000
0000F0000000
0000F0000000
0000F0000000
0000F0000000
0000F0000000
0000F0000000
0000F0000000
0000F0000000
0000F0000000
0000F0000000
0000F0000000
0000F0000000
0000F0000000
0000F0000000
0000F0000000
0000F0000000
0000F0000000
1FFFF0000000
1FFFF0000000
1FFFF0000000
1FFFF0000000
000000000000
000000000000
ENDCHAR

STARTCHAR kor_A1BA
ENCODING 41402
SWIDTH 1024 0
DWIDTH 48 0
BBX 48 48 0 -6
BITMAP
000000000000
0000000FFFFC
0000000FFFFC
0000000FFFFC
0000000FFFFC
0000000F003C
0000000F7FFC
0000000F7FFC
0000000F7FFC
0000000F7FFC
0000000F7800
0000000F7800
0000000F7800
0000000F7800
0000000F7800
0000000F7800
0000000F7800
0000000F7800
0000000F7800
0000000F7800
0000000F7800
0000000F7800
0000000F7800
0000000F7800
0000000F7800
0000000FF800
0000000FF800
0000000FF800
0000000FF800
000000000000
000000000000
000000000000
000000000000
000000000000
000000000000
000000000000
000000000000
000000000000
000000000000
000000000000
000000000000
000000000000
000000000000
000000000000
000000000000
000000000000
000000000000
000000000000
ENDCHAR

STARTCHAR kor_A1BB
ENCODING 41403
SWIDTH 1024 0
DWIDTH 48 0
BBX 48 48 0 -6
BITMAP
000000000000
000000000000
000000000000
000000000000
000000000000
000000000000
000000000000
000000000000
000000000000
000000000000
000000000000
000000000000
000000000000
000000000000
000000000000
000000000000
000000000000
000000000000
000000000000
0007FC000000
0007FC000000
0007FC000000
0007FC000000
0007BC000000
0007BC000000
0007BC000000
0007BC000000
0007BC000000
0007BC000000
0007BC000000
0007BC000000
0007BC000000
0007BC000000
0007BC000000
0007BC000000
0007BC000000
0007BC000000
1FFFBC000000
1FFFBC000000
1FFFBC000000
1FFFBC000000
1E003C000000
1FFFFC000000
1FFFFC000000
1FFFFC000000
1FFFFC000000
000000000000
000000000000
ENDCHAR

STARTCHAR kor_A1BC
ENCODING 41404
SWIDTH 1024 0
DWIDTH 48 0
BBX 48 48 0 -6
BITMAP
000000000000
00000007FFFC
00000007FFFC
00000007FFF8
00000007FFF0
00000007FFE0
00000007FFC0
00000007FFC0
00000007FF80
00000007FF80
00000007FF00
00000007FF00
00000007FF00
00000007FE00
00000007FE00
00000007FE00
00000007FE00
00000007FC00
00000007FC00
00000007FC00
00000007FC00
00000007FC00
00000007FC00
00000007FC00
00000007FC00
00000007FC00
00000007FC00
00000007FC00
00000007FC00
00000007FC00
00000007FE00
00000007FE00
00000007FE00
00000007FE00
00000007FF00
00000007FF00
00000007FF00
00000007FF80
00000007FF80
00000007FFC0
00000007FFC0
00000007FFE0
00000007FFF0
00000007FFF8
00000007FFFC
00000007FFFC
000000000000
000000000000
ENDCHAR

STARTCHAR kor_A1BD
ENCODING 41405
SWIDTH 1024 0
DWIDTH 48 0
BBX 48 48 0 -6
BITMAP
000000000000
1FFFF0000000
1FFFF0000000
0FFFF0000000
07FFF0000000
03FFF0000000
01FFF0000000
01FFF0000000
00FFF0000000
00FFF0000000
007FF0000000
007FF0000000
007FF0000000
003FF0000000
003FF0000000
003FF0000000
003FF0000000
001FF0000000
001FF0000000
001FF0000000
001FF0000000
001FF0000000
001FF0000000
001FF0000000
001FF0000000
001FF0000000
001FF0000000
001FF0000000
001FF0000000
001FF0000000
003FF0000000
003FF0000000
003FF0000000
003FF0000000
007FF0000000
007FF0000000
007FF0000000
00FFF0000000
00FFF0000000
01FFF0000000
01FFF0000000
03FFF0000000
07FFF0000000
0FFFF0000000
1FFFF0000000
1FFFF0000000
000000000000
000000000000
ENDCHAR

STARTCHAR kor_A1BE
ENCODING 41406
SWIDTH 1024 0
DWIDTH 48 0
BBX 48 48 0 -6
BITMAP
000000000000
000000000000
000000000000
000001E00000
000001E00000
000001E00000
000001E00000
000001E00000
000001E00000
000001E00000
000001E00000
000001E00000
000001E00000
000001E00000
000001E00000
000001E00000
01FFFFFFFFE0
01FFFFFFFFE0
01FFFFFFFFE0
01FFFFFFFFE0
000001E00000
000001E00000
000001E00000
000001E00000
000001E00000
000001E00000
000001E00000
000001E00000
000001E00000
000001E00000
000001E00000
000001E00000
000001E00000
000000000000
000000000000
01FFFFFFFFE0
01FFFFFFFFE0
01FFFFFFFFE0
01FFFFFFFFE0
000000000000
000000000000
000000000000
000000000000
000000000000
000000000000
000000000000
000000000000
000000000000
ENDCHAR

STARTCHAR kor_A1BF
ENCODING 41407
SWIDTH 1024 0
DWIDTH 48 0
BBX 48 48 0 -6
BITMAP
000000000000
000000000000
000000000000
000000000000
000000000000
000000000000
000000000000
000000000000
007800000F00
007C00001F00
007E00003F00
003F00007E00
001F8000FC00
000FC001F800
0007E003F000
0003F007E000
0001F80FC000
0000FC1F8000
00007E3F0000
00003F7E0000
00001FFC0000
00000FF80000
000007F00000
000007F00000
00000FF80000
00001FFC0000
00003F7E0000
00007E3F0000
0000FC1F8000
0001F80FC000
0003F007E000
0007E003F000
000FC001F800
001F8000FC00
003F00007E00
007E00003F00
007C00001F00
007800000F00
000000000000
000000000000
000000000000
000000000000
000000000000
000000000000
000000000000
000000000000
000000000000
000000000000
ENDCHAR

STARTCHAR kor_A1C0
ENCODING 41408
SWIDTH 1024 0
DWIDTH 48 0
BBX 48 48 0 -6
BITMAP
000000000000
000000000000
000000000000
000000000000
000000000000
000000000000
000000000000
000001C00000
000007F00000
000007F00000
00000FF80000
00000FF80000
00000FF80000
000007F00000
000007F00000
000001C00000
000000000000
000000000000
000000000000
000000000000
000000000000
000000000000
03FFFFFFFFE0
03FFFFFFFFE0
03FFFFFFFFE0
03FFFFFFFFE0
000000000000
000000000000
000000000000
000000000000
000000000000
000000000000
000001C00000
000007F00000
000007F00000
00000FF80000
00000FF80000
00000FF80000
000007F00000
000007F00000
000001C00000
000000000000
000000000000
000000000000
000000000000
000000000000
000000000000
000000000000
ENDCHAR

STARTCHAR kor_A1C1
ENCODING 41409
SWIDTH 1024 0
DWIDTH 48 0
BBX 48 48 0 -6
BITMAP
000000000000
000000000000
000000000000
000000000000
000000000000
000000000000
00003C000000
00003C000000
00003C000000
00003E000000
00001E000000
00001E000000
00001F000000
00000F000000
00000F000000
00000F800000
03FFFFFFFFE0
03FFFFFFFFE0
03FFFFFFFFE0
03FFFFFFFFE0
000003C00000
000003E00000
000001E00000
000001E00000
000001F00000
000000F00000
03FFFFFFFFE0
03FFFFFFFFE0
03FFFFFFFFE0
03FFFFFFFFE0
0000007C0000
0000003C0000
0000003C0000
0000003E0000
0000001E0000
0000001E0000
0000001F0000
0000000F0000
0000000F0000
0000000F0000
000000000000
000000000000
000000000000
000000000000
000000000000
000000000000
000000000000
000000000000
ENDCHAR

STARTCHAR kor_A1C2
ENCODING 41410
SWIDTH 1024 0
DWIDTH 48 0
BBX 48 48 0 -6
BITMAP
000000000000
000000000000
000000000000
000000000000
000000000000
000000000000
000000000000
0000000000F8
0000000007F8
000000003FF8
00000001FFF8
0000000FFFC0
0000007FFE00
000003FFF000
00001FFF8000
0000FFFC0000
0007FFE00000
003FFF000000
01FFF8000000
01FFC0000000
01FFC0000000
01FFF8000000
003FFF000000
0007FFE00000
0000FFFC0000
00001FFF8000
000003FFF000
0000007FFE00
0000000FFFC0
00000001FFF8
000000003FF8
0000000007F8
0000000000F8
000000000000
01FFFFFFFFF8
01FFFFFFFFF8
01FFFFFFFFF8
01FFFFFFFFF8
000000000000
000000000000
000000000000
000000000000
000000000000
000000000000
000000000000
000000000000
000000000000
000000000000
ENDCHAR

STARTCHAR kor_A1C3
ENCODING 41411
SWIDTH 1024 0
DWIDTH 48 0
BBX 48 48 0 -6
BITMAP
000000000000
000000000000
000000000000
000000000000
000000000000
000000000000
000000000000
0F8000000000
0FF000000000
0FFE00000000
0FFFC0000000
01FFF8000000
003FFF000000
0007FFE00000
0000FFFC0000
00001FFF8000
000003FFF000
0000007FFE00
0000000FFFC0
00000001FFC0
00000001FFC0
0000000FFFC0
0000007FFE00
000003FFF000
00001FFF8000
0000FFFC0000
0007FFE00000
003FFF000000
01FFF8000000
0FFFC0000000
0FFE00000000
0FF000000000
0F8000000000
000000000000
000000000000
0FFFFFFFFF80
0FFFFFFFFF80
0FFFFFFFFF80
0FFFFFFFFF80
000000000000
000000000000
000000000000
000000000000
000000000000
000000000000
000000000000
000000000000
000000000000
ENDCHAR

STARTCHAR kor_A1C4
ENCODING 41412
SWIDTH 1024 0
DWIDTH 48 0
BBX 48 48 0 -6
BITMAP
000000000000
000000000000
000000000000
000000000000
000000000000
000000000000
000000000000
000000000000
000000000000
000000000000
000000000000
000000000000
003FE003FE00
00FFF80FFF80
01FFFC1FFFC0
03FFFE3FFFE0
07F07F7F07F0
0FC01F7C01F8
0F800FF800F8
1F0007F0007C
1F0007F0007C
1E0003E0003C
1E0003E0003C
1E0003E0003C
1E0003E0003C
1F0007F0007C
1F0007F0007C
0F800FF800F8
0FC01F7C01F8
07F07F7F07F0
03FFFE3FFFE0
01FFFC1FFFC0
00FFF80FFF80
003FE003FE00
000000000000
000000000000
000000000000
000000000000
000000000000
000000000000
000000000000
000000000000
000000000000
000000000000
000000000000
000000000000
000000000000
000000000000
ENDCHAR

STARTCHAR kor_A1C5
ENCODING 41413
SWIDTH 1024 0
DWIDTH 48 0
BBX 48 48 0 -6
BITMAP
000000000000
000000000000
000000000000
000000000000
000000000000
000000000000
000000000000
000001C00000
000007F00000
000007F00000
00000FF80000
00000FF80000
00000FF80000
000007F00000
000007F00000
000001C00000
000000000000
000000000000
000000000000
000000000000
000000000000
000000000000
000000000000
000000000000
000000000000
000000000000
000000000000
000000000000
000E00003800
003F8000FE00
003F8000FE00
007FC001FF00
007FC001FF00
007FC001FF00
003F8000FE00
003F8000FE00
000E00003800
000000000000
000000000000
000000000000
000000000000
000000000000
000000000000
000000000000
000000000000
000000000000
000000000000
000000000000
ENDCHAR

STARTCHAR kor_A1C6
ENCODING 41414
SWIDTH 1024 0
DWIDTH 48 0
BBX 48 48 0 -6
BITMAP
000000000000
000000000000
03E000000000
0FF800000000
1FFC00000000
1F7C00000000
3C1E00000000
3C1E00000000
380E00000000
3C1E00000000
3C1E00000000
1F7C00000000
1FFC00000000
0FF800000000
03E000000000
000000000000
000000000000
000000000000
000000000000
000000000000
000000000000
000000000000
000000000000
000000000000
000000000000
000000000000
000000000000
000000000000
000000000000
000000000000
000000000000
000000000000
000000000000
000000000000
000000000000
000000000000
000000000000
000000000000
000000000000
000000000000
000000000000
000000000000
000000000000
000000000000
000000000000
000000000000
000000000000
000000000000
ENDCHAR

STARTCHAR kor_A1C7
ENCODING 41415
SWIDTH 1024 0
DWIDTH 48 0
BBX 48 48 0 -6
BITMAP
000000000000
000000000000
000000000000
01E000000000
03F000000000
03F000000000
03F000000000
03F000000000
07E000000000
07E000000000
07C000000000
0FC000000000
0F8000000000
1F0000000000
1E0000000000
3C0000000000
380000000000
300000000000
000000000000
000000000000
000000000000
000000000000
000000000000
000000000000
000000000000
000000000000
000000000000
000000000000
000000000000
000000000000
000000000000
000000000000
000000000000
000000000000
000000000000
000000000000
000000000000
000000000000
000000000000
000000000000
000000000000
000000000000
000000000000
000000000000
000000000000
000000000000
000000000000
000000000000
ENDCHAR

STARTCHAR kor_A1C8
ENCODING 41416
SWIDTH 1024 0
DWIDTH 48 0
BBX 48 48 0 -6
BITMAP
000000000000
000000000000
000000000000
007878000000
00FCFC000000
00FCFC000000
00FCFC000000
00FCFC000000
01F9F8000000
01F9F8000000
01F1F0000000
03F3F0000000
03E3E0000000
07C7C0000000
078780000000
0F0F00000000
0E0E00000000
0C0C00000000
000000000000
000000000000
000000000000
000000000000
000000000000
000000000000
000000000000
000000000000
000000000000
000000000000
000000000000
000000000000
000000000000
000000000000
000000000000
000000000000
000000000000
000000000000
000000000000
000000000000
000000000000
000000000000
000000000000
000000000000
000000000000
000000000000
000000000000
000000000000
000000000000
000000000000
ENDCHAR

STARTCHAR kor_A1C9
ENCODING 41417
SWIDTH 1024 0
DWIDTH 48 0
BBX 48 48 0 -6
BITMAP
000000000000
000000000000
007C00000000
01FF00000000
03FF80000000
03EF80000000
0783C01FE0E0
0783C0FFF8E0
0701C3FFFDE0
0783C7F87FE0
0783CFE01FE0
03EF9F800FE0
03FFBF0007E0
01FF7E0003E0
007C7C0001E0
0000FC0001E0
0000F80000E0
0001F80000E0
0001F8000000
0001F0000000
0003F0000000
0003F0000000
0003F0000000
0003F0000000
0003F0000000
0003F0000000
0003F0000000
0003F0000000
0003F0000000
0003F0000000
0003F0000000
0001F8000070
0001F8000070
0001F80000F0
0000FC0000F0
0000FC0001E0
00007E0003E0
00007F0007C0
00003F800F80
00001FE03F00
00000FFFFE00
000007FFFC00
000001FFF000
0000003FC000
000000000000
000000000000
000000000000
000000000000
ENDCHAR

STARTCHAR kor_A1CA
ENCODING 41418
SWIDTH 1024 0
DWIDTH 48 0
BBX 48 48 0 -6
BITMAP
000000000000
000001E00000
000007F80000
000007F80000
00000FFC0000
00000F3C0000
00000F3C0000
00000FFC0000
000007F80000
000007F80000
000001E00000
000000E00000
000001F00000
000003F00000
000007F80000
000007F80000
00000FFC0000
00000FFC0000
00001FFE0000
00001EFE0000
00003EFF0000
00003C7F0000
00007C7F8000
0000783F8000
0000F83FC000
0000F01FC000
0001F01FE000
0001E00FE000
0003E00FF000
0003C007F000
0007C007F800
0007FFFFF800
000FFFFFFC00
000FFFFFFC00
001F0001FE00
001E0000FE00
003E0000FF00
003C00007F00
007C00007F80
00F800003FC0
01F800003FC0
03F800007FF0
0FFF0003FFFC
0FFF0003FFFC
0FFF0003FFFC
000000000000
000000000000
000000000000
ENDCHAR

STARTCHAR kor_A1CB
ENCODING 41419
SWIDTH 1024 0
DWIDTH 48 0
BBX 48 48 0 -6
BITMAP
000000000000
000000000000
00000003C000
00000003C000
00000003C000
00000007C000
000000078000
000000078000
0000000F8000
0000000F0000
000000FF0000
000003FFC000
00000FFFE000
00001FFFF000
00003FBFF000
00007E3FF800
00007C3FF800
0000F87FF800
0000F87BF800
0001F07BF800
0001F0F9F000
0001F0F00000
0001F0F00000
0001F1F00000
0001F1E00000
0001F1E00000
0001FBE00000
0000FBC0C000
0000FFC1C000
00007FC3C000
00007F8F8000
00003FFF0000
00001FFE0000
00000FF80000
00000F000000
00001F000000
00001E000000
00001E000000
00003E000000
00003C000000
00003C000000
00007C000000
000078000000
000078000000
000078000000
000000000000
000000000000
000000000000
ENDCHAR

STARTCHAR kor_A1CC
ENCODING 41420
SWIDTH 1024 0
DWIDTH 48 0
BBX 48 48 0 -6
BITMAP
000000000000
000000000000
000000000000
000000000000
000000000000
000000000000
0000007F0000
000001FFC000
000003FFF000
000007F3F800
00000FC0F800
00000F807C00
00001F00FC00
00001F01FC00
00003E01FC00
00003E01FC00
00003E01F800
00003E00F000
00003E000000
00003E000000
00003E000000
00003E000000
00003E000000
00003E000000
00003F000000
001FFFFFFE00
001FFFFFFE00
001FFFFFFE00
00001F000000
00001F000000
00000F000000
0000FF000E00
0003FF000E00
0007FF801E00
000FFFC01E00
000F9FF03E00
000F0FFC7C00
000F0FFFFC00
000F9EFFF800
000FFE7FF800
0007FC3FF000
0003F80FC000
000000000000
000000000000
000000000000
000000000000
000000000000
000000000000
ENDCHAR

STARTCHAR kor_A1CD
ENCODING 41421
SWIDTH 1024 0
DWIDTH 48 0
BBX 48 48 0 -6
BITMAP
000000000000
000000000000
03FFFC07FFF0
03FFFC07FFF0
03FFFC07FFF0
007FE0007F80
001FE0007E00
000FE0007C00
0007F000F800
0007F000F000
0003F801F000
0003F801E000
0001FC03E000
0001FC03C000
0000FE07C000
0000FE078000
00007F0F8000
00007F0F0000
01FFFFFFFFE0
01FFFFFFFFE0
01FFFFFFFFE0
00001FFC0000
00000FFC0000
00000FF80000
01FFFFFFFFE0
01FFFFFFFFE0
01FFFFFFFFE0
000003F00000
000003F00000
000003F00000
000003F00000
000003F00000
000003F00000
000003F00000
000003F00000
000003F00000
000003F00000
000007F80000
00001FFE0000
0003FFFFF000
0003FFFFF000
0003FFFFF000
000000000000
000000000000
000000000000
000000000000
000000000000
000000000000
ENDCHAR

STARTCHAR kor_A1CE
ENCODING 41422
SWIDTH 1024 0
DWIDTH 48 0
BBX 48 48 0 -6
BITMAP
000001E00000
000003F00000
000007F80000
00000FFC0000
00001FFE0000
00003FFF0000
00007FFF8000
0000FDEFC000
0001F9E7E000
0003F1E3F000
0007E1E1F800
000FC1E0FC00
001F81E07E00
003F01E03F00
003E01E01F00
003C01E00F00
003801E00700
000001E00000
000001E00000
000001E00000
000001E00000
000001E00000
000001E00000
000001E00000
000001E00000
000003F00000
00000FFC0000
00003FFF0000
00007FFF8000
0000FE1FC000
0001F807E000
0001F003E000
0003E001F000
0003E001F000
0003C000F000
0003C000F000
0003C000F000
0003E001F000
0003E001F000
0001F003E000
0001F807E000
0000FE1FC000
00007FFF8000
00003FFF0000
00000FFC0000
000003F00000
000000000000
000000000000
ENDCHAR

STARTCHAR kor_A1CF
ENCODING 41423
SWIDTH 1024 0
DWIDTH 48 0
BBX 48 48 0 -6
BITMAP
000000000000
000003F00000
00000FFC0000
00003FFF0000
00007FFF8000
0000FE1FC000
0001F807E000
0001F003E000
0003E001F000
0003E001F000
0003C000F000
0003C000F000
0003C000F000
0003E001F000
0003E001F000
0001F003E000
0001F807E000
0000FE1FC000
00007FFF8000
00003FFF0000
00000FFC0000
000003F00000
000001E00000
000001E00000
000001E00000
000001E00000
00FFFFFFFFC0
00FFFFFFFFC0
00FFFFFFFFC0
00FFFFFFFFC0
000001E00000
000001E00000
000001E00000
000001E00000
000001E00000
000001E00000
000001E00000
000001E00000
000001E00000
000001E00000
000001E00000
000001E00000
000001E00000
000001E00000
000001E00000
000001E00000
000001E00000
000000000000
ENDCHAR

STARTCHAR kor_A1D0
ENCODING 41424
SWIDTH 1024 0
DWIDTH 48 0
BBX 48 48 0 -6
BITMAP
000000000000
000000000000
000000000000
000000000000
000000000000
000000000000
000000000F00
000000001F00
000000003F00
000000007E00
00000000FC00
00000001F800
00000003F000
00000007E000
0000000FC000
0000001F8000
0000003F0000
0000007E0000
000000FC0000
000001F80000
000003F00000
000007E00000
00000FC00000
00001F800000
00003F000000
00007E000000
0000FC000000
0001F8000000
0003F0000000
0007E0000000
000FC0000000
001F80000000
003F00000000
007E00000000
00FFFFFFFFC0
00FFFFFFFFC0
00FFFFFFFFC0
00FFFFFFFFC0
000000000000
000000000000
000000000000
000000000000
000000000000
000000000000
000000000000
000000000000
000000000000
000000000000
ENDCHAR

STARTCHAR kor_A1D1
ENCODING 41425
SWIDTH 1024 0
DWIDTH 48 0
BBX 48 48 0 -6
BITMAP
000000000000
000000000000
000000000000
000000000000
000000000000
000000000000
000000000000
000001E00000
000001E00000
000001E00000
000001E00000
000001E00000
000001E00000
000001E00000
000001E00000
000001E00000
000001E00000
000001E00000
000001E00000
000001E00000
000001E00000
000001E00000
000001E00000
000001E00000
000001E00000
000001E00000
000001E00000
000001E00000
000001E00000
000001E00000
000001E00000
000001E00000
000001E00000
000001E00000
01FFFFFFFFE0
01FFFFFFFFE0
01FFFFFFFFE0
01FFFFFFFFE0
000000000000
000000000000
000000000000
000000000000
000000000000
000000000000
000000000000
000000000000
000000000000
000000000000
ENDCHAR

STARTCHAR kor_A1D2
ENCODING 41426
SWIDTH 1024 0
DWIDTH 48 0
BBX 48 48 0 -6
BITMAP
000000000000
000007F80000
00001FFE0000
00007FFF8000
0000FFFFC000
0001FE1FE000
0003F003F000
0007C000F800
000780007800
000700003800
000600001800
000000000000
000000000000
000000000000
000000000000
000000000000
000000000000
000000000000
000000000000
000000000000
000000000000
000000000000
000000000000
000000000000
000000000000
000000000000
000000000000
000000000000
000000000000
000000000000
000000000000
000000000000
000000000000
000000000000
000000000000
000000000000
000000000000
000000000000
000000000000
000000000000
000000000000
000000000000
000000000000
000000000000
000000000000
000000000000
000000000000
000000000000
ENDCHAR

STARTCHAR kor_A1D3
ENCODING 41427
SWIDTH 1024 0
DWIDTH 48 0
BBX 48 48 0 -6
BITMAP
000000000000
000000000000
000000FE0000
000003FF8000
000007FFC000
00000FFFE000
00001FFFE000
00001F8FF000
00003E03F000
00003C01F000
00007800F800
00007800F800
000070007800
000000007800
000000007800
000000007800
000000007800
000000007800
000000007800
00000FE07800
00003FF8F800
0000FFFCF800
0001FCFEF000
0003F03FF000
0007E01FF000
0007C00FF000
000FC00FE000
000F8007E000
000F8007E000
001F800FC000
001F000FC000
001F000F8000
001F001F8000
001F001F0000
001F003F0000
001F003E0000
001F807E0000
000F80FC0000
000FC1F80000
0007F7F00000
0003FFE00000
0001FFC00000
00007F000000
000000000000
000000000000
000000000000
000000000000
000000000000
ENDCHAR

STARTCHAR kor_A1D4
ENCODING 41428
SWIDTH 1024 0
DWIDTH 48 0
BBX 48 48 0 -6
BITMAP
000000000000
000000000000
000000000000
000000000000
000000000000
000000000000
000000000000
0FFFFFFFFFFE
0FFFFFFFFFFE
0FFFFFFFFFFE
0FFFFFFFFFFE
07C00000007C
03E0000000F8
03F0000001F8
01F0000001F0
00F8000003E0
00FC000007E0
007C000007C0
003E00000F80
003F00001F80
001F00001F00
000F80003E00
000FC0007E00
0007C0007C00
0003E000F800
0003F001F800
0001F001F000
0000F803E000
0000FC07E000
00007C07C000
00003E0F8000
00003F1F8000
00001F1F0000
00000FBE0000
00000FFE0000
000007FC0000
000003F80000
000003F80000
000001F00000
000000E00000
000000000000
000000000000
000000000000
000000000000
000000000000
000000000000
000000000000
000000000000
ENDCHAR

STARTCHAR kor_A1D5
ENCODING 41429
SWIDTH 1024 0
DWIDTH 48 0
BBX 48 48 0 -6
BITMAP
000000000000
000000000000
000000000000
000000000000
000000000000
000000000000
000000000000
000000000000
000000000000
000000000000
000000000000
000000000000
000000000000
000000000000
07FFFFFFFFF0
07FFFFFFFFF0
07FFFFFFFFF0
07FFFFFFFFF0
000000000000
000000000000
000000000000
000000000000
07FFFFFFFFF0
07FFFFFFFFF0
07FFFFFFFFF0
07FFFFFFFFF0
000000000000
000000000000
000000000000
000000000000
07FFFFFFFFF0
07FFFFFFFFF0
07FFFFFFFFF0
07FFFFFFFFF0
000000000000
000000000000
000000000000
000000000000
000000000000
000000000000
000000000000
000000000000
000000000000
000000000000
000000000000
000000000000
000000000000
000000000000
ENDCHAR

STARTCHAR kor_A1D6
ENCODING 41430
SWIDTH 1024 0
DWIDTH 48 0
BBX 48 48 0 -6
BITMAP
000000000000
000000000000
000000000000
000000000000
000000000000
000000000000
000000000000
000700000000
001FC0000000
001FC0000000
003FE0000000
003FE0000000
003FE0000000
001FC0000000
001FC0000000
000700000000
000000000000
000000000000
07FFFFFFFFF0
07FFFFFFFFF0
07FFFFFFFFF0
07FFFFFFFFF0
000000000000
000000000000
000000000000
000000000000
000000000000
07FFFFFFFFF0
07FFFFFFFFF0
07FFFFFFFFF0
07FFFFFFFFF0
000000000000
000000000000
000000007000
00000001FC00
00000001FC00
00000003FE00
00000003FE00
00000003FE00
00000001FC00
00000001FC00
000000007000
000000000000
000000000000
000000000000
000000000000
000000000000
000000000000
ENDCHAR

STARTCHAR kor_A1D7
ENCODING 41431
SWIDTH 1024 0
DWIDTH 48 0
BBX 48 48 0 -6
BITMAP
00000FFC0000
00003FFF0000
00007FFF8000
00007E1FC000
0000FC0FC000
0000FC1FE000
0000FC1FE000
0000FE1FE000
0000FE1FE000
00007F0FC000
00007F878000
00003FC00000
00001FE00000
00000FF00000
000007F80000
000003FC0000
00003FFE0000
0000FFFF0000
0001FFFF8000
0001F83FC000
0003F01FE000
0003F00FF000
0003F007F800
0003F803F800
0003F801FC00
0001FC01FC00
0001FE00FC00
0000FF00FC00
00007F81FC00
00003FC1F800
00001FE7F800
00000FFFF000
000007FFE000
000003FF8000
000001FE0000
000000FF0000
00007C7F8000
0000FE3FC000
0001FF1FC000
0001FF0FE000
0001FF0FE000
0001FF07E000
0000FE07E000
0000FF0FC000
00007FFFC000
00003FFF8000
00000FFE0000
000000000000
ENDCHAR

STARTCHAR kor_A1D8
ENCODING 41432
SWIDTH 1024 0
DWIDTH 48 0
BBX 48 48 0 -6
BITMAP
000000000000
000000000000
000000000000
000000000000
000000000000
000000000000
01E0000001E0
01F001E003E0
01F807F807E0
00FC07F80FC0
007E0FFC1F80
003F0FFC3F00
001F8FFC7E00
000FCFFCFC00
0007E7F9F800
0003F7FBF000
0001F9E7E000
0000FC0FC000
00007E1F8000
000F3F3F3C00
003FDFFEFF00
003FCFFCFF00
007FE7F9FF80
007FE3F1FF80
007FE7F9FF80
007FEFFDFF80
003FDFFEFF00
003FFF3FFF00
000F7E1FBC00
0000FC0FC000
0001F9E7E000
0003F7FBF000
0007E7F9F800
000FCFFCFC00
001F8FFC7E00
003F0FFC3F00
007E0FFC1F80
00FC07F80FC0
01F807F807E0
01F001E003E0
01E0000001E0
01C0000000E0
000000000000
000000000000
000000000000
000000000000
000000000000
000000000000
ENDCHAR

STARTCHAR kor_A1D9
ENCODING 41433
SWIDTH 1024 0
DWIDTH 48 0
BBX 48 48 0 -6
BITMAP
000000000000
000000E00000
000000E00000
000000E00000
000001F00000
000001F00000
000001F00000
000003F80000
000003F80000
000003B80000
000007BC0000
000007BC0000
0000071C0000
00000F1E0000
00000F1E0000
07FFFE0FFFFC
07FFFE0FFFFC
07FFFE0FFFFC
03E0000000F8
01F0000001F0
00F8000003E0
007C000007C0
003E00000F80
001F00001F00
000F80003E00
0007C0007C00
0003E000F800
0001E000F000
0001E0E0F000
0003C1F07800
0003C3F87800
000387FC3800
00078FBE3C00
00079F1F3C00
00073E0F9C00
000F7C07DE00
000FF803FE00
000FF001FE00
001FE000FF00
001FC0007F00
001F80003F00
003F00001F80
003E00000F80
003C00000780
003800000380
000000000000
000000000000
000000000000
ENDCHAR

STARTCHAR kor_A1DA
ENCODING 41434
SWIDTH 1024 0
DWIDTH 48 0
BBX 48 48 0 -6
BITMAP
000000000000
000000E00000
000000E00000
000000E00000
000001F00000
000001F00000
000001F00000
000003F80000
000003F80000
000003F80000
000007FC0000
000007FC0000
000007FC0000
00000FFE0000
00000FFE0000
07FFFFFFFFFC
07FFFFFFFFFC
07FFFFFFFFFC
03FFFFFFFFF8
01FFFFFFFFF0
00FFFFFFFFE0
007FFFFFFFC0
003FFFFFFF80
001FFFFFFF00
000FFFFFFE00
0007FFFFFC00
0003FFFFF800
0001FFFFF000
0001FFFFF000
0003FFFFF800
0003FFFFF800
0003FFFFF800
0007FFBFFC00
0007FF1FFC00
0007FE0FFC00
000FFC07FE00
000FF803FE00
000FF001FE00
001FE000FF00
001FC0007F00
001F80003F00
003F00001F80
003E00000F80
003C00000780
003800000380
000000000000
000000000000
000000000000
ENDCHAR

STARTCHAR kor_A1DB
ENCODING 41435
SWIDTH 1024 0
DWIDTH 48 0
BBX 48 48 0 -6
BITMAP
000000000000
000000000000
00001FFE0000
0000FFFFC000
0003FFFFF000
000FFFFFFC00
003FF003FF00
007F80007F80
00FE00001FC0
01F8000007E0
03F0000003F0
07E0000001F8
07C0000000F8
0F800000007C
0F000000007C
1F000000003E
1E000000003E
1E000000001E
3E000000001F
3C000000001F
3C000000000F
3C000000000F
3C000000000F
3C000000000F
3C000000000F
3C000000000F
3C000000000F
3C000000000F
3C000000001F
3E000000001F
1E000000001E
1E000000003E
1F000000003E
0F000000007C
0F800000007C
07C0000000F8
07E0000001F8
03F0000003F0
01F8000007E0
00FC00000FC0
007F00003F80
003FE001FF00
001FFFFFFE00
0007FFFFF800
0001FFFFE000
00003FFF0000
000000000000
000000000000
ENDCHAR

STARTCHAR kor_A1DC
ENCODING 41436
SWIDTH 1024 0
DWIDTH 48 0
BBX 48 48 0 -6
BITMAP
000000000000
000000000000
00001FFE0000
0000FFFFC000
0003FFFFF000
000FFFFFFC00
003FFFFFFF00
007FFFFFFF80
00FFFFFFFFC0
01FFFFFFFFE0
03FFFFFFFFF0
07FFFFFFFFF8
07FFFFFFFFF8
0FFFFFFFFFFC
0FFFFFFFFFFC
1FFFFFFFFFFE
1FFFFFFFFFFE
1FFFFFFFFFFE
3FFFFFFFFFFF
3FFFFFFFFFFF
3FFFFFFFFFFF
3FFFFFFFFFFF
3FFFFFFFFFFF
3FFFFFFFFFFF
3FFFFFFFFFFF
3FFFFFFFFFFF
3FFFFFFFFFFF
3FFFFFFFFFFF
3FFFFFFFFFFF
3FFFFFFFFFFF
1FFFFFFFFFFE
1FFFFFFFFFFE
1FFFFFFFFFFE
0FFFFFFFFFFC
0FFFFFFFFFFC
07FFFFFFFFF8
07FFFFFFFFF8
03FFFFFFFFF0
01FFFFFFFFE0
00FFFFFFFFC0
007FFFFFFF80
003FFFFFFF00
001FFFFFFE00
0007FFFFF800
0001FFFFE000
00003FFF0000
000000000000
000000000000
ENDCHAR

STARTCHAR kor_A1DD
ENCODING 41437
SWIDTH 1024 0
DWIDTH 48 0
BBX 48 48 0 -6
BITMAP
000000000000
000000000000
00003FFC0000
0001FFFF8000
0007FFFFE000
001FFFFFF800
003FE007FE00
007F0000FF00
00FC0FF83F80
01F87FFF0FC0
03F1FFFFC7E0
07E3FFFFE3F0
07C7F80FF1F0
0F8FE003F8F8
0F1F8000FC78
1F3F00007E7C
1E3E00003E3C
1E7C00001F3C
3E7800000F3E
3C7800000F1E
3CF800000F9E
3CF00000079E
3CF00000079E
3CF00000079E
3CF00000079E
3CF00000079E
3CF00000079E
3CF800000F9E
3C7800000F1E
3E7C00000F3E
1E7C00001F3C
1E3E00003E3C
1F3F00007E7C
0F1F8000FC78
0F8FC003F8F8
07C7F80FF1F0
07E3FFFFE3F0
03F1FFFFC7E0
01F87FFF0FC0
00FC0FF81F80
007F00007F00
003FE003FE00
001FFFFFFC00
0007FFFFF000
0001FFFFC000
00003FFE0000
000000000000
000000000000
ENDCHAR

STARTCHAR kor_A1DE
ENCODING 41438
SWIDTH 1024 0
DWIDTH 48 0
BBX 48 48 0 -6
BITMAP
000001800000
000003C00000
000007E00000
00000FF00000
00001FF80000
00003FFC0000
00007E7E0000
0000FC3F0000
0001F81F8000
0003F00FC000
0007E007E000
000FC003F000
001F8001F800
003F0000FC00
007E00007E00
00FC00003F00
01F800001F80
03F000000FC0
07E0000007E0
0FC0000003F0
1F80000001F8
3F00000000FC
7E000000007E
7E000000003F
3F000000003F
1F800000007E
0FC0000000FC
07E0000001F8
03F0000003F0
01F8000007E0
00FC00000FC0
007E00001F80
003F00003F00
001F80007E00
000FC000FC00
0007E001F800
0003F003F000
0001F807E000
0000FC0FC000
00007E1F8000
00003F3F0000
00001FFE0000
00000FFC0000
000007F80000
000003F00000
000001E00000
000000C00000
000000000000
ENDCHAR

STARTCHAR kor_A1DF
ENCODING 41439
SWIDTH 1024 0
DWIDTH 48 0
BBX 48 48 0 -6
BITMAP
000001800000
000003C00000
000007E00000
00000FF00000
00001FF80000
00003FFC0000
00007FFE0000
0000FFFF0000
0001FFFF8000
0003FFFFC000
0007FFFFE000
000FFFFFF000
001FFFFFF800
003FFFFFFC00
007FFFFFFE00
00FFFFFFFF00
01FFFFFFFF80
03FFFFFFFFC0
07FFFFFFFFE0
0FFFFFFFFFF0
1FFFFFFFFFF8
3FFFFFFFFFFC
7FFFFFFFFFFE
7FFFFFFFFFFF
3FFFFFFFFFFF
1FFFFFFFFFFE
0FFFFFFFFFFC
07FFFFFFFFF8
03FFFFFFFFF0
01FFFFFFFFE0
00FFFFFFFFC0
007FFFFFFF80
003FFFFFFF00
001FFFFFFE00
000FFFFFFC00
0007FFFFF800
0003FFFFF000
0001FFFFE000
0000FFFFC000
00007FFF8000
00003FFF0000
00001FFE0000
00000FFC0000
000007F80000
000003F00000
000001E00000
000000C00000
000000000000
ENDCHAR

STARTCHAR kor_A1E0
ENCODING 41440
SWIDTH 1024 0
DWIDTH 48 0
BBX 48 48 0 -6
BITMAP
000000000000
000000000000
1FFFFFFFFFFC
1FFFFFFFFFFC
1FFFFFFFFFFC
1FFFFFFFFFFC
1E000000003C
1E000000003C
1E000000003C
1E000000003C
1E000000003C
1E000000003C
1E000000003C
1E000000003C
1E000000003C
1E000000003C
1E000000003C
1E000000003C
1E000000003C
1E000000003C
1E000000003C
1E000000003C
1E000000003C
1E000000003C
1E000000003C
1E000000003C
1E000000003C
1E000000003C
1E000000003C
1E000000003C
1E000000003C
1E000000003C
1E000000003C
1E000000003C
1E000000003C
1E000000003C
1E000000003C
1E000000003C
1E000000003C
1E000000003C
1E000000003C
1FFFFFFFFFFC
1FFFFFFFFFFC
1FFFFFFFFFFC
1FFFFFFFFFFC
000000000000
000000000000
000000000000
ENDCHAR

STARTCHAR kor_A1E1
ENCODING 41441
SWIDTH 1024 0
DWIDTH 48 0
BBX 48 48 0 -6
BITMAP
000000000000
000000000000
1FFFFFFFFFFC
1FFFFFFFFFFC
1FFFFFFFFFFC
1FFFFFFFFFFC
1FFFFFFFFFFC
1FFFFFFFFFFC
1FFFFFFFFFFC
1FFFFFFFFFFC
1FFFFFFFFFFC
1FFFFFFFFFFC
1FFFFFFFFFFC
1FFFFFFFFFFC
1FFFFFFFFFFC
1FFFFFFFFFFC
1FFFFFFFFFFC
1FFFFFFFFFFC
1FFFFFFFFFFC
1FFFFFFFFFFC
1FFFFFFFFFFC
1FFFFFFFFFFC
1FFFFFFFFFFC
1FFFFFFFFFFC
1FFFFFFFFFFC
1FFFFFFFFFFC
1FFFFFFFFFFC
1FFFFFFFFFFC
1FFFFFFFFFFC
1FFFFFFFFFFC
1FFFFFFFFFFC
1FFFFFFFFFFC
1FFFFFFFFFFC
1FFFFFFFFFFC
1FFFFFFFFFFC
1FFFFFFFFFFC
1FFFFFFFFFFC
1FFFFFFFFFFC
1FFFFFFFFFFC
1FFFFFFFFFFC
1FFFFFFFFFFC
1FFFFFFFFFFC
1FFFFFFFFFFC
1FFFFFFFFFFC
1FFFFFFFFFFC
000000000000
000000000000
000000000000
ENDCHAR

STARTCHAR kor_A1E2
ENCODING 41442
SWIDTH 1024 0
DWIDTH 48 0
BBX 48 48 0 -6
BITMAP
000000000000
000000000000
000000000000
000000000000
000000000000
000000000000
000000000000
000000000000
000001C00000
000003E00000
000007F00000
000007F00000
00000FF80000
00001F7C0000
00001F7C0000
00003E3E0000
00007C1F0000
00007C1F0000
0000F80F8000
0001F007C000
0001F007C000
0003E003E000
0007C001F000
0007C001F000
000F8000F800
001F00007C00
001F00007C00
003E00003E00
007C00001F00
007C00001F00
00F800000F80
01F0000007C0
01F0000007C0
03E0000003E0
07C0000001F0
07C0000001F0
0F80000000F8
1FFFFFFFFFFC
1FFFFFFFFFFC
1FFFFFFFFFFC
1FFFFFFFFFFC
000000000000
000000000000
000000000000
000000000000
000000000000
000000000000
000000000000
ENDCHAR

STARTCHAR kor_A1E3
ENCODING 41443
SWIDTH 1024 0
DWIDTH 48 0
BBX 48 48 0 -6
BITMAP
000000000000
000000000000
000000000000
000000000000
000000000000
000000000000
000000000000
000000000000
000001C00000
000003E00000
000007F00000
000007F00000
00000FF80000
00001FFC0000
00001FFC0000
00003FFE0000
00007FFF0000
00007FFF0000
0000FFFF8000
0001FFFFC000
0001FFFFC000
0003FFFFE000
0007FFFFF000
0007FFFFF000
000FFFFFF800
001FFFFFFC00
001FFFFFFC00
003FFFFFFE00
007FFFFFFF00
007FFFFFFF00
00FFFFFFFF80
01FFFFFFFFC0
01FFFFFFFFC0
03FFFFFFFFE0
07FFFFFFFFF0
07FFFFFFFFF0
0FFFFFFFFFF8
1FFFFFFFFFFC
1FFFFFFFFFFC
1FFFFFFFFFFC
1FFFFFFFFFFC
000000000000
000000000000
000000000000
000000000000
000000000000
000000000000
000000000000
ENDCHAR

STARTCHAR kor_A1E4
ENCODING 41444
SWIDTH 1024 0
DWIDTH 48 0
BBX 48 48 0 -6
BITMAP
000000000000
000000000000
000000000000
000000000000
000000000000
000000000000
000000000000
1FFFFFFFFFFC
1FFFFFFFFFFC
1FFFFFFFFFFC
1FFFFFFFFFFC
0F80000000F8
07C0000001F0
07C0000001F0
03E0000003E0
01F0000007C0
01F0000007C0
00F800000F80
007C00001F00
007C00001F00
003E00003E00
001F00007C00
001F00007C00
000F8000F800
0007C001F000
0007C001F000
0003E003E000
0001F007C000
0001F007C000
0000F80F8000
00007C1F0000
00007C1F0000
00003E3E0000
00001F7C0000
00001F7C0000
00000FF80000
000007F00000
000007F00000
000003E00000
000001C00000
000000000000
000000000000
000000000000
000000000000
000000000000
000000000000
000000000000
000000000000
ENDCHAR

STARTCHAR kor_A1E5
ENCODING 41445
SWIDTH 1024 0
DWIDTH 48 0
BBX 48 48 0 -6
BITMAP
000000000000
000000000000
000000000000
000000000000
000000000000
000000000000
000000000000
1FFFFFFFFFFC
1FFFFFFFFFFC
1FFFFFFFFFFC
1FFFFFFFFFFC
0FFFFFFFFFF8
07FFFFFFFFF0
07FFFFFFFFF0
03FFFFFFFFE0
01FFFFFFFFC0
01FFFFFFFFC0
00FFFFFFFF80
007FFFFFFF00
007FFFFFFF00
003FFFFFFE00
001FFFFFFC00
001FFFFFFC00
000FFFFFF800
0007FFFFF000
0007FFFFF000
0003FFFFE000
0001FFFFC000
0001FFFFC000
0000FFFF8000
00007FFF0000
00007FFF0000
00003FFE0000
00001FFC0000
00001FFC0000
00000FF80000
000007F00000
000007F00000
000003E00000
000001C00000
000000000000
000000000000
000000000000
000000000000
000000000000
000000000000
000000000000
000000000000
ENDCHAR

STARTCHAR kor_A1E6
ENCODING 41446
SWIDTH 1024 0
DWIDTH 48 0
BBX 48 48 0 -6
BITMAP
000000000000
000000000000
000000000000
000000000000
000000000000
000000000000
000000000000
000000000000
000000000000
000000000000
000000000000
000000000000
000000000000
00000000E000
00000000F800
00000000FC00
000000007F00
000000003F80
000000001FC0
000000000FF0
0000000007F8
0000000003FC
7FFFFFFFFFFE
7FFFFFFFFFFF
7FFFFFFFFFFF
7FFFFFFFFFFE
0000000003FC
0000000007F8
000000000FE0
000000001FC0
000000003F80
000000007E00
00000000FC00
00000000F000
00000000E000
000000000000
000000000000
000000000000
000000000000
000000000000
000000000000
000000000000
000000000000
000000000000
000000000000
000000000000
000000000000
000000000000
ENDCHAR

STARTCHAR kor_A1E7
ENCODING 41447
SWIDTH 1024 0
DWIDTH 48 0
BBX 48 48 0 -6
BITMAP
000000000000
000000000000
000000000000
000000000000
000000000000
000000000000
000000000000
000000000000
000000000000
000000000000
000000000000
000000000000
000000000000
000380000000
000780000000
001F80000000
003F00000000
00FE00000000
01FC00000000
03F800000000
0FF000000000
1FE000000000
3FFFFFFFFFFF
7FFFFFFFFFFF
7FFFFFFFFFFF
3FFFFFFFFFFF
1FE000000000
0FF000000000
03F800000000
01FC00000000
00FE00000000
003F00000000
001F80000000
000780000000
000380000000
000000000000
000000000000
000000000000
000000000000
000000000000
000000000000
000000000000
000000000000
000000000000
000000000000
000000000000
000000000000
000000000000
ENDCHAR

STARTCHAR kor_A1E8
ENCODING 41448
SWIDTH 1024 0
DWIDTH 48 0
BBX 48 48 0 -6
BITMAP
000000C00000
000001E00000
000003F00000
000007F80000
000007F80000
00000FFC0000
00001FFE0000
00003FFF0000
00003FFF0000
00007FFF8000
0000FDEFC000
0000F9E7C000
0001F1E3E000
0003E1E1F000
0003C1E0F000
000381E07000
000001E00000
000001E00000
000001E00000
000001E00000
000001E00000
000001E00000
000001E00000
000001E00000
000001E00000
000001E00000
000001E00000
000001E00000
000001E00000
000001E00000
000001E00000
000001E00000
000001E00000
000001E00000
000001E00000
000001E00000
000001E00000
000001E00000
000001E00000
000001E00000
000001E00000
000001E00000
000001E00000
000001E00000
000001E00000
000001E00000
000001E00000
000000000000
ENDCHAR

STARTCHAR kor_A1E9
ENCODING 41449
SWIDTH 1024 0
DWIDTH 48 0
BBX 48 48 0 -6
BITMAP
000001E00000
000001E00000
000001E00000
000001E00000
000001E00000
000001E00000
000001E00000
000001E00000
000001E00000
000001E00000
000001E00000
000001E00000
000001E00000
000001E00000
000001E00000
000001E00000
000001E00000
000001E00000
000001E00000
000001E00000
000001E00000
000001E00000
000001E00000
000001E00000
000001E00000
000001E00000
000001E00000
000001E00000
000001E00000
000001E00000
000001E00000
000381E07000
0003C1E0F000
0003E1E1F000
0001F1E3E000
0000F9E7C000
0000FDEFC000
00007FFF8000
00003FFF0000
00003FFF0000
00001FFE0000
00000FFC0000
000007F80000
000007F80000
000003F00000
000001E00000
000000C00000
000000000000
ENDCHAR

STARTCHAR kor_A1EA
ENCODING 41450
SWIDTH 1024 0
DWIDTH 48 0
BBX 48 48 0 -6
BITMAP
000000000000
000000000000
000000000000
000000000000
000000000000
000000000000
000000000000
000000000000
000000000000
000000000000
000000000000
000000000000
000000000000
00038000E000
00078000F000
001F8000FC00
003F00007E00
00FE00003F80
01FC00001FC0
03F800000FE0
0FF0000007F8
1FE0000003FC
3FFFFFFFFFFE
7FFFFFFFFFFF
7FFFFFFFFFFF
3FFFFFFFFFFE
1FE0000003FC
0FF0000007F8
03F800000FE0
01FC00001FC0
00FE00003F80
003F00007E00
001F8000FC00
00078001F000
00038001E000
000000000000
000000000000
000000000000
000000000000
000000000000
000000000000
000000000000
000000000000
000000000000
000000000000
000000000000
000000000000
000000000000
ENDCHAR

STARTCHAR kor_A1EB
ENCODING 41451
SWIDTH 1024 0
DWIDTH 48 0
BBX 48 48 0 -6
BITMAP
000000000000
000000000000
000000000000
000000000000
000000000000
000000000000
000000000000
000000000000
000000000000
000000000000
000000000000
000000000000
000000000000
000000000000
000000000000
7FFFFFFFFFFF
7FFFFFFFFFFF
7FFFFFFFFFFF
7FFFFFFFFFFF
000000000000
000000000000
000000000000
000000000000
000000000000
000000000000
000000000000
000000000000
000000000000
000000000000
7FFFFFFFFFFF
7FFFFFFFFFFF
7FFFFFFFFFFF
7FFFFFFFFFFF
000000000000
000000000000
000000000000
000000000000
000000000000
000000000000
000000000000
000000000000
000000000000
000000000000
000000000000
000000000000
000000000000
000000000000
000000000000
ENDCHAR

STARTCHAR kor_A1EC
ENCODING 41452
SWIDTH 1024 0
DWIDTH 48 0
BBX 48 48 0 -6
BITMAP
000000000000
000000000000
000000000000
000000000000
00000003C03C
00000007C07C
0000001FC1FC
0000003FC3FC
000000FF0FF0
000001FE1FE0
000007F87F80
00000FF0FF00
00003FC3FC00
00007F87F800
0001FE1FE000
0003FC3FC000
000FF0FF0000
001FE1FE0000
007F87F80000
00FF0FF00000
01FC3FC00000
07F87F800000
0FE0FE000000
1FC1FC000000
1FC1FC000000
0FE0FE000000
07F87F800000
01FC3FC00000
00FF0FF00000
007F87F80000
001FE1FE0000
000FF0FF0000
0003FC3FC000
0001FE1FE000
00007F87F800
00003FC3FC00
00000FF0FF00
000007F87F80
000001FE1FE0
000000FF0FF0
0000003FC3FC
0000001FC1FC
00000007C07C
00000003C03C
000000000000
000000000000
000000000000
000000000000
ENDCHAR

STARTCHAR kor_A1ED
ENCODING 41453
SWIDTH 1024 0
DWIDTH 48 0
BBX 48 48 0 -6
BITMAP
000000000000
000000000000
000000000000
1E01E0000000
1F01F0000000
1FC1FC000000
1FE1FE000000
07F87F800000
03FC3FC00000
00FF0FF00000
007F87F80000
001FE1FE0000
000FF0FF0000
0003FC3FC000
0001FE1FE000
00007F87F800
00003FC3FC00
00000FF0FF00
000007F87F80
000001FE1FE0
000000FF0FF0
0000003F83F8
0000001FC1FC
0000001FC1FC
0000003F83F8
000000FF0FF0
000001FE1FE0
000007F87F80
00000FF0FF00
00003FC3FC00
00007F87F800
0001FE1FE000
0003FC3FC000
000FF0FF0000
001FE1FE0000
007F87F80000
00FF0FF00000
03FC3FC00000
07F87F800000
1FE1FE000000
1FC1FC000000
1F01F0000000
1E01E0000000
000000000000
000000000000
000000000000
000000000000
000000000000
ENDCHAR

STARTCHAR kor_A1EE
ENCODING 41454
SWIDTH 1024 0
DWIDTH 48 0
BBX 48 48 0 -6
BITMAP
0000003C0000
0000003C0000
0000007C0000
000000780000
000000780000
000000F80000
000000F00000
000000F00000
000001F00000
000001E00000
000001E00000
000003E00000
000003C00000
000003C00000
000007C00000
000007800000
000007800000
00000F800000
00000F000000
00000F000000
00001F000000
00001E000000
00001E000000
00003E000000
00003C000000
00003C000000
01C07C000000
03E078000000
07E078000000
0FF0F8000000
1FF0F0000000
3FF8F0000000
3FF9F0000000
3DFDE0000000
38FDE0000000
00FFE0000000
007FC0000000
007FC0000000
003FC0000000
003F80000000
001F80000000
001F80000000
000F00000000
000F00000000
000F00000000
000000000000
000000000000
000000000000
ENDCHAR

STARTCHAR kor_A1EF
ENCODING 41455
SWIDTH 1024 0
DWIDTH 48 0
BBX 48 48 0 -6
BITMAP
000000000000
000000000000
000000000000
000000000000
000000000000
000000000000
000000000000
000000000000
000000000000
000000000000
000000000000
000000000000
003FC001FE00
00FFC007FF80
01FFC00FFFC0
03FFC01FFFE0
07F0003F87F0
0FC0007E01F8
0F80007C00F8
1F0000F8007C
1F0001F8007C
1E0001F0003C
1E0003E0003C
1E0003E0003C
1E0007C0003C
1F000FC0007C
1F000F80007C
0F801F0000F8
0FC03F0001F8
07F0FE0007F0
03FFFC01FFE0
01FFF801FFC0
00FFF001FF80
003FC001FE00
000000000000
000000000000
000000000000
000000000000
000000000000
000000000000
000000000000
000000000000
000000000000
000000000000
000000000000
000000000000
000000000000
000000000000
ENDCHAR

STARTCHAR kor_A1F0
ENCODING 41456
SWIDTH 1024 0
DWIDTH 48 0
BBX 48 48 0 -6
BITMAP
000000000000
000000000000
000000000000
000000000000
000000000000
000000000000
000000000000
000000000000
000000000000
000000000000
000000000000
000000000000
003FE0007FF8
00FFF803FFF8
01FFFE0FFFF8
03FFFF1FFFF8
07F07FBFE000
0FC01FFF0000
0F800FFC0000
1F0007F80000
1F0003F80000
1E0003F00000
1E0001F00000
1E0001F00000
1E0003F00000
1F0003F80000
1F0007F80000
0F800FFC0000
0FC01FFF0000
07F07FBFE000
03FFFF1FFFF8
01FFFE0FFFF8
00FFF803FFF8
003FE0007FF8
000000000000
000000000000
000000000000
000000000000
000000000000
000000000000
000000000000
000000000000
000000000000
000000000000
000000000000
000000000000
000000000000
000000000000
ENDCHAR

STARTCHAR kor_A1F1
ENCODING 41457
SWIDTH 1024 0
DWIDTH 48 0
BBX 48 48 0 -6
BITMAP
000000000000
000000000000
000000000000
000000000000
000000000000
000000000000
000000000000
000000000000
001C00003800
007F0000FE00
007F0000FE00
00FF8001FF00
00FF8001FF00
00FF8001FF00
007F0000FE00
007F0000FE00
001C00003800
000000000000
000000000000
000000000000
000000000000
000000000000
000000000000
000000000000
000000000000
000000000000
000000000000
000000000000
000000000000
000000000000
000001C00000
000007F00000
000007F00000
00000FF80000
00000FF80000
00000FF80000
000007F00000
000007F00000
000001C00000
000000000000
000000000000
000000000000
000000000000
000000000000
000000000000
000000000000
000000000000
000000000000
ENDCHAR

STARTCHAR kor_A1F2
ENCODING 41458
SWIDTH 1024 0
DWIDTH 48 0
BBX 48 48 0 -6
BITMAP
000000F00000
000003FC0000
000007FE0000
00000FFE0000
00000FFE0000
00001FFE0000
00001EFE0000
00003E7C0000
00003C000000
00003C000000
00003C000000
00003E000000
00003E000000
00003E000000
00003F000000
00001F000000
00001F000000
00001F800000
00001F800000
00000F800000
00000FC00000
00000FC00000
000007C00000
000007C00000
000007E00000
000003E00000
000003E00000
000003F00000
000001F00000
000001F00000
000001F00000
000000F80000
000000F80000
000000F80000
000000F80000
000000780000
000000780000
000000780000
000000780000
00003E780000
00007FF80000
00007FF00000
00007FF00000
00007FE00000
00007FE00000
00003FC00000
00001F000000
000000000000
ENDCHAR

STARTCHAR kor_A1F3
ENCODING 41459
SWIDTH 1024 0
DWIDTH 48 0
BBX 48 48 0 -6
BITMAP
00007801E000
0001FE07F800
0003FF0FFC00
0007FF1FFC00
0007FF1FFC00
000FFF3FFC00
000F7F3DFC00
001F3E7CF800
001E00780000
001E00780000
001E00780000
001F007C0000
001F007C0000
001F007C0000
001F807E0000
000F803E0000
000F803E0000
000FC03F0000
000FC03F0000
0007C01F0000
0007E01F8000
0007E01F8000
0003E00F8000
0003E00F8000
0003F00FC000
0001F007C000
0001F007C000
0001F807E000
0000F803E000
0000F803E000
0000F803E000
00007C01F000
00007C01F000
00007C01F000
00007C01F000
00003C00F000
00003C00F000
00003C00F000
00003C00F000
001F3C7CF000
003FFCFFF000
003FF8FFE000
003FF8FFE000
003FF0FFC000
003FF0FFC000
001FE07F8000
000F803E0000
000000000000
ENDCHAR

STARTCHAR kor_A1F4
ENCODING 41460
SWIDTH 1024 0
DWIDTH 48 0
BBX 48 48 0 -6
BITMAP
000000000000
000000000000
000000000000
000000000000
000000000000
000000000000
000000000000
000000000000
0001FFFFFFF8
000FFFFFFFF8
003FFFFFFFF8
007FFFFFFFF8
00FF80000000
01FC00000000
03F000000000
03E000000000
07C000000000
07C000000000
0F8000000000
0F8000000000
0F0000000000
0FFFFFFFFFF8
0FFFFFFFFFF8
0FFFFFFFFFF8
0FFFFFFFFFF8
0F0000000000
0F8000000000
0F8000000000
07C000000000
07C000000000
03E000000000
03F000000000
01FC00000000
00FF80000000
007FFFFFFFF8
003FFFFFFFF8
000FFFFFFFF8
0001FFFFFFF8
000000000000
000000000000
000000000000
000000000000
000000000000
000000000000
000000000000
000000000000
000000000000
000000000000
ENDCHAR

STARTCHAR kor_A1F5
ENCODING 41461
SWIDTH 1024 0
DWIDTH 48 0
BBX 48 48 0 -6
BITMAP
000000000000
000000000000
000000000000
000000000000
000000000000
000000000000
000000000000
000000000000
0FFFFFFFC000
0FFFFFFFF800
0FFFFFFFFE00
0FFFFFFFFF00
00000000FF80
000000001FC0
0000000007E0
0000000003E0
0000000001F0
0000000001F0
0000000000F8
0000000000F8
000000000078
0FFFFFFFFFF8
0FFFFFFFFFF8
0FFFFFFFFFF8
0FFFFFFFFFF8
000000000078
0000000000F8
0000000000F8
0000000001F0
0000000001F0
0000000003E0
0000000007E0
000000001FC0
00000000FF80
0FFFFFFFFF00
0FFFFFFFFE00
0FFFFFFFF800
0FFFFFFFC000
000000000000
000000000000
000000000000
000000000000
000000000000
000000000000
000000000000
000000000000
000000000000
000000000000
ENDCHAR

STARTCHAR kor_A1F6
ENCODING 41462
SWIDTH 1024 0
DWIDTH 48 0
BBX 48 48 0 -6
BITMAP
000000000000
000000000000
000000000000
000000000000
000000000000
000000000000
000000000000
0001FFFFFFC0
000FFFFFFFC0
003FFFFFFFC0
007FFFFFFFC0
00FF80000000
01FC00000000
01F000000000
03E000000000
03E000000000
03C000000000
03C000000000
03C000000000
03C000000000
03C000000000
03E000000000
03E000000000
01F000000000
01FC00000000
00FF80000000
007FFFFFFFC0
003FFFFFFFC0
000FFFFFFFC0
0001FFFFFFC0
000000000000
000000000000
000000000000
000000000000
000000000000
03FFFFFFFFC0
03FFFFFFFFC0
03FFFFFFFFC0
03FFFFFFFFC0
000000000000
000000000000
000000000000
000000000000
000000000000
000000000000
000000000000
000000000000
000000000000
ENDCHAR

STARTCHAR kor_A1F7
ENCODING 41463
SWIDTH 1024 0
DWIDTH 48 0
BBX 48 48 0 -6
BITMAP
000000000000
000000000000
000000000000
000000000000
000000000000
000000000000
000000000000
01FFFFFF8000
01FFFFFFF000
01FFFFFFFC00
01FFFFFFFE00
00000003FF00
000000007F80
000000001F80
000000000FC0
0000000007C0
0000000007C0
0000000003C0
0000000003C0
0000000003C0
0000000003C0
0000000007C0
0000000007C0
000000000FC0
000000001F80
000000007F80
00000003FF00
01FFFFFFFE00
01FFFFFFFC00
01FFFFFFF000
01FFFFFF8000
000000000000
000000000000
000000000000
000000000000
01FFFFFFFFC0
01FFFFFFFFC0
01FFFFFFFFC0
01FFFFFFFFC0
000000000000
000000000000
000000000000
000000000000
000000000000
000000000000
000000000000
000000000000
000000000000
ENDCHAR

STARTCHAR kor_A1F8
ENCODING 41464
SWIDTH 1024 0
DWIDTH 48 0
BBX 48 48 0 -6
BITMAP
000000000000
000000000000
000000000000
000000000000
000000000000
000000000000
000000000000
000000000000
0000FFFFFFF0
0007FFFFFFF0
001FFFFFFFF0
003FFFFFFFF0
007FC0000000
00FE00000000
01F800000000
01F000000000
03E000000000
03E000000000
07C000000000
07C000000000
078000000000
078000000000
078000000000
078000000000
078000000000
078000000000
078000000000
07C000000000
07C000000000
03E000000000
03E000000000
01F000000000
01F800000000
00FE00000000
007FC0000000
003FFFFFFFF0
001FFFFFFFF0
0007FFFFFFF0
0000FFFFFFF0
000000000000
000000000000
000000000000
000000000000
000000000000
000000000000
000000000000
000000000000
000000000000
ENDCHAR

STARTCHAR kor_A1F9
ENCODING 41465
SWIDTH 1024 0
DWIDTH 48 0
BBX 48 48 0 -6
BITMAP
000000000000
000000000000
000000000000
000000000000
000000000000
000000000000
000000000000
000000000000
07FFFFFF8000
07FFFFFFF000
07FFFFFFFC00
07FFFFFFFE00
00000001FF00
000000003F80
000000000FC0
0000000007C0
0000000003E0
0000000003E0
0000000001F0
0000000001F0
0000000000F0
0000000000F0
0000000000F0
0000000000F0
0000000000F0
0000000000F0
0000000000F0
0000000001F0
0000000001F0
0000000003E0
0000000003E0
0000000007C0
000000000FC0
000000003F80
00000001FF00
07FFFFFFFE00
07FFFFFFFC00
07FFFFFFF000
07FFFFFF8000
000000000000
000000000000
000000000000
000000000000
000000000000
000000000000
000000000000
000000000000
000000000000
ENDCHAR

STARTCHAR kor_A1FA
ENCODING 41466
SWIDTH 1024 0
DWIDTH 48 0
BBX 48 48 0 -6
BITMAP
000000000000
000000000000
000000000000
000000000000
003C00000F00
003C00000F00
003C00000F00
003C00000F00
003C00000F00
003C00000F00
003C00000F00
003C00000F00
003C00000F00
003C00000F00
003C00000F00
003C00000F00
003C00000F00
003C00000F00
003C00000F00
003C00000F00
003C00000F00
003C00000F00
003C00000F00
003C00000F00
003C00000F00
003C00000F00
003C00000F00
003C00000F00
003C00000F00
003C00000F00
003C00000F00
003E00001F00
003E00001F00
001E00001E00
001F00003E00
001F00003E00
000F80007C00
000FE001FC00
0007F807F800
0003FFFFF000
0001FFFFE000
00007FFF8000
00001FFE0000
000000000000
000000000000
000000000000
000000000000
000000000000
ENDCHAR

STARTCHAR kor_A1FB
ENCODING 41467
SWIDTH 1024 0
DWIDTH 48 0
BBX 48 48 0 -6
BITMAP
000000000000
000000000000
000000000000
000000000000
00000FFC0000
00003FFF0000
0000FFFFC000
0001FFFFE000
0003FC0FF000
0007F003F800
000FC000FC00
000F80007C00
001F00003E00
001F00003E00
001E00001E00
003E00001F00
003E00001F00
003C00000F00
003C00000F00
003C00000F00
003C00000F00
003C00000F00
003C00000F00
003C00000F00
003C00000F00
003C00000F00
003C00000F00
003C00000F00
003C00000F00
003C00000F00
003C00000F00
003C00000F00
003C00000F00
003C00000F00
003C00000F00
003C00000F00
003C00000F00
003C00000F00
003C00000F00
003C00000F00
003C00000F00
003C00000F00
003C00000F00
000000000000
000000000000
000000000000
000000000000
000000000000
ENDCHAR

STARTCHAR kor_A1FC
ENCODING 41468
SWIDTH 1024 0
DWIDTH 48 0
BBX 48 48 0 -6
BITMAP
000000000000
000000000000
000000000000
000000000000
000000000000
000000C00000
000001E00000
000001E00000
000003F00000
000003F00000
000007F80000
000007F80000
00000FFC0000
00000FFC0000
00001F3E0000
00001F3E0000
00003E1F0000
00003E1F0000
00007C0F8000
00007C0F8000
0000F807C000
0000F807C000
0001F003E000
0001F003E000
0003E001F000
0003E001F000
0007C000F800
0007C000F800
000F80007C00
000F80007C00
001F00003E00
001F00003E00
003E00001F00
003E00001F00
007C00000F80
007C00000F80
00F8000007C0
00F8000007C0
01F0000003E0
01F0000003E0
01E0000001E0
01E0000001E0
000000000000
000000000000
000000000000
000000000000
000000000000
000000000000
ENDCHAR

STARTCHAR kor_A1FD
ENCODING 41469
SWIDTH 1024 0
DWIDTH 48 0
BBX 48 48 0 -6
BITMAP
000000000000
000000000000
000000000000
000000000000
000000000000
01E0000001E0
01E0000001E0
01F0000003E0
01F0000003E0
00F8000007C0
00F8000007C0
007C00000F80
007C00000F80
003E00001F00
003E00001F00
001F00003E00
001F00003E00
000F80007C00
000F80007C00
0007C000F800
0007C000F800
0003E001F000
0003E001F000
0001F003E000
0001F003E000
0000F807C000
0000F807C000
00007C0F8000
00007C0F8000
00003E1F0000
00003E1F0000
00001F3E0000
00001F3E0000
00000FFC0000
00000FFC0000
000007F80000
000007F80000
000003F00000
000003F00000
000001E00000
000001E00000
000000C00000
000000000000
000000000000
000000000000
000000000000
000000000000
000000000000
ENDCHAR

STARTCHAR kor_A1FE
ENCODING 41470
SWIDTH 1024 0
DWIDTH 48 0
BBX 48 48 0 -6
BITMAP
000000000000
000000000000
000000000000
3FFFFFFFFFFC
3FFFFFFFFFFC
3FFFFFFFFFFC
3FFFFFFFFFFC
00000000003C
00000000003C
00000000003C
00000000003C
00000000003C
00000000003C
00000000003C
00000000003C
00000000003C
00000000003C
00000000003C
00000000003C
00000000003C
00000000003C
00000000003C
00000000003C
000000000000
000000000000
000000000000
000000000000
000000000000
000000000000
000000000000
000000000000
000000000000
000000000000
000000000000
000000000000
000000000000
000000000000
000000000000
000000000000
000000000000
000000000000
000000000000
000000000000
000000000000
000000000000
000000000000
000000000000
000000000000
ENDCHAR

STARTCHAR kor_A2A1
ENCODING 41633
SWIDTH 1024 0
DWIDTH 48 0
BBX 48 48 0 -6
BITMAP
000000000000
000000000000
000000000000
000000000000
000000000000
000000F00000
000000F80000
000000FC0000
0000007E0000
0000003F0000
0000001F8000
0000000FC000
0FFFFFFFE000
0FFFFFFFF000
0FFFFFFFF800
0FFFFFFFFC00
000000007E00
000000003F00
000000001F80
000000000FC0
0000000007E0
0000000003F0
0000000001F8
0000000000F8
0000000001F8
0000000003F0
0000000007E0
000000000FC0
000000001F80
000000003F00
000000007E00
0FFFFFFFFC00
0FFFFFFFF800
0FFFFFFFF000
0FFFFFFFE000
0000000FC000
0000001F8000
0000003F0000
0000007E0000
000000FC0000
000001F80000
000001F00000
000001E00000
000000000000
000000000000
000000000000
000000000000
000000000000
ENDCHAR

STARTCHAR kor_A2A2
ENCODING 41634
SWIDTH 1024 0
DWIDTH 48 0
BBX 48 48 0 -6
BITMAP
000000000000
000000000000
000000000000
000000000000
000000000000
000000000000
000000000000
000000000000
000000000000
0003C001E000
0007C001F000
000FC001F800
001F8000FC00
003F00007E00
007E00003F00
00FC00001F80
01FFFFFFFFC0
03FFFFFFFFE0
07FFFFFFFFF0
0FFFFFFFFFF8
1F80000000FC
3F000000007E
7E000000003F
7C000000001F
7E000000003F
3F000000007E
1F80000000FC
0FFFFFFFFFF8
07FFFFFFFFF0
03FFFFFFFFE0
01FFFFFFFFC0
00FC00001F80
007E00003F00
003F00007E00
001F8000FC00
000FC001F800
0007C001F000
0003C001E000
000000000000
000000000000
000000000000
000000000000
000000000000
000000000000
000000000000
000000000000
000000000000
000000000000
ENDCHAR

STARTCHAR kor_A2A3
ENCODING 41635
SWIDTH 1024 0
DWIDTH 48 0
BBX 48 48 0 -6
BITMAP
000000000000
000000000000
000000000000
00F0000003C0
00F0000003C0
00F8000007C0
0078000007C0
007800000780
007C00000F80
003C00000F00
003C00000F00
003E00001F00
001E00001E00
001F00003E00
000FFFFFFC00
000FFFFFFC00
000FFFFFFC00
0007FFFFF800
0007C000F800
0003C000F000
0003C000F000
0003E001F000
0001E001E000
0001F003E000
0000F003C000
0000F003C000
0000F807C000
000078078000
00007C0F8000
00003C0F0000
00003C0F0000
00003E1F0000
00001E1E0000
00001F3E0000
00000F3C0000
00000F3C0000
00000FFC0000
000007F80000
000007F80000
000003F00000
000003F00000
000003F00000
000001E00000
000001E00000
000000C00000
000000000000
000000000000
000000000000
ENDCHAR

STARTCHAR kor_A2A4
ENCODING 41636
SWIDTH 1024 0
DWIDTH 48 0
BBX 48 48 0 -6
BITMAP
000000000000
000000000000
000000000000
003FFFFFFC00
003FFFFFFC00
003FFFFFFC00
003FFFFFFC00
000000003C00
000000003C00
000000003C00
000000003C00
000000003C00
000000003C00
000000003C00
000000003C00
000000003C00
000000003C00
000000003C00
000000003C00
000000003C00
003FFFFFFC00
003FFFFFFC00
003FFFFFFC00
003FFFFFFC00
000000003C00
000000003C00
000000003C00
000000003C00
000000003C00
000000003C00
000000003C00
000000003C00
000000003C00
000000003C00
000000003C00
000000003C00
000000003C00
000000003C00
003FFFFFFC00
003FFFFFFC00
003FFFFFFC00
003FFFFFFC00
000000000000
000000000000
000000000000
000000000000
000000000000
000000000000
ENDCHAR

STARTCHAR kor_A2A5
ENCODING 41637
SWIDTH 1024 0
DWIDTH 48 0
BBX 48 48 0 -6
BITMAP
000000000000
000000F00000
000001F80000
000001F80000
000003F80000
000003F80000
000007F00000
000007E00000
00000FC00000
00000F800000
00001F000000
00001E000000
00001C000000
000000000000
000000000000
000000000000
000000000000
000000000000
000000000000
000000000000
000000000000
000000000000
000000000000
000000000000
000000000000
000000000000
000000000000
000000000000
000000000000
000000000000
000000000000
000000000000
000000000000
000000000000
000000000000
000000000000
000000000000
000000000000
000000000000
000000000000
000000000000
000000000000
000000000000
000000000000
000000000000
000000000000
000000000000
000000000000
ENDCHAR

STARTCHAR kor_A2A6
ENCODING 41638
SWIDTH 1024 0
DWIDTH 48 0
BBX 48 48 0 -6
BITMAP
000000000600
00007F800E00
0001FFE01E00
0003FFF87C00
0007FFFFFC00
000FFFFFF800
000F83FFF000
001E00FFE000
001C001F8000
001800000000
000000000000
000000000000
000000000000
000000000000
000000000000
000000000000
000000000000
000000000000
000000000000
000000000000
000000000000
000000000000
000000000000
000000000000
000000000000
000000000000
000000000000
000000000000
000000000000
000000000000
000000000000
000000000000
000000000000
000000000000
000000000000
000000000000
000000000000
000000000000
000000000000
000000000000
000000000000
000000000000
000000000000
000000000000
000000000000
000000000000
000000000000
000000000000
ENDCHAR

STARTCHAR kor_A2A7
ENCODING 41639
SWIDTH 1024 0
DWIDTH 48 0
BBX 48 48 0 -6
BITMAP
000E00007000
000F8001F000
0007C003E000
0003F00FC000
0001FC3F8000
0000FFFF0000
00007FFE0000
00003FFC0000
00001FF80000
00000FF00000
000007E00000
000000000000
000000000000
000000000000
000000000000
000000000000
000000000000
000000000000
000000000000
000000000000
000000000000
000000000000
000000000000
000000000000
000000000000
000000000000
000000000000
000000000000
000000000000
000000000000
000000000000
000000000000
000000000000
000000000000
000000000000
000000000000
000000000000
000000000000
000000000000
000000000000
000000000000
000000000000
000000000000
000000000000
000000000000
000000000000
000000000000
000000000000
ENDCHAR

STARTCHAR kor_A2A8
ENCODING 41640
SWIDTH 1024 0
DWIDTH 48 0
BBX 48 48 0 -6
BITMAP
000000000000
000E00001C00
000F00003C00
000780007800
0003E001F000
0001FC0FE000
0000FFFFC000
00007FFF8000
00003FFF0000
00000FFC0000
000003F00000
000000000000
000000000000
000000000000
000000000000
000000000000
000000000000
000000000000
000000000000
000000000000
000000000000
000000000000
000000000000
000000000000
000000000000
000000000000
000000000000
000000000000
000000000000
000000000000
000000000000
000000000000
000000000000
000000000000
000000000000
000000000000
000000000000
000000000000
000000000000
000000000000
000000000000
000000000000
000000000000
000000000000
000000000000
000000000000
000000000000
000000000000
ENDCHAR

STARTCHAR kor_A2A9
ENCODING 41641
SWIDTH 1024 0
DWIDTH 48 0
BBX 48 48 0 -6
BITMAP
000000000000
00000783C000
00000FC7E000
00000FC7E000
00001FCFE000
00001FCFE000
00003F9FC000
00003F1F8000
00007E3F0000
00007C3E0000
0000F87C0000
0000F0780000
0000E0700000
0000C0600000
000000000000
000000000000
000000000000
000000000000
000000000000
000000000000
000000000000
000000000000
000000000000
000000000000
000000000000
000000000000
000000000000
000000000000
000000000000
000000000000
000000000000
000000000000
000000000000
000000000000
000000000000
000000000000
000000000000
000000000000
000000000000
000000000000
000000000000
000000000000
000000000000
000000000000
000000000000
000000000000
000000000000
000000000000
ENDCHAR

STARTCHAR kor_A2AA
ENCODING 41642
SWIDTH 1024 0
DWIDTH 48 0
BBX 48 48 0 -6
BITMAP
000000000000
000001F00000
000007FC0000
00000FFE0000
00000FBE0000
00001E0F0000
00001E0F0000
00001E0F0000
00001E0F0000
00000FBE0000
00000FFE0000
000007FC0000
000001F00000
000000000000
000000000000
000000000000
000000000000
000000000000
000000000000
000000000000
000000000000
000000000000
000000000000
000000000000
000000000000
000000000000
000000000000
000000000000
000000000000
000000000000
000000000000
000000000000
000000000000
000000000000
000000000000
000000000000
000000000000
000000000000
000000000000
000000000000
000000000000
000000000000
000000000000
000000000000
000000000000
000000000000
000000000000
000000000000
ENDCHAR

STARTCHAR kor_A2AB
ENCODING 41643
SWIDTH 1024 0
DWIDTH 48 0
BBX 48 48 0 -6
BITMAP
000000000000
000001C00000
000007F00000
000007F00000
00000FF80000
00000FF80000
00000FF80000
000007F00000
000007F00000
000001C00000
000000000000
000000000000
000000000000
000000000000
000000000000
000000000000
000000000000
000000000000
000000000000
000000000000
000000000000
000000000000
000000000000
000000000000
000000000000
000000000000
000000000000
000000000000
000000000000
000000000000
000000000000
000000000000
000000000000
000000000000
000000000000
000000000000
000000000000
000000000000
000000000000
000000000000
000000000000
000000000000
000000000000
000000000000
000000000000
000000000000
000000000000
000000000000
ENDCHAR

STARTCHAR kor_A2AC
ENCODING 41644
SWIDTH 1024 0
DWIDTH 48 0
BBX 48 48 0 -6
BITMAP
000000000000
000000000000
000000000000
000000000000
000000000000
000000000000
000000000000
000000000000
000000000000
000000000000
000000000000
000000000000
000000000000
000000000000
000000000000
000000000000
000000000000
000000000000
000000000000
000000000000
000000000000
000000000000
000000000000
000000000000
000000000000
000000000000
000000000000
000000000000
000000000000
000000000000
000000000000
000000000000
000003C00000
000003C00000
000007C00000
000007800000
00000F800000
00000FE00000
00001FF80000
00001FFC0000
000000FC0000
0000007C0000
000000FC0000
000003FC0000
00003FF80000
00003FF00000
00003FC00000
000000000000
ENDCHAR

STARTCHAR kor_A2AD
ENCODING 41645
SWIDTH 1024 0
DWIDTH 48 0
BBX 48 48 0 -6
BITMAP
000000000000
000000000000
000000000000
000000000000
000000000000
000000000000
000000000000
000000000000
000000000000
000000000000
000000000000
000000000000
000000000000
000000000000
000000000000
000000000000
000000000000
000000000000
000000000000
000000000000
000000000000
000000000000
000000000000
000000000000
000000000000
000000000000
000000000000
000000000000
000000000000
000000000000
000000000000
000000000000
000000000000
000000000000
000000700000
000000F00000
000001E00000
000003E00000
000003C00000
000007C00000
000007830000
000007870000
000007CF0000
000007FE0000
000007FE0000
000003FC0000
000001F00000
000000000000
ENDCHAR

STARTCHAR kor_A2AE
ENCODING 41646
SWIDTH 1024 0
DWIDTH 48 0
BBX 48 48 0 -6
BITMAP
000000000000
000001E00000
000003F00000
000007F80000
000007F80000
000007F80000
000007F80000
000003F00000
000001E00000
000000000000
000000000000
000000000000
000001E00000
000001E00000
000001E00000
000001E00000
000001E00000
000001E00000
000001E00000
000001E00000
000001E00000
000001E00000
000001E00000
000001E00000
000001E00000
000001E00000
000003F00000
000003F00000
000003F00000
000003F00000
000003F00000
000003F00000
000003F00000
000003F00000
000003F00000
000003F00000
000003F00000
000003F00000
000003F00000
000003F00000
000003F00000
000001E00000
000000000000
000000000000
000000000000
000000000000
000000000000
000000000000
ENDCHAR

STARTCHAR kor_A2AF
ENCODING 41647
SWIDTH 1024 0
DWIDTH 48 0
BBX 48 48 0 -6
BITMAP
000000380000
000000FE0000
000000FE0000
000001FF0000
000001FF0000
000001FF0000
000000FE0000
000000FE0000
000000380000
000000000000
000000000000
000000000000
000000780000
000000780000
000000780000
000000780000
000000780000
000000780000
000000F80000
000003F80000
00000FF80000
00001FF80000
00003FF80000
00003F800000
00007E000000
00007C000000
0000F8000000
0000F8000000
0000F0000000
0000F0000000
0000F0000000
0000F0000000
0000F01F0000
0000F83F8000
0000783F8000
00007C3F8000
00003F7F8000
00001FFF0000
00000FFE0000
000003F80000
000000000000
000000000000
000000000000
000000000000
000000000000
000000000000
000000000000
000000000000
ENDCHAR

STARTCHAR kor_A2B0
ENCODING 41648
SWIDTH 1024 0
DWIDTH 48 0
BBX 48 48 0 -6
BITMAP
000000000000
000000000000
000000000000
000000000000
000000000000
000000000000
000000000000
000000000000
000000000000
000000000000
000000000000
000000000000
00001FFC0000
00001FFC0000
00001FFC0000
00000FF80000
00000FF80000
000007F00000
000007F00000
000003E00000
000003E00000
000001C00000
000001C00000
000000000000
000000000000
000000000000
000000000000
000001C00000
000001C00000
000003E00000
000003E00000
000007F00000
000007F00000
00000FF80000
00000FF80000
00001FFC0000
00001FFC0000
00001FFC0000
000000000000
000000000000
000000000000
000000000000
000000000000
000000000000
000000000000
000000000000
000000000000
000000000000
ENDCHAR

STARTCHAR kor_A2B1
ENCODING 41649
SWIDTH 1024 0
DWIDTH 48 0
BBX 48 48 0 -6
BITMAP
00000000FC00
00000001FF00
00000003FF80
00000007FF80
00000007BF80
0000000FBF80
0000000F3F80
0000001F1F00
0000001F0000
0000001E0000
0000003E0000
0000003E0000
0000003C0000
0000003C0000
000003FC0000
00000FFE0000
00001FFF0000
00003FFF8000
00007FFFC000
00007CFFC000
0000F8FBE000
0000F9FBE000
0000F1F9E000
0000F1F1E000
0000F9F3E000
0000F9F3E000
00007FF7C000
00007FFFC000
00003FFF8000
00001FFF0000
00000FFE0000
000003F80000
000007E00000
000007E00000
000007C00000
000007C00000
00000FC00000
00000FC00000
00000F800000
001E0F800000
003F1F800000
003F1F000000
003F3F000000
003F7E000000
001FFC000000
000FF8000000
0007E0000000
000000000000
ENDCHAR

STARTCHAR kor_A2B2
ENCODING 41650
SWIDTH 1024 0
DWIDTH 48 0
BBX 48 48 0 -6
BITMAP
000000000000
1FFFFFFFFFFC
1FFFFFFFFFFC
1FFFFFFFFFFC
0FF8000001FC
07FC000001FC
03FE000001FC
01FF000000FC
00FF800000FC
007FC00000FC
003FE00000FC
001FF000007C
000FF800007C
0007FC00007C
0003FE00007C
0001FF00003C
0000FF80003C
00007FC0003C
00003FE0003C
00001FF0003C
00000FF80000
000007FC0000
000003FC0000
000001F80000
000001F00000
000003E00000
000007C00000
00000F800000
00001F000000
00003E000000
00007C000000
0000F800003C
0001F000003C
0003E000003C
0007C000003C
000F8000003C
001F0000003C
003E0000003C
007C0000003C
00F80000003C
01FFFFFFFFFC
03FFFFFFFFFC
07FFFFFFFFFC
0FFFFFFFFFFC
1FFFFFFFFFFC
1FFFFFFFFFFC
000000000000
000000000000
ENDCHAR

STARTCHAR kor_A2B3
ENCODING 41651
SWIDTH 1024 0
DWIDTH 48 0
BBX 48 48 0 -6
BITMAP
000000000000
000000000000
000000000000
01FFFFFFFFE0
01FFFFFFFFE0
01FFFFFFFFE0
001FE001FE00
000FC000FC00
000FC000FC00
000FC000FC00
000FC000FC00
000FC000FC00
000FC000FC00
000FC000FC00
000FC000FC00
000FC000FC00
000FC000FC00
000FC000FC00
000FC000FC00
000FC000FC00
000FC000FC00
000FC000FC00
000FC000FC00
000FC000FC00
000FC000FC00
000FC000FC00
000FC000FC00
000FC000FC00
000FC000FC00
000FC000FC00
000FC000FC00
000FC000FC00
000FC000FC00
000FC000FC00
000FC000FC00
000FC000FC00
000FC000FC00
000FC000FC00
000FC000FC00
000FC000FC00
000FC000FC00
000FC000FC00
001FE001FE00
01FFFE1FFFE0
01FFFE1FFFE0
01FFFE1FFFE0
000000000000
000000000000
ENDCHAR

STARTCHAR kor_A2B4
ENCODING 41652
SWIDTH 1024 0
DWIDTH 48 0
BBX 48 48 0 -6
BITMAP
000000000000
000000000000
000000000000
070000000038
0F800000007C
0FC0000000FC
07E0000001F8
03F0000003F0
01F80FFC07E0
00FC7FFF8FC0
007FFFFFFF80
003FFFFFFF00
001FFC0FFE00
000FE001FC00
001F80007E00
003F00003F00
003E00001F00
007C00000F80
007C00000F80
007800000780
00F8000007C0
00F8000007C0
00F0000003C0
00F0000003C0
00F0000003C0
00F0000003C0
00F8000007C0
00F8000007C0
007800000780
007C00000F80
007C00000F80
003E00001F00
003F00003F00
001F80007E00
001FE001FE00
003FFC0FFF00
007FFFFFFF80
00FDFFFFEFC0
01F87FFF87E0
03F00FFC03F0
07E0000001F8
0FC0000000FC
1F800000007E
1F000000003E
0E000000001C
000000000000
000000000000
000000000000
ENDCHAR

STARTCHAR kor_A2B5
ENCODING 41653
SWIDTH 1024 0
DWIDTH 48 0
BBX 48 48 0 -6
BITMAP
000000000000
0000FFFFFFFE
03E0FFFFFFFE
0FF8FFFFFFFE
1FFC1FF801FE
1F7C07F0007E
3C1E03F0003F
3C1E03F0001F
3C1E03F0000F
3C1E03F0000F
1F7C03F00007
1FFC03F00387
0FF803F00380
03E003F00380
000003F00380
000003F00780
000003F00780
000003F00F80
000003FFFF80
000003FFFF80
000003FFFF80
000003F00F80
000003F00780
000003F00780
000003F00380
000003F00380
000003F00380
000003F00380
000003F00000
000003F00000
000003F00000
000003F00000
000003F00000
000003F00000
000007F80000
00001FFE0000
0000FFFFC000
0000FFFFC000
0000FFFFC000
000000000000
000000000000
000000000000
000000000000
000000000000
000000000000
000000000000
000000000000
000000000000
ENDCHAR

STARTCHAR kor_A2B6
ENCODING 41654
SWIDTH 1024 0
DWIDTH 48 0
BBX 48 48 0 -6
BITMAP
00000000E000
003E0001F000
00FF8003F000
01FFC003F000
03F7E007E000
07E3E00FC000
07C1F01F8000
0FC1F01F8000
0F81F03F0000
0F81F07E0000
1F81F0FC0000
1F01F0FC0000
1F01F1F80000
1F01F3F00000
1F03F7E00000
1F03E7E00000
1F03EFC00000
1F07FF800000
1F87FF000000
0F8FFF000000
0FDFFE000000
07FFFC000000
03FFF8000000
01F9F8000000
0003F3E003E0
0007EFF80FF8
000FDFFC1FFC
000FFF7E3F7E
001FBE3E3E3E
003F7E3F7E3F
007E7C1F7C1F
007EFC1FFC1F
00FCFC1FFC1F
01F8F81FF81F
03F0F81FF81F
03F0F81FF81F
07E0F81FF81F
0FC0F83FF83F
1F80F83FF83F
1F80FC3EFC3E
3F00FC7EFC7E
7E007C7C7C7C
7C007EFC7EFC
7C003FF83FF8
38001FF01FF0
000007C007C0
000000000000
000000000000
ENDCHAR

STARTCHAR kor_A2B7
ENCODING 41655
SWIDTH 1024 0
DWIDTH 48 0
BBX 48 48 0 -6
BITMAP
000000000000
000000000000
0000000001C0
0000000003C0
000000000FC0
000000001FC0
000000007FC0
00000000FFC0
00000003FFC0
00000007FBC0
0000001FE3C0
0000003FC3C0
000000FF03C0
000001FE03C0
000007F803C0
00000FF003C0
00003FC003C0
00007F8003C0
0001FE0003C0
0003FC0003C0
000FF00003C0
001FE00003C0
007F800003C0
00FF000003C0
00FF000003C0
007F800003C0
001FE00003C0
000FF00003C0
0003FC0003C0
0001FE0003C0
00007F8003C0
00003FC003C0
00000FF003C0
000007F803C0
000001FE03C0
000000FF03C0
0000003FC3C0
0000001FE3C0
00000007FBC0
00000003FFC0
00000000FFC0
000000007FC0
000000001FC0
000000000FC0
0000000003C0
0000000001C0
000000000000
000000000000
ENDCHAR

STARTCHAR kor_A2B8
ENCODING 41656
SWIDTH 1024 0
DWIDTH 48 0
BBX 48 48 0 -6
BITMAP
000000000000
000000000000
0000000001C0
0000000003C0
000000000FC0
000000001FC0
000000007FC0
00000000FFC0
00000003FFC0
00000007FFC0
0000001FFFC0
0000003FFFC0
000000FFFFC0
000001FFFFC0
000007FFFFC0
00000FFFFFC0
00003FFFFFC0
00007FFFFFC0
0001FFFFFFC0
0003FFFFFFC0
000FFFFFFFC0
001FFFFFFFC0
007FFFFFFFC0
00FFFFFFFFC0
00FFFFFFFFC0
007FFFFFFFC0
001FFFFFFFC0
000FFFFFFFC0
0003FFFFFFC0
0001FFFFFFC0
00007FFFFFC0
00003FFFFFC0
00000FFFFFC0
000007FFFFC0
000001FFFFC0
000000FFFFC0
0000003FFFC0
0000001FFFC0
00000007FFC0
00000003FFC0
00000000FFC0
000000007FC0
000000001FC0
000000000FC0
0000000003C0
0000000001C0
000000000000
000000000000
ENDCHAR

STARTCHAR kor_A2B9
ENCODING 41657
SWIDTH 1024 0
DWIDTH 48 0
BBX 48 48 0 -6
BITMAP
000000000000
000000000000
01C000000000
01E000000000
01F800000000
01FC00000000
01FF00000000
01FF80000000
01FFE0000000
01EFF0000000
01E3FC000000
01E1FE000000
01E07F800000
01E03FC00000
01E00FF00000
01E007F80000
01E001FE0000
01E000FF0000
01E0003FC000
01E0001FE000
01E00007F800
01E00003FC00
01E00000FF00
01E000007F80
01E000007F80
01E00000FF00
01E00003FC00
01E00007F800
01E0001FE000
01E0003FC000
01E000FF0000
01E001FE0000
01E007F80000
01E00FF00000
01E03FC00000
01E07F800000
01E1FE000000
01E3FC000000
01EFF0000000
01FFE0000000
01FF80000000
01FF00000000
01FC00000000
01F800000000
01E000000000
01C000000000
000000000000
000000000000
ENDCHAR

STARTCHAR kor_A2BA
ENCODING 41658
SWIDTH 1024 0
DWIDTH 48 0
BBX 48 48 0 -6
BITMAP
000000000000
000000000000
01C000000000
01E000000000
01F800000000
01FC00000000
01FF00000000
01FF80000000
01FFE0000000
01FFF0000000
01FFFC000000
01FFFE000000
01FFFF800000
01FFFFC00000
01FFFFF00000
01FFFFF80000
01FFFFFE0000
01FFFFFF0000
01FFFFFFC000
01FFFFFFE000
01FFFFFFF800
01FFFFFFFC00
01FFFFFFFF00
01FFFFFFFF80
01FFFFFFFF80
01FFFFFFFF00
01FFFFFFFC00
01FFFFFFF800
01FFFFFFE000
01FFFFFFC000
01FFFFFF0000
01FFFFFE0000
01FFFFF80000
01FFFFF00000
01FFFFC00000
01FFFF800000
01FFFE000000
01FFFC000000
01FFF0000000
01FFE0000000
01FF80000000
01FF00000000
01FC00000000
01F800000000
01E000000000
01C000000000
000000000000
000000000000
ENDCHAR

STARTCHAR kor_A2BB
ENCODING 41659
SWIDTH 1024 0
DWIDTH 48 0
BBX 48 48 0 -6
BITMAP
000001E00000
000003F00000
000003F00000
000007F80000
00000FFC0000
00001FFE0000
00001F3E0000
00003F3F0000
00007E1F8000
00007C0F8000
0000F807C000
0001F807E000
0003F003F000
0003E001F000
0007E001F800
000FC000FC00
001F80007E00
001F80007E00
003F00003F00
007E00001F80
007E00001F80
00FC00000FC0
00F8000007C0
01F8000007E0
01F0000003E0
03F0000003E0
03E0000001F0
03E0000001F0
03E0000001F0
03C0000000F0
03E0000001F0
03E0073801F0
03E00FFC01F0
01F01FFE03E0
01F83FFF07E0
01FEFFFFDFE0
00FFFFFFFFC0
007FFF3FFF80
003FFF3FFF00
000FCF3CFC00
00001F3E0000
00001E1E0000
00003E1F0000
00003FFF0000
00007FFF8000
00007FFF8000
00007FFF8000
000000000000
ENDCHAR

STARTCHAR kor_A2BC
ENCODING 41660
SWIDTH 1024 0
DWIDTH 48 0
BBX 48 48 0 -6
BITMAP
000001E00000
000003F00000
000003F00000
000007F80000
00000FFC0000
00001FFE0000
00001FFE0000
00003FFF0000
00007FFF8000
00007FFF8000
0000FFFFC000
0001FFFFE000
0003FFFFF000
0003FFFFF000
0007FFFFF800
000FFFFFFC00
001FFFFFFE00
001FFFFFFE00
003FFFFFFF00
007FFFFFFF80
007FFFFFFF80
00FFFFFFFFC0
00FFFFFFFFC0
01FFFFFFFFE0
01FFFFFFFFE0
01FFFFFFFFE0
03FFFFFFFFF0
03FFFFFFFFF0
03FFFFFFFFF0
03FFFFFFFFF0
03FFFFFFFFF0
03FFFFFFFFF0
03FFFFFFFFF0
01FFFFFFFFE0
01FFFFFFFFE0
01FFFFFFFFE0
00FFFFFFFFC0
007FFFFFFF80
003FFFFFFF00
000FDFFEFC00
00001FFE0000
00001FFE0000
00003FFF0000
00003FFF0000
00007FFF8000
00007FFF8000
00007FFF8000
000000000000
ENDCHAR

STARTCHAR kor_A2BD
ENCODING 41661
SWIDTH 1024 0
DWIDTH 48 0
BBX 48 48 0 -6
BITMAP
000000000000
000000000000
0007F003F800
001FFC0FFE00
003FFE1FFF00
007FFF3FFF80
00FF7FFFBFC0
00FC1FFE0FC0
01F80FFC07E0
01F007F803E0
01F003F003E0
03E003F001F0
03E001E001F0
03E001E001F0
03C000C000F0
03C0000000F0
03C0000000F0
03C0000000F0
03E0000001F0
03E0000001F0
03E0000001F0
01F0000003E0
01F0000003E0
01F8000007E0
00F8000007C0
00FC00000FC0
007C00000F80
007E00001F80
003E00001F00
003F00003F00
001F80007E00
001F80007E00
000FC000FC00
0007E001F800
0007E001F800
0003F003F000
0001F807E000
0000FC0FC000
00007E1F8000
00007F3F8000
00003FFF0000
00001FFE0000
00000FFC0000
000007F80000
000003F00000
000001E00000
000000C00000
000000000000
ENDCHAR

STARTCHAR kor_A2BE
ENCODING 41662
SWIDTH 1024 0
DWIDTH 48 0
BBX 48 48 0 -6
BITMAP
000000000000
000000000000
0007F003F800
001FFC0FFE00
003FFE1FFF00
007FFF3FFF80
00FFFFFFFFC0
00FFFFFFFFC0
01FFFFFFFFE0
01FFFFFFFFE0
01FFFFFFFFE0
03FFFFFFFFF0
03FFFFFFFFF0
03FFFFFFFFF0
03FFFFFFFFF0
03FFFFFFFFF0
03FFFFFFFFF0
03FFFFFFFFF0
03FFFFFFFFF0
03FFFFFFFFF0
03FFFFFFFFF0
01FFFFFFFFE0
01FFFFFFFFE0
01FFFFFFFFE0
00FFFFFFFFC0
00FFFFFFFFC0
007FFFFFFF80
007FFFFFFF80
003FFFFFFF00
003FFFFFFF00
001FFFFFFE00
001FFFFFFE00
000FFFFFFC00
0007FFFFF800
0007FFFFF800
0003FFFFF000
0001FFFFE000
0000FFFFC000
00007FFF8000
00007FFF8000
00003FFF0000
00001FFE0000
00000FFC0000
000007F80000
000003F00000
000001E00000
000000C00000
000000000000
ENDCHAR

STARTCHAR kor_A2BF
ENCODING 41663
SWIDTH 1024 0
DWIDTH 48 0
BBX 48 48 0 -6
BITMAP
000000000000
00000FFE0000
00003FFF8000
00007FFFC000
0000FFFFE000
0001FC07F000
0001F001F000
0003E000F800
0003E000F800
0003C0007800
0003C0007800
0003C0007800
0003C0007800
0003E000F800
0003E000F800
0003F001F000
0001F803F000
0001FC07E000
00FFFE0FDFC0
03FFFF1FFFF0
07FFFFFFFFF8
0FFFFFFFFFFC
1FE3FFFFF0FE
1F80FFFFC03E
3F007FFF801F
3E003FFF001F
3E001FFE000F
3C000F3C000F
3C000000000F
3C000000000F
3C0007F8000F
3C000FFC000F
3E001FFE001F
3E003FFF001F
1F007FFF803E
1FC1FFFFE0FE
0FFFFFFFFFFC
07FFF7FFFFF8
03FFEF3DFFF0
00FF8F3C7FC0
00000F3C0000
00001F3E0000
00001E1E0000
00003FFF0000
00003FFF0000
00003FFF0000
00003FFF0000
000000000000
ENDCHAR

STARTCHAR kor_A2C0
ENCODING 41664
SWIDTH 1024 0
DWIDTH 48 0
BBX 48 48 0 -6
BITMAP
000000000000
00000FFE0000
00003FFF8000
00007FFFC000
0000FFFFE000
0001FFFFF000
0001FFFFF000
0003FFFFF800
0003FFFFF800
0003FFFFF800
0003FFFFF800
0003FFFFF800
0003FFFFF800
0003FFFFF800
0003FFFFF800
0003FFFFF000
0001FFFFF000
0001FFFFE000
00FFFFFFDFC0
03FFFFFFFFF0
07FFFFFFFFF8
0FFFFFFFFFFC
1FFFFFFFFFFE
1FFFFFFFFFFE
3FFFFFFFFFFF
3FFFFFFFFFFF
3FFFFFFFFFFF
3FFFFFFFFFFF
3FFFFFFFFFFF
3FFFFFFFFFFF
3FFFFFFFFFFF
3FFFFFFFFFFF
3FFFFFFFFFFF
3FFFFFFFFFFF
1FFFFFFFFFFE
1FFFFFFFFFFE
0FFFFFFFFFFC
07FFF7FFFFF8
03FFEFFDFFF0
00FF8FFC7FC0
00000FFC0000
00001FFE0000
00001FFE0000
00003FFF0000
00003FFF0000
00003FFF0000
00003FFF0000
000000000000
ENDCHAR

STARTCHAR kor_A2C1
ENCODING 41665
SWIDTH 1024 0
DWIDTH 48 0
BBX 48 48 0 -6
BITMAP
000000000000
000000000000
00001FFF0000
0000FFFFE000
0003FFFFF800
000FFFFFFE00
001FF001FF00
003F80003F80
007E07FC0FC0
00FC3FFF87E0
01F8FFFFE3F0
03F1FFFFF1F8
03E3FFFFF8F8
07C7FFFFFC7C
078FFFFFFE7C
0F9FFFFFFF3E
0F1FFFFFFF3E
0F3FFFFFFF9E
1F3FFFFFFF9F
1E3FFFFFFF9F
1E7FFFFFFFCF
1E7FFFFFFFCF
1E7FFFFFFFCF
1E7FFFFFFFCF
1E7FFFFFFFCF
1E7FFFFFFFCF
1E7FFFFFFFCF
1E7FFFFFFFCF
1E3FFFFFFF8F
1F3FFFFFFF9F
0F3FFFFFFF9E
0F1FFFFFFF1E
0F9FFFFFFF3E
078FFFFFFE3C
07C7FFFFFC7C
03E3FFFFF8F8
03F1FFFFF1F8
01F8FFFFE3F0
00FC3FFF87E0
007E07FC0FC0
003F80003F80
001FF001FF00
000FFFFFFE00
0003FFFFF800
0000FFFFE000
00001FFF0000
000000000000
000000000000
ENDCHAR

STARTCHAR kor_A2C2
ENCODING 41666
SWIDTH 1024 0
DWIDTH 48 0
BBX 48 48 0 -6
BITMAP
000001800000
000003C00000
000007E00000
00000FF00000
00001FF80000
00003FFC0000
00007E7E0000
0000FC3F0000
0001F99F8000
0003F3CFC000
0007E7E7E000
000FCFF3F000
001F9FF9F800
003F3FFCFC00
007E7FFE7E00
00FCFFFF3F00
01F9FFFF9F80
03F3FFFFCFC0
07E7FFFFE7E0
0FCFFFFFF3F0
1F9FFFFFF9F8
3F3FFFFFFCFC
7E7FFFFFFE7E
7E7FFFFFFF3F
3F3FFFFFFF3F
1F9FFFFFFE7E
0FCFFFFFFCFC
07E7FFFFF9F8
03F3FFFFF3F0
01F9FFFFE7E0
00FCFFFFCFC0
007E7FFF9F80
003F3FFF3F00
001F9FFE7E00
000FCFFCFC00
0007E7F9F800
0003F3F3F000
0001F9E7E000
0000FCCFC000
00007E1F8000
00003F3F0000
00001FFE0000
00000FFC0000
000007F80000
000003F00000
000001E00000
000000C00000
000000000000
ENDCHAR

STARTCHAR kor_A2C3
ENCODING 41667
SWIDTH 1024 0
DWIDTH 48 0
BBX 48 48 0 -6
BITMAP
000000000000
3FFFFFFFFFFE
3FFFFFFFFFFE
3FFFFFFFFFFE
3FFFFFFFFFFE
3C000000001E
3C000000001E
3C000000001E
3C000000001E
3C000000001E
3C000000001E
3C0FFFFFF81E
3C0FFFFFF81E
3C0FFFFFF81E
3C0FFFFFF81E
3C0FFFFFF81E
3C0FFFFFF81E
3C0FFFFFF81E
3C0FFFFFF81E
3C0FFFFFF81E
3C0FFFFFF81E
3C0FFFFFF81E
3C0FFFFFF81E
3C0FFFFFF81E
3C0FFFFFF81E
3C0FFFFFF81E
3C0FFFFFF81E
3C0FFFFFF81E
3C0FFFFFF81E
3C0FFFFFF81E
3C0FFFFFF81E
3C0FFFFFF81E
3C0FFFFFF81E
3C0FFFFFF81E
3C0FFFFFF81E
3C0FFFFFF81E
3C000000001E
3C000000001E
3C000000001E
3C000000001E
3C000000001E
3C000000001E
3FFFFFFFFFFE
3FFFFFFFFFFE
3FFFFFFFFFFE
3FFFFFFFFFFE
000000000000
000000000000
ENDCHAR

STARTCHAR kor_A2C4
ENCODING 41668
SWIDTH 1024 0
DWIDTH 48 0
BBX 48 48 0 -6
BITMAP
000000000000
000000000000
00003FFF0000
0001FFFFE000
0007FFFFF800
001FFFFFFE00
003FFFC1FF00
007FFFC03F80
00FFFFC00FC0
01FFFFC007E0
03FFFFC003F0
07FFFFC001F8
07FFFFC000F8
0FFFFFC0007C
0FFFFFC0003C
1FFFFFC0003E
1FFFFFC0001E
1FFFFFC0001E
3FFFFFC0001F
3FFFFFC0000F
3FFFFFC0000F
3FFFFFC0000F
3FFFFFC0000F
3FFFFFC0000F
3FFFFFC0000F
3FFFFFC0000F
3FFFFFC0000F
3FFFFFC0000F
3FFFFFC0000F
3FFFFFC0001F
1FFFFFC0001E
1FFFFFC0001E
1FFFFFC0003E
0FFFFFC0003C
0FFFFFC0007C
07FFFFC000F8
07FFFFC001F8
03FFFFC003F0
01FFFFC007E0
00FFFFC00FC0
007FFFC03F80
003FFFC1FF00
001FFFFFFE00
0007FFFFF800
0001FFFFE000
00003FFF0000
000000000000
000000000000
ENDCHAR

STARTCHAR kor_A2C5
ENCODING 41669
SWIDTH 1024 0
DWIDTH 48 0
BBX 48 48 0 -6
BITMAP
000000000000
000000000000
00003FFF0000
0001FFFFE000
0007FFFFF800
001FFFFFFE00
003FE0FFFF00
007F80FFFF80
00FE00FFFFC0
01F800FFFFE0
03F000FFFFF0
07E000FFFFF8
07C000FFFFF8
0F8000FFFFFC
0F0000FFFFFC
1F0000FFFFFE
1E0000FFFFFE
1E0000FFFFFE
3E0000FFFFFF
3C0000FFFFFF
3C0000FFFFFF
3C0000FFFFFF
3C0000FFFFFF
3C0000FFFFFF
3C0000FFFFFF
3C0000FFFFFF
3C0000FFFFFF
3C0000FFFFFF
3C0000FFFFFF
3E0000FFFFFF
1E0000FFFFFE
1E0000FFFFFE
1F0000FFFFFE
0F0000FFFFFC
0F8000FFFFFC
07C000FFFFF8
07E000FFFFF8
03F000FFFFF0
01F800FFFFE0
00FC00FFFFC0
007F00FFFF80
003FE0FFFF00
001FFFFFFE00
0007FFFFF800
0001FFFFE000
00003FFF0000
000000000000
000000000000
ENDCHAR

STARTCHAR kor_A2C6
ENCODING 41670
SWIDTH 1024 0
DWIDTH 48 0
BBX 48 48 0 -6
BITMAP
000000000000
3FFFFFFFFFFC
3FFFFFFFFFFC
3FFFFFFFFFFC
3FFFFFFFFFFC
3C000000003C
3C70380E03BC
3CF87C1F07FC
3CF87C1F07FC
3CF87C1F07FC
3C70380E03BC
3C000000003C
3C000000003C
3C000000003C
3C000000003C
3C000000003C
3F8381C0E0FC
3FC7C3E1F1FC
3FC7C3E1F1FC
3FC7C3E1F1FC
3F8381C0E0FC
3C000000003C
3C000000003C
3C000000003C
3C000000003C
3C000000003C
3C70380E073C
3CF87C1F0FBC
3CF87C1F0FBC
3CF87C1F0FBC
3C70380E073C
3C000000003C
3C000000003C
3C000000003C
3C000000003C
3C000000003C
3F8381C0E0FC
3FC7C3E1F1FC
3FC7C3E1F1FC
3FC7C3E1F1FC
3F8381C0E0FC
3FFFFFFFFFFC
3FFFFFFFFFFC
3FFFFFFFFFFC
3FFFFFFFFFFC
000000000000
000000000000
000000000000
ENDCHAR

STARTCHAR kor_A2C7
ENCODING 41671
SWIDTH 1024 0
DWIDTH 48 0
BBX 48 48 0 -6
BITMAP
000000000000
3FFFFFFFFFFC
3FFFFFFFFFFC
3FFFFFFFFFFC
3FFFFFFFFFFC
3C000000003C
3C000000003C
3C000000003C
3C000000003C
3C000000003C
3C000000003C
3FFFFFFFFFFC
3FFFFFFFFFFC
3FFFFFFFFFFC
3FFFFFFFFFFC
3C000000003C
3C000000003C
3C000000003C
3C000000003C
3C000000003C
3C000000003C
3FFFFFFFFFFC
3FFFFFFFFFFC
3FFFFFFFFFFC
3FFFFFFFFFFC
3C000000003C
3C000000003C
3C000000003C
3C000000003C
3C000000003C
3C000000003C
3FFFFFFFFFFC
3FFFFFFFFFFC
3FFFFFFFFFFC
3FFFFFFFFFFC
3C000000003C
3C000000003C
3C000000003C
3C000000003C
3C000000003C
3C000000003C
3FFFFFFFFFFC
3FFFFFFFFFFC
3FFFFFFFFFFC
3FFFFFFFFFFC
000000000000
000000000000
000000000000
ENDCHAR

STARTCHAR kor_A2C8
ENCODING 41672
SWIDTH 1024 0
DWIDTH 48 0
BBX 48 48 0 -6
BITMAP
000000000000
3FFFFFFFFFFC
3FFFFFFFFFFC
3FFFFFFFFFFC
3FFFFFFFFFFC
3C0F03C0F03C
3C0F03C0F03C
3C0F03C0F03C
3C0F03C0F03C
3C0F03C0F03C
3C0F03C0F03C
3C0F03C0F03C
3C0F03C0F03C
3C0F03C0F03C
3C0F03C0F03C
3C0F03C0F03C
3C0F03C0F03C
3C0F03C0F03C
3C0F03C0F03C
3C0F03C0F03C
3C0F03C0F03C
3C0F03C0F03C
3C0F03C0F03C
3C0F03C0F03C
3C0F03C0F03C
3C0F03C0F03C
3C0F03C0F03C
3C0F03C0F03C
3C0F03C0F03C
3C0F03C0F03C
3C0F03C0F03C
3C0F03C0F03C
3C0F03C0F03C
3C0F03C0F03C
3C0F03C0F03C
3C0F03C0F03C
3C0F03C0F03C
3C0F03C0F03C
3C0F03C0F03C
3C0F03C0F03C
3C0F03C0F03C
3FFFFFFFFFFC
3FFFFFFFFFFC
3FFFFFFFFFFC
3FFFFFFFFFFC
000000000000
000000000000
000000000000
ENDCHAR

STARTCHAR kor_A2C9
ENCODING 41673
SWIDTH 1024 0
DWIDTH 48 0
BBX 48 48 0 -6
BITMAP
000000000000
3FFFFFFFFFFC
3FFFFFFFFFFC
3FFFFFFFFFFC
3FFFFFFFFFFC
3C0003F0007C
3C0007E000FC
3C000FC001FC
3C001F8003FC
3C003F0007FC
3C007E000FFC
3C00FC001FBC
3C01F8003F3C
3C03F0007E3C
3C07E000FC3C
3C0FC001F83C
3C1F8003F03C
3C3F0007E03C
3C7E000FC03C
3CFC001F803C
3DF8003F003C
3FF0007E003C
3FE000FC003C
3FC001F8007C
3F8003F000FC
3F0007E001FC
3E000FC003FC
3C001F8007FC
3C003F000FFC
3C007E001FBC
3C00FC003F3C
3C01F8007E3C
3C03F000FC3C
3C07E001F83C
3C0FC003F03C
3C1F8007E03C
3C3F000FC03C
3C7E001F803C
3CFC003F003C
3DF8007E003C
3FF000FC003C
3FFFFFFFFFFC
3FFFFFFFFFFC
3FFFFFFFFFFC
3FFFFFFFFFFC
000000000000
000000000000
000000000000
ENDCHAR

STARTCHAR kor_A2CA
ENCODING 41674
SWIDTH 1024 0
DWIDTH 48 0
BBX 48 48 0 -6
BITMAP
000000000000
3FFFFFFFFFFC
3FFFFFFFFFFC
3FFFFFFFFFFC
3FFFFFFFFFFC
3F8003E0003C
3FC003F0003C
3FE001F8003C
3FF000FC003C
3DF8007E003C
3CFC003F003C
3C7E001F803C
3C3F000FC03C
3C1F8007E03C
3C0FC003F03C
3C07E001F83C
3C03F000FC3C
3C01F8007E3C
3C00FC003F3C
3C007E001FBC
3C003F000FFC
3C001F8007FC
3E000FC003FC
3F0007E001FC
3F8003F000FC
3FC001F8007C
3FE000FC003C
3FF0007E003C
3DF8003F003C
3CFC001F803C
3C7E000FC03C
3C3F0007E03C
3C1F8003F03C
3C0FC001F83C
3C07E000FC3C
3C03F0007E3C
3C01F8003F3C
3C00FC001FBC
3C007E000FFC
3C003F0007FC
3C001F8003FC
3FFFFFFFFFFC
3FFFFFFFFFFC
3FFFFFFFFFFC
3FFFFFFFFFFC
000000000000
000000000000
000000000000
ENDCHAR

STARTCHAR kor_A2CB
ENCODING 41675
SWIDTH 1024 0
DWIDTH 48 0
BBX 48 48 0 -6
BITMAP
000000000000
3FFFFFFFFFFC
3FFFFFFFFFFC
3FFFFFFFFFFC
3FFFFFFFFFFC
3C0F03C0F03C
3C0F03C0F03C
3C0F03C0F03C
3C0F03C0F03C
3C0F03C0F03C
3C0F03C0F03C
3FFFFFFFFFFC
3FFFFFFFFFFC
3FFFFFFFFFFC
3FFFFFFFFFFC
3C0F03C0F03C
3C0F03C0F03C
3C0F03C0F03C
3C0F03C0F03C
3C0F03C0F03C
3C0F03C0F03C
3FFFFFFFFFFC
3FFFFFFFFFFC
3FFFFFFFFFFC
3FFFFFFFFFFC
3C0F03C0F03C
3C0F03C0F03C
3C0F03C0F03C
3C0F03C0F03C
3C0F03C0F03C
3C0F03C0F03C
3FFFFFFFFFFC
3FFFFFFFFFFC
3FFFFFFFFFFC
3FFFFFFFFFFC
3C0F03C0F03C
3C0F03C0F03C
3C0F03C0F03C
3C0F03C0F03C
3C0F03C0F03C
3C0F03C0F03C
3FFFFFFFFFFC
3FFFFFFFFFFC
3FFFFFFFFFFC
3FFFFFFFFFFC
000000000000
000000000000
000000000000
ENDCHAR

STARTCHAR kor_A2CC
ENCODING 41676
SWIDTH 1024 0
DWIDTH 48 0
BBX 48 48 0 -6
BITMAP
000000000000
3FFFFFFFFFFC
3FFFFFFFFFFC
3FFFFFFFFFFC
3FFFFFFFFFFC
3F8003F0007C
3FC007F800FC
3FE00FFC01FC
3FF01FFE03FC
3DF83F3F07FC
3CFC7E1F8FFC
3C7EFC0FDFBC
3C3FF807FF3C
3C1FF003FE3C
3C0FE001FC3C
3C0FE001FC3C
3C1FF003FE3C
3C3FF807FF3C
3C7EFC0FDFBC
3CFC7E1F8FFC
3DF83F3F07FC
3FF01FFE03FC
3FE00FFC01FC
3FC007F800FC
3F8007F000FC
3FC00FF801FC
3FE01FFC03FC
3FF03F7E07FC
3DF87E3F0FFC
3CFCFC1F9FBC
3C7FF80FFF3C
3C3FF007FE3C
3C1FE003FC3C
3C0FC001F83C
3C1FE003FC3C
3C3FF007FE3C
3C7FF80FFF3C
3CFCFC1F9FBC
3DF87E3F0FFC
3FF03F7E07FC
3FE01FFC03FC
3FFFFFFFFFFC
3FFFFFFFFFFC
3FFFFFFFFFFC
3FFFFFFFFFFC
000000000000
000000000000
000000000000
ENDCHAR

STARTCHAR kor_A2CD
ENCODING 41677
SWIDTH 1024 0
DWIDTH 48 0
BBX 48 48 0 -6
BITMAP
000000300000
000000700000
000030F06000
000071E0E000
0000F1E1E000
0001E3E3C000
0001E3C7C000
0003C7C78000
0003C7CF8000
0007C7CF8000
00078F8F0000
00078F9F0000
000F8F9F0000
000F9F9F0000
000FDF9F8000
000FDFDF8000
000FDFDF8000
000FDFDF8000
000FFFCFC000
0007EFEFC000
0007EFEFC000
0007FFE7E000
0003F7F7E000
0003F7F7E000
0001F7F7E000
001FF3F3FE00
00FFF3F3FF80
03FFF3F3FFE0
07F9F3E7CFF0
0FE1E7E7C3F8
1FC3E7E7C1FC
1F83E7C780FC
3F83C7CF80FE
3F07CF8F007E
3F87CF8F00FE
3F878F1E00FE
3FCF9F1E01FE
1FFF1E1C03FC
1FFE1C180FFC
0FFF98007FF8
07FFFFFFFFF0
03FFFFFFFFE0
01FFFFFFFFC0
007FFFFFFF00
001FFFFFF800
0001FFFF8000
000000000000
000000000000
ENDCHAR

STARTCHAR kor_A2CE
ENCODING 41678
SWIDTH 1024 0
DWIDTH 48 0
BBX 48 48 0 -6
BITMAP
000000000000
000000000000
000000000000
000000000000
000000000000
000000000000
00001FFE0000
0007FFFFF000
003FFFFFFE00
01FFF003FFC0
07FE00003FF0
0FF7FFFFF7F8
1F8FFFFFF8FC
3E1FFFFFFC3E
3C3FF80FFE1E
783DFC1FDE0F
7839FFFFCE0F
703DDFFDCE07
703FC7F1FE07
701FCFF9FC07
7FFFFFFFFFFF
7FFFFFFFFFFF
3FFFFC1FFFFE
001FF007FC00
003FE003FE00
007FC001FF00
00FBC001EF80
01F38000E7C0
01E38000E3C0
03C38000E1E0
03C38000E1E0
07838000E0F0
0783C001E0F0
0703C001E070
0F01E003C078
0F01F007C038
0E00FC1F8038
0E007FFF0038
0E003FFE0038
0E000FF80038
0FFFFFFFFFF8
0FFFFFFFFFF8
07FFFFFFFFF0
000000000000
000000000000
000000000000
000000000000
000000000000
ENDCHAR

STARTCHAR kor_A2CF
ENCODING 41679
SWIDTH 1024 0
DWIDTH 48 0
BBX 48 48 0 -6
BITMAP
000000000000
000000000000
000000000000
000000000000
000000000000
000000000000
00001FFE0000
0007FFFFF000
003FFFFFFE00
01FFFFFFFFC0
07FFFFFFFFF0
0FFFFFFFFFF8
1FFFFFFFFFFC
3FFFFFFFFFFE
3FFFF80FFFFE
7FFDFC1FDFFF
7FF9FFFFCFFF
7FFDFFFFCFFF
7FFFFFFFFFFF
7FFFFFFFFFFF
7FFFFFFFFFFF
7FFFFFFFFFFF
3FFFFFFFFFFE
001FFC1FFC00
003FF007FE00
007FE003FF00
00FFE003FF80
01FFC001FFC0
01FFC001FFC0
03FFC001FFE0
03FFC001FFE0
07FFC001FFF0
07FFE003FFF0
07FFE003FFF0
0FFFF007FFF8
0FFFFC1FFFF8
0FFFFFFFFFF8
0FFFFFFFFFF8
0FFFFFFFFFF8
0FFFFFFFFFF8
0FFFFFFFFFF8
0FFFFFFFFFF8
07FFFFFFFFF0
000000000000
000000000000
000000000000
000000000000
000000000000
ENDCHAR

STARTCHAR kor_A2D0
ENCODING 41680
SWIDTH 1024 0
DWIDTH 48 0
BBX 48 48 0 -6
BITMAP
000000000000
000000000000
000000000000
000000000000
000000000000
000000000000
000000000000
000000000000
000000000000
000000000000
000000000000
000000000000
0001FFFFC000
01FFFFFFF000
3FFFFFFFFC7F
7FFF03FF7F7F
7F0007FE1FFF
70000F8007F7
7FFFFE0001F7
7FFFFC000077
3FFFFBFC0077
003BE7FE0077
003BCFFE0077
003FFFFF0077
003FFFFFC077
001FFFFFE077
000FFF7FFC77
000FFDFEFC77
000FFFFE3CF7
0007FFFE07F7
0001FFFC1FFF
0000FFFFFFFF
00007FFFFC7F
00003FFFF000
000000000000
000000000000
000000000000
000000000000
000000000000
000000000000
000000000000
000000000000
000000000000
000000000000
000000000000
000000000000
000000000000
000000000000
ENDCHAR

STARTCHAR kor_A2D1
ENCODING 41681
SWIDTH 1024 0
DWIDTH 48 0
BBX 48 48 0 -6
BITMAP
000000000000
000000000000
000000000000
000000000000
000000000000
000000000000
000000000000
000000000000
000000000000
000000000000
000000000000
000000000000
0001FFFC0000
0007FFFFFFC0
7F1FFFFFFFFE
7F3FFFE7FFFF
7FFCFFF0007F
77F003F80007
77E0003FFFFF
7700001FFFFF
77003FEFFFFE
77003FF3FE00
77007FFCEE00
7700FFFFFE00
7701FFFFFE00
7703FFFFFC00
770FFFFFF800
770FBFFFF800
770F3FFFF800
77F01FFFF000
7FFC1FFFE000
7FFFFFFF8000
7F1FFFFF8000
0007FFFF0000
000000000000
000000000000
000000000000
000000000000
000000000000
000000000000
000000000000
000000000000
000000000000
000000000000
000000000000
000000000000
000000000000
000000000000
ENDCHAR

STARTCHAR kor_A2D2
ENCODING 41682
SWIDTH 1024 0
DWIDTH 48 0
BBX 48 48 0 -6
BITMAP
000000000000
00003FFFFFE0
0001FFFFFFE0
0007FFFFFFE0
000FFBE0FC00
001FE3E0F800
003F83E0F800
003F03E0F800
007E03E0F800
007E03E0F800
007C03E0F800
007C03E0F800
007C03E0F800
007C03E0F800
007C03E0F800
007E03E0F800
007E03E0F800
003F03E0F800
003F83E0F800
001FE3E0F800
000FFBE0F800
0007FFE0F800
0001FFE0F800
00003FE0F800
000003E0F800
000003E0F800
000003E0F800
000003E0F800
000003E0F800
000003E0F800
000003E0F800
000003E0F800
000003E0F800
000003E0F800
000003E0F800
000003E0F800
000003E0F800
000003E0F800
000003E0F800
000003E0F800
000003E0F800
000003E0F800
000003E0F800
000007E0FC00
0000FFE0FFE0
0000FFE0FFE0
0000FFE0FFE0
000000000000
ENDCHAR

STARTCHAR kor_A2D3
ENCODING 41683
SWIDTH 1024 0
DWIDTH 48 0
BBX 48 48 0 -6
BITMAP
000003E00000
000003E00000
000003E00000
000003E00000
000003E00000
000003E00000
000003E00000
000003E00000
000003E00000
000003E00000
000003E00000
000003E00000
003FFFFFFF00
003FFFFFFF00
003FFFFFFF00
003FFFFFFF00
003FFFFFFF00
000003E00000
000003E00000
000003E00000
000003E00000
000003E00000
000003E00000
000003E00000
000003E00000
000003E00000
000003E00000
000003E00000
000003E00000
000003E00000
000003E00000
000003E00000
000003E00000
000003E00000
000003E00000
000003E00000
000003E00000
000003E00000
000003E00000
000003E00000
000003E00000
000003E00000
000003E00000
000003E00000
000003E00000
000003E00000
000003E00000
000000000000
ENDCHAR

STARTCHAR kor_A2D4
ENCODING 41684
SWIDTH 1024 0
DWIDTH 48 0
BBX 48 48 0 -6
BITMAP
000003E00000
000003E00000
000003E00000
000003E00000
000003E00000
000003E00000
000003E00000
007FFFFFFF00
007FFFFFFF00
007FFFFFFF00
007FFFFFFF00
007FFFFFFF00
000003E00000
000003E00000
003FFFFFFE00
003FFFFFFE00
003FFFFFFE00
003FFFFFFE00
003FFFFFFE00
000003E00000
000003E00000
000003E00000
000003E00000
000003E00000
000003E00000
000003E00000
000003E00000
000003E00000
000003E00000
000003E00000
000003E00000
000003E00000
000003E00000
000003E00000
000003E00000
000003E00000
000003E00000
000003E00000
000003E00000
000003E00000
000003E00000
000003E00000
000003E00000
000003E00000
000003E00000
000003E00000
000003E00000
000000000000
ENDCHAR

STARTCHAR kor_A2D5
ENCODING 41685
SWIDTH 1024 0
DWIDTH 48 0
BBX 48 48 0 -6
BITMAP
000000C00000
000001E00000
000003F00000
000007F80000
00000FFC0000
00001FFE0000
00003FFF0000
00007FFF8000
0000FFFFC000
0001F9E7E000
0003E1E1F000
0003C1E0F000
000381E07000
000001E00000
000001E00000
000001E00000
000001E00000
000001E00000
000001E00000
000001E00000
000001E00000
000001E00000
000001E00000
000001E00000
000001E00000
000001E00000
000001E00000
000001E00000
000001E00000
000001E00000
000001E00000
000001E00000
000001E00000
000001E00000
000381E07000
0003C1E0F000
0003E1E1F000
0001F9E7E000
0000FFFFC000
00007FFF8000
00003FFF0000
00001FFE0000
00000FFC0000
000007F80000
000003F00000
000001E00000
000000C00000
000000000000
ENDCHAR

STARTCHAR kor_A2D6
ENCODING 41686
SWIDTH 1024 0
DWIDTH 48 0
BBX 48 48 0 -6
BITMAP
000000000000
000000000000
000000000000
000000000000
000000000000
000000000000
0000003FFF80
0000003FFF80
0000000FFF80
00000003FF80
00000000FF80
00000000FF80
00000001FF80
00000003FF80
00000007EF80
0000000FC780
0000001F8780
0000003F0380
0000007E0380
000000FC0180
000001F80180
000003F00000
000007E00000
00000FC00000
00001F800000
00003F000000
00007E000000
0000FC000000
0001F8000000
0003F0000000
0007E0000000
000FC0000000
001F80000000
003F00000000
007E00000000
00FC00000000
01F800000000
03F000000000
03E000000000
03C000000000
018000000000
000000000000
000000000000
000000000000
000000000000
000000000000
000000000000
000000000000
ENDCHAR

STARTCHAR kor_A2D7
ENCODING 41687
SWIDTH 1024 0
DWIDTH 48 0
BBX 48 48 0 -6
BITMAP
000000000000
000000000000
000000000000
000000000000
000000000000
000000000000
000000000000
0000000000E0
0000000001F0
0000000003F0
0000000007E0
000000000FC0
000000001F80
000000003F00
000000007E00
00000000FC00
00000001F800
00000003F000
00000007E000
0000000FC000
0000001F8000
0000003F0000
0000007E0000
000000FC0000
000001F80000
003003F00000
003007E00000
00380FC00000
00381F800000
003C3F000000
003C7E000000
003EFC000000
003FF8000000
003FF0000000
003FE0000000
003FC0000000
003FE0000000
003FF8000000
003FFF000000
003FFFC00000
003FFFC00000
000000000000
000000000000
000000000000
000000000000
000000000000
000000000000
000000000000
ENDCHAR

STARTCHAR kor_A2D8
ENCODING 41688
SWIDTH 1024 0
DWIDTH 48 0
BBX 48 48 0 -6
BITMAP
000000000000
000000000000
000000000000
000000000000
000000000000
000000000000
000000000000
000000000000
003FFF800000
003FFF800000
003FFF000000
003FF8000000
003FE0000000
003FC0000000
003FE0000000
003FF0000000
003FF8000000
003CFC000000
003C7E000000
00383F000000
00381F800000
00380FC00000
003007E00000
000003F00000
000001F80000
000000FC0000
0000007E0000
0000003F0000
0000001F8000
0000000FC000
00000007E000
00000003F000
00000001F800
00000000FC00
000000007E00
000000003F00
000000001F80
000000000FC0
0000000007E0
0000000003F0
0000000001F0
0000000000E0
000000000000
000000000000
000000000000
000000000000
000000000000
000000000000
ENDCHAR

STARTCHAR kor_A2D9
ENCODING 41689
SWIDTH 1024 0
DWIDTH 48 0
BBX 48 48 0 -6
BITMAP
000000000000
000000000000
000000000000
000000000000
000000000000
000000000000
00C000000000
01E000000000
01F000000000
01F800000000
00FC00000000
007E00000000
003F00000000
001F80000000
000FC0000000
0007E0000000
0003F0000000
0001F8000000
0000FC000000
00007E000000
00003F000000
00001F800000
00000FC00000
000007E00000
000003F00300
000001F80300
000000FC0700
0000007E0700
0000003F0700
0000001F8F00
0000000FCF00
00000007FF00
00000003FF00
00000001FF00
00000000FF00
00000003FF00
0000001FFF00
0000007FFF00
0000007FFF00
000000000000
000000000000
000000000000
000000000000
000000000000
000000000000
000000000000
000000000000
000000000000
ENDCHAR

STARTCHAR kor_A2DA
ENCODING 41690
SWIDTH 1024 0
DWIDTH 48 0
BBX 48 48 0 -6
BITMAP
000000000000
000000000000
000000000000
000000000000
0000F0000000
0000F0000000
0000F0000000
0000F0000000
0000F0000000
0000F0000000
0000F0000000
0000F0000000
0000F0000000
0000F0000000
0000F0000000
0000F0000000
0000F1FC0000
0000F7FF0000
0000FFFF8000
0000FFFFC000
0000FF1FC000
0000FC0FE000
0000F80FE000
0000F807E000
0000F007E000
0000F007E000
0000F007E000
0000F007E000
0000F00FE000
0000F00FE000
0000F00FC000
0000F01FC000
0000F01F8000
0000F03F8000
0000F07F0000
0000F0FE0000
0000F1FC0000
0000F3F80000
0000FFF00000
0000FFC00000
0000FF800000
0000FE000000
0000F0000000
000000000000
000000000000
000000000000
000000000000
000000000000
ENDCHAR

STARTCHAR kor_A2DB
ENCODING 41691
SWIDTH 1024 0
DWIDTH 48 0
BBX 48 48 0 -6
BITMAP
000000000000
0000003C0000
0000003C0000
0000003C0000
0000003C0000
0000003C0000
0000003C0000
0000003C0000
0000003C0000
0000003C0000
0000003C0000
0000003C0000
0000003C0000
0000003C0000
0000003C0000
0000003C0000
0000003C0000
0000003C0000
0000003C0000
0000003C0000
0000003C0000
0000003C0000
0000003C0000
0000003C0000
0000003C0000
0000003C0000
0000003C0000
0000003C0000
0000003C0000
0000003C0000
0000003C0000
0000003C0000
0000003C0000
0000003C0000
0000003C0000
0000003C0000
000003FC0000
00000FFC0000
00003FFC0000
00007FF80000
00007FF80000
0000FFF00000
0000FFF00000
0000FFE00000
0000FFC00000
0000FF800000
00007E000000
000000000000
ENDCHAR

STARTCHAR kor_A2DC
ENCODING 41692
SWIDTH 1024 0
DWIDTH 48 0
BBX 48 48 0 -6
BITMAP
000000000000
000000000000
000018000000
00001C000000
00001E000000
00001F000000
00001F800000
00001FE00000
00001FF00000
00001FF80000
00001FFC0000
00001FFE0000
00001FFF8000
00001EFFC000
00001E7FE000
00001E1FF000
00001E0FF800
00001E07F800
00001E03FC00
00001E01FC00
00001E00FC00
00001E00FC00
00001E007C00
00001E007C00
00001E007C00
00001E00FC00
00001E00F800
00001E00F800
00001E01F000
00001E01F000
00001E03E000
00001E07C000
00001E0F8000
00001E1F0000
00001E3E0000
00001E380000
0001FE000000
0007FE000000
000FFE000000
001FFE000000
001FFC000000
003FFC000000
003FF8000000
003FF8000000
003FF0000000
003FE0000000
001F80000000
000000000000
ENDCHAR

STARTCHAR kor_A2DD
ENCODING 41693
SWIDTH 1024 0
DWIDTH 48 0
BBX 48 48 0 -6
BITMAP
000000000000
000000000380
000000001F80
00000001FF80
0000001FFF80
000001FFFF80
00001FFFFF80
0001FFFFFF80
0007FFFFFF80
0007FFFF8780
0007FFF87F80
0007FF87FF80
0007F87FFF80
000787FFFF80
0007FFFFFF80
0007FFFFFF80
0007FFFFE780
0007FFFE0780
0007FFE00780
0007FE000780
0007E0000780
000780000780
000780000780
000780000780
000780000780
000780000780
000780000780
000780000780
000780000780
000780003F80
00078000FF80
00078003FF80
00078007FF80
00078007FF80
0007800FFF00
003F800FFF00
00FF800FFE00
03FF800FFE00
07FF800FFC00
07FF800FF800
0FFF0007E000
0FFF00000000
0FFE00000000
0FFE00000000
0FFC00000000
0FF800000000
07E000000000
000000000000
ENDCHAR

STARTCHAR kor_A2DE
ENCODING 41694
SWIDTH 1024 0
DWIDTH 48 0
BBX 48 48 0 -6
BITMAP
000000000000
00000FFE0000
00007FFFC000
0003FFFFF800
000FFFFFFE00
001FFC03FF00
003FC0007F80
007F00001FC0
00FE000007E0
01FC000003F0
03F8000001F8
03F0000000F8
07E00000007C
07C03E0FC07C
0FC03E1FC03E
0F803E3F803E
0F803E7F001E
1F003EFE001E
1F003FFC001E
1E003FF80000
1E003FF00000
1E003FE00000
1FFE3FC03FFE
1FFE3FC03FFE
1FFE3FE03FFE
1FFE3FF03FFE
00003FF8001E
00003FFC001E
00003EFE003E
1E003E7F003E
1E003E3F803E
1E003E1FC07C
1F003E0FE07C
1F003E07E0FC
0F80000000F8
0FC0000001F8
07E0000003F0
07F0000007F0
03F800000FE0
01FC00001FC0
00FF00007F80
007FE003FF00
003FFFFFFE00
001FFFFFFC00
0007FFFFF000
0001FFFFC000
00003FFE0000
000000000000
ENDCHAR

STARTCHAR kor_A2DF
ENCODING 41695
SWIDTH 1024 0
DWIDTH 48 0
BBX 48 48 0 -6
BITMAP
000000000000
000000000000
006000000300
00E000000380
01E000007FC0
03DC0003FFE0
07DFFFFFFFF0
079FFFFFFEF0
0F8FFFFFFCF8
0F07F9F80078
1F01E1F8007C
1E0003F8003C
3E0007F0003E
3E000FFC003E
3C001FFF001E
3C003FBFF01E
7C00FF0FFC1F
7C01FE07FE1F
7807F801FF0F
781FF000FF0F
787FC0003F0F
79FF00000F0F
7FFC0000000F
7FE000001F0F
7F800000FFCF
7FFFFFFFFFEF
7FFFFFFFFFEF
7BFFFFFFFFEF
78FF81F0000F
783C01F0000F
780001F0001F
7C0001F0001F
7C0001F0001E
3C0001F0001E
3E0001F0003E
3E0001F0003C
1E0001F0003C
1F0001F0007C
0F0001F00078
0F8001F000F8
078001E000F0
07C001E001F0
03C001E001E0
01E001C003C0
00E001C00380
006001800300
000000000000
000000000000
ENDCHAR

STARTCHAR kor_A2E0
ENCODING 41696
SWIDTH 1024 0
DWIDTH 48 0
BBX 48 48 0 -6
BITMAP
000000000000
000000000000
000000000000
7F807FF00000
7F807FF00000
7FC07FF00000
3FC00F800000
1FE007000000
0FE007000000
0FF007000000
0FF007000000
0FF807000000
0FF807000000
0FFC07000000
0FFC07000000
0EFE0700F800
0EFE0703FE00
0E7F0707FF00
0E7F070F8F80
0E3F870F0780
0E3F871F07C0
0E1FC71E03C0
0E1FC71E03C0
0E0FE73E03E0
0E0FE73E03E0
0E07F73E03E0
0E07F73E03E0
0E03FF3E03E0
0E03FF3E03E0
0E01FF3E03E0
0E01FF3E03E0
0E00FF3E03E0
0E00FF3E03E0
0E007F3E03E0
0E007F1E03C0
0E003F1E03DE
0E003F1F07FF
0E001F0F07BF
1F001F0F8FBF
7FE00F07FF3F
7FE00F03FE1E
7FE00701F800
000000000000
000000000000
000000000000
000000000000
000000000000
000000000000
ENDCHAR

STARTCHAR kor_A2E1
ENCODING 41697
SWIDTH 1024 0
DWIDTH 48 0
BBX 48 48 0 -6
BITMAP
000000000000
000000000000
001FE3800000
007FFB800000
00FFFF800000
01F87F800000
03E01F800000
07C00F800000
07C00F800000
0F8007800000
0F8007800000
0F8003800000
1F0003800000
1F0003800000
1F0000000000
3F0000007C00
3E000001FF00
3E000003FF80
3E000007C7C0
3E00000783C0
3E00000F83E0
3E00000F01E0
3E00001F01F0
3E00001F01F0
3E00001F01F0
3E00001F01F0
3F00001F01F0
3F00001F01F0
1F00001F01F0
1F0001DF01F0
1F8001DF01F0
1F8001DF01F0
0F8001DF01F0
0FC003DF01F0
0FC003DF01F0
07E0078F01E0
07F00F8F83FE
03F81F0783FF
01FE7F07C7FF
00FFFE03FFBF
007FFC01FF3F
003FF8007C1E
000FE0000000
000000000000
000000000000
000000000000
000000000000
000000000000
ENDCHAR

STARTCHAR kor_A2E2
ENCODING 41698
SWIDTH 1024 0
DWIDTH 48 0
BBX 48 48 0 -6
BITMAP
000000000000
000000000000
000000000000
000000000000
1FFFFFFE007F
1FFFFFFF00FF
1FFFFFFF00FF
3F3E7E7F00FE
3E3E3E3F00FC
3C3E1E3F00FC
7C3E1F3F80FC
783E0F3F80FC
783E0F3F81FC
703E073F81FC
703E073F81FC
603E033FC1FC
003E003FC1FC
003E003FC1FC
003E003FC3FC
003E003FC3FC
003E003BE3FC
003E003BE3FC
003E003BE3FC
003E003BE3FC
003E003BE7FC
003E0039F7FC
003E0039F7FC
003E0039F77C
003E0039F77C
003E0039F77C
003E0038FF7C
003E0038FF7C
003E0038FF7C
003E0038FE7C
003E0038FE7C
003E00387E7C
003E00387E7C
003E00387E7C
003E00387E7C
007F007C7CFE
07FFF3FFBDFF
07FFF3FFBDFF
07FFF3FFBDFF
000000000000
000000000000
000000000000
000000000000
000000000000
ENDCHAR

STARTCHAR kor_A2E3
ENCODING 41699
SWIDTH 1024 0
DWIDTH 48 0
BBX 48 48 0 -6
BITMAP
000000000000
000000000000
000000000000
000000000000
000000000000
000000000000
000000000000
000000000000
000000000000
000000000000
000000000000
000000000000
000000000000
000000000000
000000000000
000000000000
000000000000
000000000000
000000000000
03F00FFF9F00
0FFC0FFFFF80
1FFE0FFFFFC0
3F7E03FFFFC0
7E3F01FFFFC0
7E3F01F3E7C0
7E1F01F3E7C0
7E1F01F3E7C0
7E7F01F3E7C0
3DFF01F3E7C0
07FF01F3E7C0
1FFF01F3E7C0
3FDF01F3E7C0
3F1F01F3E7C0
7E1F01F3E7C0
7C1F01F3E7C0
7C1F01F3E7C0
7C3FE1F3E7C0
7EFFFDF3E7CE
7FFFFFFFFFFF
7FFFFFFFFFFF
3FEFFFFFFFFF
1F879FFFFFFE
000000000000
000000000000
000000000000
000000000000
000000000000
000000000000
ENDCHAR

STARTCHAR kor_A2E4
ENCODING 41700
SWIDTH 1024 0
DWIDTH 48 0
BBX 48 48 0 -6
BITMAP
000000000000
000000000000
000000000000
000000000000
000000000000
000000000000
000000000000
000000000000
000000000000
000000000000
000000000000
000000000000
000000000000
000000000000
000000000000
000000000000
000000000000
000000000000
077C00000000
1FFF0FEF9F00
7FFF8FFFFF80
7FFFCFFFFFC0
7FC7E3FFFFC0
1F83E1FFFFC0
1F03F1F3E7C0
1F01F1F3E7C0
1F01F1F3E7C0
1F01F1F3E7C0
1F01F1F3E7C0
1F01F1F3E7C0
1F01F1F3E7C0
1F01F1F3E7C0
1F03F1F3E7C0
1F03E1F3E7C0
1F87E1F3E7C0
1FCFC1F3E7C0
1FFFC1F3E7C0
1FFFF3FFFFEE
1FFEFFFFFFFF
1F00FFFFFFFF
1F00FFFFFFFF
1F007000000E
1F0000000000
3F8000000000
7FC000000000
7FC000000000
7FC000000000
000000000000
ENDCHAR

STARTCHAR kor_A2E5
ENCODING 41701
SWIDTH 1024 0
DWIDTH 48 0
BBX 48 48 0 -6
BITMAP
000000000000
000000000000
00000000001C
0FFFFF80003C
0FFFFF8000FC
0FFFFF8007FC
1FCF9FC007FC
1F0F87C007FC
1E0F83C0007C
3E0F83E0007C
3C0F81E0007C
380F80E0007C
380F80E0007C
300F8060007C
000F801F807C
000F807FE07C
000F80FFF07C
000F81F9F87C
000F81F0F87C
000F83F07C7C
000F83E07C7C
000F83E07C7C
000F87E03E7C
000F87C03E7C
000F87C03E7C
000F87FFFE7C
000F87FFFE7C
000F87FFFE7C
000F87C0007C
000F87C0007C
000F87C0007C
000F87C00E7C
000F87E00E7C
000F83E00E7C
000F83E01E7C
000F83F03E7C
000F81FCFC7C
001FC1FFFCFE
00FFF8FFF9FF
00FFF87FF1FF
00FFF81FC1FF
000000000000
000000000000
000000000000
000000000000
000000000000
000000000000
000000000000
ENDCHAR

STARTCHAR default_char
ENCODING 41702
SWIDTH 48 0
DWIDTH 48 0
BBX 48 48 0 -6
BITMAP
000000000000
000000000000
30000000000C
30000000000C
000000000000
000000000000
000000000000
000000000000
000000000000
000000000000
000000000000
000000000000
000000000000
000000000000
000000000000
000000000000
000000000000
000000000000
000000000000
000000000000
000000000000
000000000000
000000000000
000000000000
000000000000
000000000000
000000000000
000000000000
000000000000
000000000000
000000000000
000000000000
000000000000
000000000000
000000000000
000000000000
000000000000
000000000000
000000000000
000000000000
000000000000
000000000000
000000000000
000000000000
30000000000C
30000000000C
000000000000
000000000000
ENDCHAR

STARTCHAR kor_A3A1
ENCODING 41889
SWIDTH 1024 0
DWIDTH 48 0
BBX 48 48 0 -6
BITMAP
000000000000
000003E00000
000007F00000
000007F00000
000007F00000
000007F00000
000007F00000
000007F00000
000007F00000
000007F00000
000007F00000
000003E00000
000003E00000
000003E00000
000003E00000
000003E00000
000003E00000
000003E00000
000003E00000
000003E00000
000003E00000
000001C00000
000001C00000
000001C00000
000001C00000
000001C00000
000001C00000
000001C00000
000001C00000
000000000000
000000000000
000000000000
000000000000
000001C00000
000003E00000
000007F00000
000007F00000
000007F00000
000003E00000
000001C00000
000000000000
000000000000
000000000000
000000000000
000000000000
000000000000
000000000000
000000000000
ENDCHAR

STARTCHAR kor_A3A2
ENCODING 41890
SWIDTH 1024 0
DWIDTH 48 0
BBX 48 48 0 -6
BITMAP
000000000000
00000F078000
00001F8FC000
00001F8FC000
00003F9FC000
00003F9FC000
00007F3F8000
00007E3F0000
0000FC7E0000
0000F87C0000
0001F0F80000
0001E0F00000
0003C1E00000
000381C00000
000301800000
000000000000
000000000000
000000000000
000000000000
000000000000
000000000000
000000000000
000000000000
000000000000
000000000000
000000000000
000000000000
000000000000
000000000000
000000000000
000000000000
000000000000
000000000000
000000000000
000000000000
000000000000
000000000000
000000000000
000000000000
000000000000
000000000000
000000000000
000000000000
000000000000
000000000000
000000000000
000000000000
000000000000
ENDCHAR

STARTCHAR kor_A3A3
ENCODING 41891
SWIDTH 1024 0
DWIDTH 48 0
BBX 48 48 0 -6
BITMAP
000000000000
000000000000
000003C1E000
000003C1E000
000003C1E000
000003C1E000
000003C1E000
000007C3E000
000007C3E000
00000783C000
00000783C000
00000783C000
00000783C000
00000F87C000
0007FFFFFF80
0007FFFFFF80
0007FFFFFF80
0007FFFFFF80
00000F078000
00000F078000
00001F0F8000
00001F0F8000
00001E0F0000
00001E0F0000
00001E0F0000
00001E0F0000
00003E1F0000
00003E1F0000
00003C1E0000
001FFFFFFC00
001FFFFFFC00
001FFFFFFC00
001FFFFFFC00
00007C3E0000
0000783C0000
0000783C0000
0000783C0000
0000783C0000
0000F87C0000
0000F87C0000
0000F0780000
0000F0780000
0000F0780000
0000F0780000
0000F0780000
000000000000
000000000000
000000000000
ENDCHAR

STARTCHAR kor_A3A4
ENCODING 41892
SWIDTH 1024 0
DWIDTH 48 0
BBX 48 48 0 -6
BITMAP
00000F1E0000
00000F1E0000
00000F1E0000
00001FFE3000
00007FFF7000
0001FFFFF000
0003FF1FF000
0007EF1FF800
000FCF1EF800
000F8F1E7800
001F8F1E3C00
001F0F1E3C00
001F0F1E1C00
001F0F1E1C00
001F8F1E1C00
001FCF1E0000
001FFF1E0000
000FFF1E0000
000FFF9E0000
0007FFFE0000
0003FFFE0000
0000FFFF0000
00003FFFC000
00000FFFF000
00000FFFF800
00000F7FFC00
00000F1FFE00
00000F1FFE00
00000F1E7F00
00000F1E3F00
00000F1E3F00
00300F1E1F00
00380F1E1F00
003C0F1E1F00
001E0F1E3F00
001F0F1E3F00
001F8F1E7E00
000FCF1EFE00
000FFF1FFC00
000FFF9FF800
0007FFFFF000
00077FFFE000
00060FFF8000
00000F1E0000
00000F1E0000
00000F1E0000
00000F1E0000
000000000000
ENDCHAR

STARTCHAR kor_A3A5
ENCODING 41893
SWIDTH 1024 0
DWIDTH 48 0
BBX 48 48 0 -6
BITMAP
001FC0000000
007FF000000E
00FFF800001E
01F8FC00003E
01F07C00007E
03E03E0000FC
03E03E0001F8
07E03E0003F0
07C01F0007E0
07C01F000FC0
07C01F001F80
07C01F003F00
07C01F007E00
07C01F00FC00
07C01F01F800
07C01F03F000
07E03E07E000
03E03E0FC000
03E03E1F8000
01F07C3F0000
01F8FC7E0000
00FFF8FC0000
007FF1F80000
001FC3F0FE00
000007E3FF80
00000FC7FFC0
00001F8FC7E0
00003F0F83E0
00007E1F01F0
0000FC1F01F0
0001F83F01F8
0003F03E00F8
0007E03E00F8
000FC03E00F8
001F803E00F8
003F003E00F8
007E003E00F8
00FC003E00F8
01F8003E00F8
03F0003F01F8
07E0001F01F0
0FC0001F01F0
1F80000F83E0
1F00000FC7E0
1E000007FFC0
1C000003FF80
00000000FE00
000000000000
ENDCHAR

STARTCHAR kor_A3A6
ENCODING 41894
SWIDTH 1024 0
DWIDTH 48 0
BBX 48 48 0 -6
BITMAP
000000000000
000000000000
00000FE00000
00007FF80000
0000FFFC0000
0001FC7E0000
0003F03E0000
0003E03F0000
0007E01F0000
0007C01F0000
0007C01F0000
0007C03F0000
0007C03F0000
0007C07E0000
0007E0FE0000
0007E1FC0000
0003F7F80000
0003FFF00000
0003FFC7FFF8
0003FF07FFF8
000FFC07FFF8
003FFC00FFC0
007FFE003F00
00FC7F003E00
01F87F003E00
01F83F803C00
03F01FC07C00
03F00FC07800
07F00FE0F800
07E007F0F000
07E007F1F000
07E003F9E000
07E001FFE000
07E001FFC000
07F000FFC038
03F0007F8078
03F8003F80F8
01FC00FFE3F0
01FF07FFFFE0
00FFFFFFFFC0
007FFFE7FF80
001FFF80FE00
0003FC000000
000000000000
000000000000
000000000000
000000000000
000000000000
ENDCHAR

STARTCHAR kor_A3A7
ENCODING 41895
SWIDTH 1024 0
DWIDTH 48 0
BBX 48 48 0 -6
BITMAP
000000000000
000001E00000
000003F00000
000003F00000
000003F00000
000003F00000
000003F00000
000003F00000
000003F00000
000001E00000
000001E00000
000001E00000
000001E00000
000001E00000
000001E00000
000000C00000
000000C00000
000000C00000
000000000000
000000000000
000000000000
000000000000
000000000000
000000000000
000000000000
000000000000
000000000000
000000000000
000000000000
000000000000
000000000000
000000000000
000000000000
000000000000
000000000000
000000000000
000000000000
000000000000
000000000000
000000000000
000000000000
000000000000
000000000000
000000000000
000000000000
000000000000
000000000000
000000000000
ENDCHAR

STARTCHAR kor_A3A8
ENCODING 41896
SWIDTH 1024 0
DWIDTH 48 0
BBX 48 48 0 -6
BITMAP
000000000007
00000000000F
00000000001E
00000000003C
000000000078
0000000000F8
0000000000F0
0000000001F0
0000000001E0
0000000003E0
0000000003C0
0000000007C0
0000000007C0
000000000780
000000000F80
000000000F80
000000000F80
000000001F00
000000001F00
000000001F00
000000001F00
000000001F00
000000001F00
000000001F00
000000001F00
000000001F00
000000001F00
000000001F00
000000001F00
000000001F00
000000000F80
000000000F80
000000000F80
000000000780
0000000007C0
0000000007C0
0000000003C0
0000000003E0
0000000001E0
0000000001F0
0000000000F0
0000000000F8
000000000078
00000000003C
00000000001E
00000000000F
000000000007
000000000000
ENDCHAR

STARTCHAR kor_A3A9
ENCODING 41897
SWIDTH 1024 0
DWIDTH 48 0
BBX 48 48 0 -6
BITMAP
700000000000
780000000000
3C0000000000
1E0000000000
0F0000000000
0F8000000000
078000000000
07C000000000
03C000000000
03E000000000
01E000000000
01F000000000
01F000000000
00F000000000
00F800000000
00F800000000
00F800000000
007C00000000
007C00000000
007C00000000
007C00000000
007C00000000
007C00000000
007C00000000
007C00000000
007C00000000
007C00000000
007C00000000
007C00000000
007C00000000
00F800000000
00F800000000
00F800000000
00F000000000
01F000000000
01F000000000
01E000000000
03E000000000
03C000000000
07C000000000
078000000000
0F8000000000
0F0000000000
1E0000000000
3C0000000000
780000000000
700000000000
000000000000
ENDCHAR

STARTCHAR kor_A3AA
ENCODING 41898
SWIDTH 1024 0
DWIDTH 48 0
BBX 48 48 0 -6
BITMAP
000000000000
000000000000
000000000000
000000000000
000000000000
000000000000
000000000000
000000000000
000000000000
000000000000
000000000000
000001E00000
000003F00000
000003F00000
000003F00000
0000F3F3C000
0001F9E7E000
0001FDEFE000
0001FFFFE000
0000FFFFC000
00003FFF0000
00000FFC0000
00000FFC0000
00003FFF0000
0000FFFFC000
0001FFFFE000
0001FDEFE000
0001F9E7E000
0000F3F3C000
000003F00000
000003F00000
000003F00000
000001E00000
000000000000
000000000000
000000000000
000000000000
000000000000
000000000000
000000000000
000000000000
000000000000
000000000000
000000000000
000000000000
000000000000
000000000000
000000000000
ENDCHAR

STARTCHAR kor_A3AB
ENCODING 41899
SWIDTH 1024 0
DWIDTH 48 0
BBX 48 48 0 -6
BITMAP
000000000000
000000000000
000000000000
000000000000
000000000000
000000000000
000001E00000
000001E00000
000001E00000
000001E00000
000001E00000
000001E00000
000001E00000
000001E00000
000001E00000
000001E00000
000001E00000
000001E00000
000001E00000
000001E00000
000001E00000
000001E00000
01FFFFFFFFE0
01FFFFFFFFE0
01FFFFFFFFE0
01FFFFFFFFE0
000001E00000
000001E00000
000001E00000
000001E00000
000001E00000
000001E00000
000001E00000
000001E00000
000001E00000
000001E00000
000001E00000
000001E00000
000001E00000
000001E00000
000001E00000
000001E00000
000000000000
000000000000
000000000000
000000000000
000000000000
000000000000
ENDCHAR

STARTCHAR kor_A3AC
ENCODING 41900
SWIDTH 1024 0
DWIDTH 48 0
BBX 48 48 0 -6
BITMAP
000000000000
000000000000
000000000000
000000000000
000000000000
000000000000
000000000000
000000000000
000000000000
000000000000
000000000000
000000000000
000000000000
000000000000
000000000000
000000000000
000000000000
000000000000
000000000000
000000000000
000000000000
000000000000
000000000000
000000000000
000000000000
000000000000
000000000000
000000000000
000000000000
000000000000
000000000000
000000000000
07C000000000
0FE000000000
1FF000000000
1FF000000000
1FF000000000
1FF000000000
0FF000000000
07F000000000
03E000000000
07E000000000
07C000000000
0F8000000000
1F0000000000
3E0000000000
380000000000
000000000000
ENDCHAR

STARTCHAR kor_A3AD
ENCODING 41901
SWIDTH 1024 0
DWIDTH 48 0
BBX 48 48 0 -6
BITMAP
000000000000
000000000000
000000000000
000000000000
000000000000
000000000000
000000000000
000000000000
000000000000
000000000000
000000000000
000000000000
000000000000
000000000000
000000000000
000000000000
000000000000
000000000000
000000000000
000000000000
000000000000
0FFFFFFFFFF8
0FFFFFFFFFF8
0FFFFFFFFFF8
0FFFFFFFFFF8
000000000000
000000000000
000000000000
000000000000
000000000000
000000000000
000000000000
000000000000
000000000000
000000000000
000000000000
000000000000
000000000000
000000000000
000000000000
000000000000
000000000000
000000000000
000000000000
000000000000
000000000000
000000000000
000000000000
ENDCHAR

STARTCHAR kor_A3AE
ENCODING 41902
SWIDTH 1024 0
DWIDTH 48 0
BBX 48 48 0 -6
BITMAP
000000000000
000000000000
000000000000
000000000000
000000000000
000000000000
000000000000
000000000000
000000000000
000000000000
000000000000
000000000000
000000000000
000000000000
000000000000
000000000000
000000000000
000000000000
000000000000
000000000000
000000000000
000000000000
000000000000
000000000000
000000000000
000000000000
000000000000
000000000000
000000000000
000000000000
000000000000
000000000000
000000000000
000000000000
0F0000000000
1F8000000000
3FC000000000
3FC000000000
3FC000000000
3FC000000000
1F8000000000
0F0000000000
000000000000
000000000000
000000000000
000000000000
000000000000
000000000000
ENDCHAR

STARTCHAR kor_A3AF
ENCODING 41903
SWIDTH 1024 0
DWIDTH 48 0
BBX 48 48 0 -6
BITMAP
000000000000
00000000000E
00000000001F
00000000003F
00000000007E
0000000000FC
0000000001F8
0000000003F0
0000000007E0
000000000FC0
000000001F80
000000003F00
000000007E00
00000000FC00
00000001F800
00000003F000
00000007E000
0000000FC000
0000001F8000
0000003F0000
0000007E0000
000000FC0000
000001F80000
000003F00000
000007E00000
00000FC00000
00001F800000
00003F000000
00007E000000
0000FC000000
0001F8000000
0003F0000000
0007E0000000
000FC0000000
001F80000000
003F00000000
007E00000000
00FC00000000
01F800000000
03F000000000
07E000000000
0FC000000000
1F8000000000
3F0000000000
3E0000000000
3C0000000000
180000000000
000000000000
ENDCHAR

STARTCHAR kor_A3B0
ENCODING 41904
SWIDTH 1024 0
DWIDTH 48 0
BBX 48 48 0 -6
BITMAP
000000000000
000000000000
000007F00000
00001FFC0000
00003FFE0000
00007E3F0000
0000FC1F8000
0000F80F8000
0001F80FC000
0001F007C000
0001F007C000
0003F007E000
0003E003E000
0003E003E000
0003E003E000
0003E003E000
0003E003E000
0003E003E000
0003E003E000
0003E003E000
0003E003E000
0003E003E000
0003E003E000
0003E003E000
0003E003E000
0003E003E000
0003E003E000
0003E003E000
0003E003E000
0003E003E000
0003F007E000
0001F007C000
0001F007C000
0001F80FC000
0000F80F8000
0000FC1F8000
00007E3F0000
00003FFE0000
00001FFC0000
000007F00000
000000000000
000000000000
000000000000
000000000000
000000000000
000000000000
000000000000
000000000000
ENDCHAR

STARTCHAR kor_A3B1
ENCODING 41905
SWIDTH 1024 0
DWIDTH 48 0
BBX 48 48 0 -6
BITMAP
000000000000
000000000000
000003C00000
000007C00000
00000FC00000
00003FC00000
0001FFC00000
0001FFC00000
0001FFC00000
000007C00000
000007C00000
000007C00000
000007C00000
000007C00000
000007C00000
000007C00000
000007C00000
000007C00000
000007C00000
000007C00000
000007C00000
000007C00000
000007C00000
000007C00000
000007C00000
000007C00000
000007C00000
000007C00000
000007C00000
000007C00000
000007C00000
000007C00000
000007C00000
000007C00000
000007C00000
00000FE00000
00007FFC0000
0007FFFFC000
0007FFFFC000
0007FFFFC000
000000000000
000000000000
000000000000
000000000000
000000000000
000000000000
000000000000
000000000000
ENDCHAR

STARTCHAR kor_A3B2
ENCODING 41906
SWIDTH 1024 0
DWIDTH 48 0
BBX 48 48 0 -6
BITMAP
000000000000
000000000000
00000FF80000
00003FFE0000
00007FFF0000
0000FE3F8000
0001F81FC000
0001F00FC000
0003F80FE000
0003FC07E000
0003FC07E000
0003FC07E000
0003FC07E000
0001F80FE000
0000F00FE000
0000000FC000
0000001FC000
0000001F8000
0000003F8000
0000007F0000
0000007E0000
000000FC0000
000001FC0000
000003F80000
000007F00000
000007E00000
00000FC00000
00001F800000
00003F00E000
00007E00E000
0000FC01E000
0001F801E000
0001F003E000
0003E007C000
0003FFFFC000
0003FFFFC000
0003FFFF8000
0003FFFF8000
0003FFFF8000
000000000000
000000000000
000000000000
000000000000
000000000000
000000000000
000000000000
000000000000
000000000000
ENDCHAR

STARTCHAR kor_A3B3
ENCODING 41907
SWIDTH 1024 0
DWIDTH 48 0
BBX 48 48 0 -6
BITMAP
000000000000
000000000000
000007FC0000
00001FFF0000
00003FFF8000
00007F1FC000
00007E0FE000
0000FE07E000
0000FE07F000
0000FE03F000
0000FE03F000
0000FE03F000
00007C03F000
00000007F000
00000007E000
0000000FE000
0000001FC000
0000007F8000
00000FFF0000
00000FFE0000
00000FFE0000
0000007F0000
0000001F8000
0000000FC000
00000007E000
00000007E000
00000003F000
00000003F000
00000003F000
0001F003F000
0003F803F000
0003F803F000
0003F803F000
0003F807F000
0003F807E000
0001F80FE000
0001F81FC000
0000FC7F8000
00007FFF0000
00003FFE0000
00000FF80000
000000000000
000000000000
000000000000
000000000000
000000000000
000000000000
000000000000
ENDCHAR

STARTCHAR kor_A3B4
ENCODING 41908
SWIDTH 1024 0
DWIDTH 48 0
BBX 48 48 0 -6
BITMAP
000000000000
000000000000
000000000000
0000001E0000
0000001E0000
0000003E0000
0000003E0000
0000007E0000
0000007E0000
000000FE0000
000000FE0000
000001FE0000
000001FE0000
000003FE0000
000003FE0000
000007FE0000
000007BE0000
00000FBE0000
00000F3E0000
00001F3E0000
00001E3E0000
00003E3E0000
00003C3E0000
00007C3E0000
0000783E0000
0000F83E0000
0000F03E0000
0001F03E0000
0001E03E0000
0003FFFFF000
0003FFFFF000
0003FFFFF000
0003FFFFF000
0000003E0000
0000003E0000
0000003E0000
0000003E0000
0000007F0000
000007FFF000
000007FFF000
000007FFF000
000000000000
000000000000
000000000000
000000000000
000000000000
000000000000
000000000000
ENDCHAR

STARTCHAR kor_A3B5
ENCODING 41909
SWIDTH 1024 0
DWIDTH 48 0
BBX 48 48 0 -6
BITMAP
000000000000
000000000000
000000000000
0003FFFFC000
0003FFFFC000
0003FFFF8000
0003FFFF8000
0003FFFF0000
0003C0000000
0003C0000000
0003C0000000
0003C0000000
0003C0000000
0003C0000000
0003C0000000
0003C0000000
0003CFF80000
0003FFFE0000
0003FFFF0000
0003FC7F8000
0003F01FC000
0003E00FC000
0003C00FE000
00000007E000
00000007F000
00000007F000
00000003F000
00000003F000
00000003F000
0003E003F000
0007F007F000
0007F007F000
0007F007E000
0007F00FE000
0007F00FC000
0003F01FC000
0003F03F8000
0001F8FF0000
0000FFFE0000
00007FF80000
00001FE00000
000000000000
000000000000
000000000000
000000000000
000000000000
000000000000
000000000000
ENDCHAR

STARTCHAR kor_A3B6
ENCODING 41910
SWIDTH 1024 0
DWIDTH 48 0
BBX 48 48 0 -6
BITMAP
000000000000
000000FE0000
000003FF8000
000007FFC000
00000FCFE000
00001F87F000
00003F07F000
00003E07F000
00007E07F000
00007C07F000
0000FC03E000
0000FC000000
0000F8000000
0001F8000000
0001F8000000
0001F0000000
0003F3FC0000
0003FFFF0000
0003FFFFC000
0003FF9FE000
0003FE07E000
0003F803F000
0003F003F000
0003F001F800
0003F001F800
0003F000F800
0003F000F800
0003F000F800
0003F000F800
0003F000F800
0001F800F800
0001F800F800
0001F801F800
0000FC01F000
0000FC03F000
00007E07E000
00007F1FC000
00003FFF8000
00001FFF0000
000007FC0000
000000000000
000000000000
000000000000
000000000000
000000000000
000000000000
000000000000
000000000000
ENDCHAR

STARTCHAR kor_A3B7
ENCODING 41911
SWIDTH 1024 0
DWIDTH 48 0
BBX 48 48 0 -6
BITMAP
000000000000
000000000000
0000FFFFF000
0000FFFFF000
0000FFFFF000
0001FFFFF000
0001FFFFF000
0001F801E000
0003E003E000
0003C003C000
00038007C000
000380078000
0003000F8000
0000000F0000
0000001F0000
0000001E0000
0000003E0000
0000003C0000
0000007C0000
000000780000
000000F80000
000000F80000
000001F00000
000001F00000
000003F00000
000003E00000
000003E00000
000007E00000
000007E00000
000007C00000
00000FC00000
00000FC00000
00000FC00000
00001FC00000
00001FC00000
00001FC00000
00001FC00000
00001FC00000
00001FC00000
00000F800000
000000000000
000000000000
000000000000
000000000000
000000000000
000000000000
000000000000
000000000000
ENDCHAR

STARTCHAR kor_A3B8
ENCODING 41912
SWIDTH 1024 0
DWIDTH 48 0
BBX 48 48 0 -6
BITMAP
000000000000
000000000000
000007F80000
00001FFE0000
00003FFF0000
00007F3F8000
0000FC0FC000
0000F807C000
0001F807E000
0001F003E000
0001F003E000
0001F003E000
0001F803E000
0001F807E000
0000FC07C000
0000FE0FC000
00007F1F8000
00003FFF0000
00001FFE0000
00000FFC0000
00000FFC0000
00003FFF0000
00007FFF8000
0000FE7FC000
0001FC1FE000
0001F80FE000
0003F007F000
0003F003F000
0003E003F000
0003E001F000
0003E001F000
0003E001F000
0003F003F000
0003F003F000
0001F807E000
0001FC0FE000
0000FE3FC000
00007FFF8000
00003FFF0000
00000FFC0000
000000000000
000000000000
000000000000
000000000000
000000000000
000000000000
000000000000
000000000000
ENDCHAR

STARTCHAR kor_A3B9
ENCODING 41913
SWIDTH 1024 0
DWIDTH 48 0
BBX 48 48 0 -6
BITMAP
000000000000
000000000000
000000000000
000007F80000
00001FFE0000
00003FFF0000
00007F3F8000
0000FC0FC000
0001F807C000
0001F807E000
0003F003E000
0003F003F000
0003F003F000
0003F003F000
0003F003F000
0003F003F000
0003F003F000
0003F003F000
0003F803F000
0003F807F000
0001FC0FF000
0001FF3FF000
0000FFFFF000
00007FFFF000
00003FFFF000
00000FF3F000
00000003F000
00000003F000
00000007E000
00000007E000
0000F807E000
0001FC0FC000
0001FC0FC000
0001FC1F8000
0001FC1F8000
0001FC3F0000
0000FEFE0000
0000FFFC0000
00007FF80000
00001FE00000
000000000000
000000000000
000000000000
000000000000
000000000000
000000000000
000000000000
000000000000
ENDCHAR

STARTCHAR kor_A3BA
ENCODING 41914
SWIDTH 1024 0
DWIDTH 48 0
BBX 48 48 0 -6
BITMAP
000000000000
000000000000
000000000000
000000000000
000000000000
000000000000
000000000000
000000000000
000000000000
000000000000
000000000000
000000000000
000000000000
000001E00000
000003F00000
000007F80000
000007F80000
000007F80000
000007F80000
000003F00000
000001E00000
000000000000
000000000000
000000000000
000000000000
000000000000
000000000000
000000000000
000000000000
000000000000
000000000000
000000000000
000001E00000
000003F00000
000007F80000
000007F80000
000007F80000
000007F80000
000003F00000
000001E00000
000000000000
000000000000
000000000000
000000000000
000000000000
000000000000
000000000000
000000000000
ENDCHAR

STARTCHAR kor_A3BB
ENCODING 41915
SWIDTH 1024 0
DWIDTH 48 0
BBX 48 48 0 -6
BITMAP
000000000000
000000000000
000000000000
000000000000
000000000000
000000000000
000000000000
000000000000
000000000000
000000000000
000000000000
000000000000
000000000000
000001E00000
000003F00000
000007F80000
000007F80000
000007F80000
000007F80000
000003F00000
000001E00000
000000000000
000000000000
000000000000
000000000000
000000000000
000000000000
000000000000
000000000000
000000000000
000000000000
000000000000
000001E00000
000003F00000
000007F80000
000007F80000
000007F80000
000007F80000
000003F80000
000000F80000
000000F80000
000001F00000
000001F00000
000003E00000
000007C00000
00000F800000
00000E000000
000000000000
ENDCHAR

STARTCHAR kor_A3BC
ENCODING 41916
SWIDTH 1024 0
DWIDTH 48 0
BBX 48 48 0 -6
BITMAP
000000000000
000000000000
000000000000
000000000000
000000000000
0000000000F0
0000000003F0
000000000FF0
000000003FF0
00000000FFC0
00000003FF00
0000000FFC00
0000003FF000
000000FFC000
000003FF0000
00000FFC0000
00003FF00000
0000FFC00000
0003FF000000
000FFC000000
003FF0000000
00FFC0000000
03FF00000000
07FC00000000
07FC00000000
03FF00000000
00FFC0000000
003FF0000000
000FFC000000
0003FF000000
0000FFC00000
00003FF00000
00000FFC0000
000003FF0000
000000FFC000
0000003FF000
0000000FFC00
00000003FF00
00000000FFC0
000000003FF0
000000000FF0
0000000003F0
0000000000F0
000000000000
000000000000
000000000000
000000000000
000000000000
ENDCHAR

STARTCHAR kor_A3BD
ENCODING 41917
SWIDTH 1024 0
DWIDTH 48 0
BBX 48 48 0 -6
BITMAP
000000000000
000000000000
000000000000
000000000000
000000000000
000000000000
000000000000
000000000000
000000000000
000000000000
000000000000
000000000000
000000000000
000000000000
000000000000
000000000000
0FFFFFFFFFF8
0FFFFFFFFFF8
0FFFFFFFFFF8
0FFFFFFFFFF8
000000000000
000000000000
000000000000
000000000000
000000000000
000000000000
0FFFFFFFFFF8
0FFFFFFFFFF8
0FFFFFFFFFF8
0FFFFFFFFFF8
000000000000
000000000000
000000000000
000000000000
000000000000
000000000000
000000000000
000000000000
000000000000
000000000000
000000000000
000000000000
000000000000
000000000000
000000000000
000000000000
000000000000
000000000000
ENDCHAR

STARTCHAR kor_A3BE
ENCODING 41918
SWIDTH 1024 0
DWIDTH 48 0
BBX 48 48 0 -6
BITMAP
000000000000
000000000000
000000000000
000000000000
000000000000
078000000000
07E000000000
07F800000000
07FE00000000
01FF80000000
007FE0000000
001FF8000000
0007FE000000
0001FF800000
00007FE00000
00001FF80000
000007FE0000
000001FF8000
0000007FE000
0000001FF800
00000007FE00
00000001FF80
000000007FE0
000000001FF0
000000001FF0
000000007FE0
00000001FF80
00000007FE00
0000001FF800
0000007FE000
000001FF8000
000007FE0000
00001FF80000
00007FE00000
0001FF800000
0007FE000000
001FF8000000
007FE0000000
01FF80000000
07FE00000000
07F800000000
07E000000000
078000000000
000000000000
000000000000
000000000000
000000000000
000000000000
ENDCHAR

STARTCHAR kor_A3BF
ENCODING 41919
SWIDTH 1024 0
DWIDTH 48 0
BBX 48 48 0 -6
BITMAP
000000000000
000000000000
000007F80000
00003FFE0000
00007FFF8000
0000FE3FC000
0001F80FE000
0001F007E000
0003F007F000
0003F803F000
0003F803F000
0003F803F000
0003F807F000
0003F807F000
0001F007F000
0000000FE000
0000000FE000
0000001FC000
0000003F8000
0000007F0000
000000FE0000
000000FC0000
000001F80000
000001F00000
000001F00000
000003E00000
000003E00000
000003C00000
000003C00000
000003C00000
000003800000
000003800000
000003800000
000000000000
000000000000
000003C00000
000007E00000
00000FF00000
00000FF00000
00000FF00000
00000FF00000
000007E00000
000003C00000
000000000000
000000000000
000000000000
000000000000
000000000000
ENDCHAR

STARTCHAR kor_A3C0
ENCODING 41920
SWIDTH 1024 0
DWIDTH 48 0
BBX 48 48 0 -6
BITMAP
000000000000
000000000000
000000000000
000000000000
000000000000
000001FF0000
00000FFFE000
00003FFFF800
0000FF83FC00
0001FC007E00
0003F0001F00
0007C0000F80
000F80000780
001F000003C0
003E00FC7BC0
003C03FF79E0
007807FFF9E0
00780FEFF8E0
00701F83F8E0
00F03F01F0E0
00F03E01F0E0
00E07E03F0E0
00E07C03E1E0
00E0FC03E1E0
00E0F807E1C0
00E0F807C3C0
00E0F80FC3C0
00F0F81FC780
00F0FC7F8F80
00707FFFFF00
00787FFFFE00
00783FE7FC00
003C0F83F0E0
003E000001E0
001F000003E0
000F800007C0
0007C0001F80
0003F0007F00
0001FE03FE00
0000FFFFF800
00003FFFE000
000007FF0000
000000000000
000000000000
000000000000
000000000000
000000000000
000000000000
ENDCHAR

STARTCHAR kor_A3C1
ENCODING 41921
SWIDTH 1024 0
DWIDTH 48 0
BBX 48 48 0 -6
BITMAP
000000000000
000000700000
000001F00000
000003F80000
000003F80000
000007F80000
000007FC0000
000007FC0000
00000FFC0000
00000FFE0000
00000FFE0000
00001E7E0000
00001E7F0000
00001E7F0000
00003C3F0000
00003C3F8000
00003C3F8000
0000781F8000
0000781FC000
0000781FC000
0000F00FC000
0000F00FE000
0000F00FE000
0001E007E000
0001FFFFF000
0001FFFFF000
0003FFFFF000
0003C003F800
0003C003F800
00078001F800
00078001FC00
00078001FC00
000F0000FC00
000F0000FE00
000F0000FE00
001E00007F00
003F0000FF80
01FFE007FFF0
01FFE007FFF0
01FFE007FFF0
000000000000
000000000000
000000000000
000000000000
000000000000
000000000000
000000000000
000000000000
ENDCHAR

STARTCHAR kor_A3C2
ENCODING 41922
SWIDTH 1024 0
DWIDTH 48 0
BBX 48 48 0 -6
BITMAP
000000000000
00FFFFFF0000
00FFFFFFE000
00FFFFFFF800
000FF03FFC00
0007E007FE00
0007E001FE00
0007E000FF00
0007E000FF00
0007E0007F00
0007E0007F00
0007E0007F00
0007E000FF00
0007E000FE00
0007E001FE00
0007E003FC00
0007E00FF800
0007FFFFF000
0007FFFFC000
0007FFFFF000
0007E03FFC00
0007E007FE00
0007E001FF00
0007E000FF80
0007E0007F80
0007E0003FC0
0007E0003FC0
0007E0001FC0
0007E0001FC0
0007E0001FC0
0007E0001FC0
0007E0003FC0
0007E0003F80
0007E0007F80
0007E000FF00
0007E003FE00
000FF01FFC00
00FFFFFFF800
00FFFFFFE000
00FFFFFF0000
000000000000
000000000000
000000000000
000000000000
000000000000
000000000000
000000000000
000000000000
ENDCHAR

STARTCHAR kor_A3C3
ENCODING 41923
SWIDTH 1024 0
DWIDTH 48 0
BBX 48 48 0 -6
BITMAP
000000000000
000003FE1C00
00001FFFFC00
00007FFFFC00
0000FF07FE00
0001FC01FE00
0003F8007E00
0007F0003F00
000FE0001F00
000FC0000F00
001FC0000780
001F80000780
003F80000380
003F80000380
003F00000000
007F00000000
007F00000000
007F00000000
007F00000000
007F00000000
007F00000000
007F00000000
007F00000000
007F00000000
007F00000000
007F00000000
007F00000000
003F800001C0
003F800001C0
003F800003C0
001FC00003C0
001FC0000780
000FE0000780
000FF0000F00
0007F8001F00
0003FC007E00
0001FF03FC00
0000FFFFF800
00007FFFF000
00001FFFC000
000003FE0000
000000000000
000000000000
000000000000
000000000000
000000000000
000000000000
000000000000
ENDCHAR

STARTCHAR kor_A3C4
ENCODING 41924
SWIDTH 1024 0
DWIDTH 48 0
BBX 48 48 0 -6
BITMAP
000000000000
01FFFFFC0000
01FFFFFF8000
01FFFFFFE000
001FE03FF800
000FC007FC00
000FC001FE00
000FC000FF00
000FC0007F00
000FC0003F80
000FC0003FC0
000FC0001FC0
000FC0001FE0
000FC0000FE0
000FC0000FE0
000FC0000FF0
000FC00007F0
000FC00007F0
000FC00007F0
000FC00007F0
000FC00007F0
000FC00007F0
000FC00007F0
000FC00007F0
000FC0000FF0
000FC0000FE0
000FC0000FE0
000FC0001FE0
000FC0001FC0
000FC0003FC0
000FC0003F80
000FC0007F00
000FC000FF00
000FC001FE00
000FC003FC00
000FC00FF800
001FE07FF000
01FFFFFFC000
01FFFFFF0000
01FFFFF80000
000000000000
000000000000
000000000000
000000000000
000000000000
000000000000
000000000000
000000000000
ENDCHAR

STARTCHAR kor_A3C5
ENCODING 41925
SWIDTH 1024 0
DWIDTH 48 0
BBX 48 48 0 -6
BITMAP
000000000000
007FFFFFFE00
007FFFFFFE00
007FFFFFFF00
0007F801FF00
0003F0007F80
0003F0001F80
0003F0000FC0
0003F00007C0
0003F00003C0
0003F00001C0
0003F00000C0
0003F001C000
0003F001C000
0003F001C000
0003F003C000
0003F003C000
0003F007C000
0003FFFFC000
0003FFFFC000
0003FFFFC000
0003F007C000
0003F003C000
0003F003C000
0003F001C000
0003F001C000
0003F001C000
0003F0000000
0003F0000000
0003F0000060
0003F00000E0
0003F00001E0
0003F00003E0
0003F00007C0
0003F0000FC0
0003F0003F80
0007F800FF80
007FFFFFFF80
007FFFFFFF00
007FFFFFFF00
000000000000
000000000000
000000000000
000000000000
000000000000
000000000000
000000000000
000000000000
ENDCHAR

STARTCHAR kor_A3C6
ENCODING 41926
SWIDTH 1024 0
DWIDTH 48 0
BBX 48 48 0 -6
BITMAP
000000000000
000000000000
007FFFFFFF00
007FFFFFFF00
007FFFFFFF00
0007F800FF80
0003F0003F80
0003F0000F80
0003F00007C0
0003F00003C0
0003F00001C0
0003F00000C0
0003F0038000
0003F0038000
0003F0038000
0003F0078000
0003F0078000
0003F00F8000
0003FFFF8000
0003FFFF8000
0003FFFF8000
0003FFFF8000
0003F00F8000
0003F0078000
0003F0078000
0003F0078000
0003F0038000
0003F0038000
0003F0038000
0003F0000000
0003F0000000
0003F0000000
0003F0000000
0003F0000000
0003F0000000
0003F0000000
0007F8000000
00FFFFE00000
00FFFFE00000
00FFFFE00000
000000000000
000000000000
000000000000
000000000000
000000000000
000000000000
000000000000
000000000000
ENDCHAR

STARTCHAR kor_A3C7
ENCODING 41927
SWIDTH 1024 0
DWIDTH 48 0
BBX 48 48 0 -6
BITMAP
000000000000
00001FFC0000
00007FFF1800
0001FFFFF800
0003FC1FFC00
0007F003FC00
000FE000FE00
001FC0007E00
001F80003F00
003F80001F00
003F00000F00
007F00000780
007E00000780
00FE00000380
00FE00000000
00FC00000000
01FC00000000
01FC00000000
01FC00000000
01FC00000000
01FC00000000
01FC00000000
01FC001FFFF8
01FC001FFFF8
01FC001FFFF8
01FC0000FF00
01FC00007E00
00FE00007E00
00FE00007E00
00FE00007E00
007F00007E00
007F00007E00
007F80007E00
003F8000FE00
003FC000FE00
001FE001FE00
000FF003F800
0007FC0FF000
0003FFFFE000
0000FFFF8000
00001FFE0000
000000000000
000000000000
000000000000
000000000000
000000000000
000000000000
000000000000
ENDCHAR

STARTCHAR kor_A3C8
ENCODING 41928
SWIDTH 1024 0
DWIDTH 48 0
BBX 48 48 0 -6
BITMAP
000000000000
07FFF80FFFF0
07FFF80FFFF0
07FFF80FFFF0
007F8000FF00
003F00007E00
003F00007E00
003F00007E00
003F00007E00
003F00007E00
003F00007E00
003F00007E00
003F00007E00
003F00007E00
003F00007E00
003F00007E00
003F00007E00
003F00007E00
003F00007E00
003FFFFFFE00
003FFFFFFE00
003FFFFFFE00
003F00007E00
003F00007E00
003F00007E00
003F00007E00
003F00007E00
003F00007E00
003F00007E00
003F00007E00
003F00007E00
003F00007E00
003F00007E00
003F00007E00
003F00007E00
003F00007E00
007F8000FF00
07FFF80FFFF0
07FFF80FFFF0
07FFF80FFFF0
000000000000
000000000000
000000000000
000000000000
000000000000
000000000000
000000000000
000000000000
ENDCHAR

STARTCHAR kor_A3C9
ENCODING 41929
SWIDTH 1024 0
DWIDTH 48 0
BBX 48 48 0 -6
BITMAP
000000000000
00007FFF8000
00007FFF8000
00007FFF8000
000007F80000
000003F00000
000003F00000
000003F00000
000003F00000
000003F00000
000003F00000
000003F00000
000003F00000
000003F00000
000003F00000
000003F00000
000003F00000
000003F00000
000003F00000
000003F00000
000003F00000
000003F00000
000003F00000
000003F00000
000003F00000
000003F00000
000003F00000
000003F00000
000003F00000
000003F00000
000003F00000
000003F00000
000003F00000
000003F00000
000003F00000
000003F00000
000007F80000
00007FFF8000
00007FFF8000
00007FFF8000
000000000000
000000000000
000000000000
000000000000
000000000000
000000000000
000000000000
000000000000
ENDCHAR

STARTCHAR kor_A3CA
ENCODING 41930
SWIDTH 1024 0
DWIDTH 48 0
BBX 48 48 0 -6
BITMAP
000000000000
00003FFFC000
00003FFFC000
00003FFFC000
000003FC0000
000001F80000
000001F80000
000001F80000
000001F80000
000001F80000
000001F80000
000001F80000
000001F80000
000001F80000
000001F80000
000001F80000
000001F80000
000001F80000
000001F80000
000001F80000
000001F80000
000001F80000
000001F80000
000001F80000
000001F80000
000001F80000
000001F80000
000001F80000
000001F80000
000001F80000
000001F80000
000001F80000
000001F80000
000001F80000
000001F80000
000001F80000
000001F80000
0003C1F80000
0007E3F00000
000FE3F00000
000FE3F00000
000FE7E00000
000FFFE00000
0007FFC00000
0003FF800000
0000FE000000
000000000000
000000000000
ENDCHAR

STARTCHAR kor_A3CB
ENCODING 41931
SWIDTH 1024 0
DWIDTH 48 0
BBX 48 48 0 -6
BITMAP
000000000000
03FFFE1FFFE0
03FFFE1FFFE0
03FFFE1FFFE0
003FC001FE00
001F8001F800
001F8003E000
001F8007C000
001F800F8000
001F801F0000
001F803E0000
001F807C0000
001F80F80000
001F81F00000
001F83E00000
001F87E00000
001F8FE00000
001F9FF00000
001FBFF80000
001FFFF80000
001FF9FC0000
001FF1FE0000
001FE0FE0000
001FC07F0000
001F807F8000
001F803F8000
001F801FC000
001F801FE000
001F800FE000
001F8007F000
001F8007F800
001F8003F800
001F8001FC00
001F8001FE00
001F8000FF00
001F8000FF80
003FC000FFC0
03FFFE1FFFFC
03FFFE1FFFFC
03FFFE1FFFFC
000000000000
000000000000
000000000000
000000000000
000000000000
000000000000
000000000000
000000000000
ENDCHAR

STARTCHAR kor_A3CC
ENCODING 41932
SWIDTH 1024 0
DWIDTH 48 0
BBX 48 48 0 -6
BITMAP
000000000000
00FFFFC00000
00FFFFC00000
00FFFFC00000
0007F8000000
0003F0000000
0003F0000000
0003F0000000
0003F0000000
0003F0000000
0003F0000000
0003F0000000
0003F0000000
0003F0000000
0003F0000000
0003F0000000
0003F0000000
0003F0000000
0003F0000000
0003F0000000
0003F0000000
0003F0000000
0003F0000000
0003F0000000
0003F0000000
0003F0000000
0003F0000000
0003F0000000
0003F0000180
0003F0000380
0003F0000780
0003F0000F80
0003F0001F00
0003F0003F00
0003F0007F00
0007F801FE00
007FFFFFFE00
007FFFFFFC00
007FFFFFFC00
000000000000
000000000000
000000000000
000000000000
000000000000
000000000000
000000000000
000000000000
000000000000
ENDCHAR

STARTCHAR kor_A3CD
ENCODING 41933
SWIDTH 1024 0
DWIDTH 48 0
BBX 48 48 0 -6
BITMAP
000000000000
3FFE00000FFF
3FFF00001FFF
3FFF00001FFF
03FF00001FF0
01FF80003FE0
01FF80003FE0
01FF80003FE0
01DFC0007FE0
01DFC0007FE0
01DFC0007FE0
01CFE000F7E0
01CFE000F7E0
01CFE000F7E0
01C7F001E7E0
01C7F001E7E0
01C7F001E7E0
01C3F803C7E0
01C3F803C7E0
01C3F803C7E0
01C1FC0787E0
01C1FC0787E0
01C1FC0787E0
01C0FE0F07E0
01C0FE0F07E0
01C0FE0F07E0
01C07F1E07E0
01C07F1E07E0
01C07F1E07E0
01C03FBC07E0
01C03FBC07E0
01C03FBC07E0
01C01FF807E0
01C01FF807E0
01C01FF807E0
01C00FF007E0
03E00FF00FF0
3FFE0FF0FFFF
3FFE07E0FFFF
3FFE07E0FFFF
000000000000
000000000000
000000000000
000000000000
000000000000
000000000000
000000000000
000000000000
ENDCHAR

STARTCHAR kor_A3CE
ENCODING 41934
SWIDTH 1024 0
DWIDTH 48 0
BBX 48 48 0 -6
BITMAP
000000000000
03FF8001FFF0
03FFC001FFF0
03FFE001FFF0
003FE0001F00
001FF0000E00
001FF8000E00
001FF8000E00
001FFC000E00
001DFE000E00
001CFE000E00
001CFF000E00
001C7F800E00
001C3F800E00
001C3FC00E00
001C1FE00E00
001C0FE00E00
001C0FF00E00
001C07F80E00
001C03F80E00
001C03FC0E00
001C01FE0E00
001C00FE0E00
001C00FF0E00
001C007F8E00
001C003F8E00
001C003FCE00
001C001FEE00
001C000FEE00
001C000FFE00
001C0007FE00
001C0003FE00
001C0003FE00
001C0001FE00
001C0000FE00
001C0000FE00
003E00007E00
03FFF0003E00
03FFF0003E00
03FFF0001E00
000000000000
000000000000
000000000000
000000000000
000000000000
000000000000
000000000000
000000000000
ENDCHAR

STARTCHAR kor_A3CF
ENCODING 41935
SWIDTH 1024 0
DWIDTH 48 0
BBX 48 48 0 -6
BITMAP
000000000000
00000FFE0000
00007FFFC000
0001FFFFF000
0003FE0FF800
0007F803FC00
000FF001FE00
001FE000FF00
001FC0007F00
003FC0007F80
003F80003F80
007F80003FC0
007F00001FC0
007F00001FC0
00FF00001FE0
00FE00000FE0
00FE00000FE0
00FE00000FE0
00FE00000FE0
00FE00000FE0
00FE00000FE0
00FE00000FE0
00FE00000FE0
00FE00000FE0
00FE00000FE0
00FE00000FE0
00FE00000FE0
00FF00001FE0
007F00001FC0
007F00001FC0
007F80003FC0
003F80003F80
003FC0007F80
001FC0007F00
001FE000FF00
000FF001FE00
0007F807FC00
0003FE1FF800
0001FFFFF000
00007FFFC000
00000FFE0000
000000000000
000000000000
000000000000
000000000000
000000000000
000000000000
000000000000
ENDCHAR

STARTCHAR kor_A3D0
ENCODING 41936
SWIDTH 1024 0
DWIDTH 48 0
BBX 48 48 0 -6
BITMAP
000000000000
003FFFFF8000
003FFFFFF000
003FFFFFFC00
0003FC1FFE00
0001F803FF00
0001F800FF80
0001F8007F80
0001F8003FC0
0001F8003FC0
0001F8001FC0
0001F8001FC0
0001F8001FC0
0001F8001FC0
0001F8003FC0
0001F8003FC0
0001F8007F80
0001F800FF80
0001F803FF00
0001F81FFE00
0001FFFFF800
0001FFFFE000
0001FFFF0000
0001F8000000
0001F8000000
0001F8000000
0001F8000000
0001F8000000
0001F8000000
0001F8000000
0001F8000000
0001F8000000
0001F8000000
0001F8000000
0001F8000000
0001F8000000
0003FC000000
003FFFC00000
003FFFC00000
003FFFC00000
000000000000
000000000000
000000000000
000000000000
000000000000
000000000000
000000000000
000000000000
ENDCHAR

STARTCHAR kor_A3D1
ENCODING 41937
SWIDTH 1024 0
DWIDTH 48 0
BBX 48 48 0 -6
BITMAP
000000000000
00000FFE0000
00007FFFC000
0001FFFFF000
0003FE0FF800
0007F803FC00
000FF001FE00
001FE000FF00
001FC0007F00
003FC0007F80
003F80003F80
007F80003FC0
007F00001FC0
007F00001FC0
00FF00001FE0
00FE00000FE0
00FE00000FE0
00FE00000FE0
00FE00000FE0
00FE00000FE0
00FE00000FE0
00FE00000FE0
00FE00000FE0
00FE00000FE0
00FE00000FE0
00FE00000FE0
00FE00000FE0
00FF00001FE0
007F1FE01FC0
007F7FF81FC0
007FFFFC3FC0
003FFFFE3F80
003FF0FE7F80
001FE03F7F00
001FE01FFF00
000FF01FFE00
0007F80FFC00
0003FE1FF830
0001FFFFF070
00007FFFE0F0
00000FFFE1F0
00000007F7E0
00000007FFE0
00000003FFC0
00000003FF80
00000001FF00
000000007C00
000000000000
ENDCHAR

STARTCHAR kor_A3D2
ENCODING 41938
SWIDTH 1024 0
DWIDTH 48 0
BBX 48 48 0 -6
BITMAP
000000000000
00FFFFFF0000
00FFFFFFE000
00FFFFFFF800
000FF07FFC00
0007E00FFE00
0007E003FE00
0007E001FF00
0007E000FF00
0007E000FF00
0007E0007F00
0007E0007F00
0007E0007F00
0007E000FF00
0007E000FF00
0007E001FE00
0007E003FE00
0007E00FFC00
0007E07FF800
0007FFFFF000
0007FFFFC000
0007FFFF0000
0007E07F8000
0007E03F8000
0007E03FC000
0007E01FC000
0007E01FE000
0007E00FE000
0007E00FF000
0007E007F000
0007E007F800
0007E003F800
0007E003FC00
0007E001FE00
0007E001FF00
0007E000FFC0
000FF000FFF0
00FFFF007FF0
00FFFF003FF0
00FFFF000000
000000000000
000000000000
000000000000
000000000000
000000000000
000000000000
000000000000
000000000000
ENDCHAR

STARTCHAR kor_A3D3
ENCODING 41939
SWIDTH 1024 0
DWIDTH 48 0
BBX 48 48 0 -6
BITMAP
000000000000
00000FF0E000
00007FFFE000
0001FFFFF000
0003FC3FF000
0007F00FF000
000FE003F800
000FC001F800
001FC000F800
001F80007C00
001F80003C00
001FC0003C00
001FC0001C00
001FE0000000
000FF0000000
000FFC000000
0007FF800000
0003FFF00000
0001FFFE0000
0000FFFF8000
00003FFFE000
00000FFFF000
000001FFF800
0000003FFC00
00000007FC00
00000001FE00
00000000FE00
00000000FE00
000000007E00
003800007E00
003C00007E00
003E00007E00
003F0000FE00
001F8000FC00
001FC001FC00
000FE003F800
000FF807F800
0007FE1FF000
0007FFFFE000
0003FFFF8000
000387FE0000
000000000000
000000000000
000000000000
000000000000
000000000000
000000000000
000000000000
ENDCHAR

STARTCHAR kor_A3D4
ENCODING 41940
SWIDTH 1024 0
DWIDTH 48 0
BBX 48 48 0 -6
BITMAP
000000000000
007FFFFFFF80
007FFFFFFF80
00FFFFFFFFC0
00FF87F87FC0
00FE03F01FC0
01FC03F00FE0
01F803F007E0
01F003F003E0
03E003F001F0
03C003F000F0
038003F00070
030003F00030
000003F00000
000003F00000
000003F00000
000003F00000
000003F00000
000003F00000
000003F00000
000003F00000
000003F00000
000003F00000
000003F00000
000003F00000
000003F00000
000003F00000
000003F00000
000003F00000
000003F00000
000003F00000
000003F00000
000003F00000
000003F00000
000003F00000
000003F00000
000007F80000
0000FFFFC000
0000FFFFC000
0000FFFFC000
000000000000
000000000000
000000000000
000000000000
000000000000
000000000000
000000000000
000000000000
ENDCHAR

STARTCHAR kor_A3D5
ENCODING 41941
SWIDTH 1024 0
DWIDTH 48 0
BBX 48 48 0 -6
BITMAP
000000000000
07FFFE01FFFC
07FFFE01FFFC
07FFFE01FFFC
003FC0000F80
001F80000700
001F80000700
001F80000700
001F80000700
001F80000700
001F80000700
001F80000700
001F80000700
001F80000700
001F80000700
001F80000700
001F80000700
001F80000700
001F80000700
001F80000700
001F80000700
001F80000700
001F80000700
001F80000700
001F80000700
001F80000700
001F80000700
001F80000700
001F80000700
001F80000700
001FC0000F00
001FC0000F00
000FC0001E00
000FE0001E00
0007E0003C00
0007F0007C00
0003F801F800
0001FE0FF000
0000FFFFE000
00003FFF8000
000007FC0000
000000000000
000000000000
000000000000
000000000000
000000000000
000000000000
000000000000
ENDCHAR

STARTCHAR kor_A3D6
ENCODING 41942
SWIDTH 1024 0
DWIDTH 48 0
BBX 48 48 0 -6
BITMAP
000000000000
03FFFE03FFF0
03FFFE03FFF0
03FFFE03FFF0
007FE0007F80
003FC0003E00
001FC0003C00
000FE0003C00
000FE0007800
0007E0007800
0007F0007800
0007F000F000
0003F000F000
0003F800F000
0003F801E000
0001F801E000
0001FC01E000
0001FC03C000
0000FC03C000
0000FE03C000
0000FE078000
00007E078000
00007F078000
00007F0F0000
00003F0F0000
00003F8F0000
00003F9E0000
00001F9E0000
00001FDE0000
00001FFC0000
00000FFC0000
00000FFC0000
00000FF80000
000007F80000
000007F80000
000007F00000
000003F00000
000003F00000
000003E00000
000001E00000
000000000000
000000000000
000000000000
000000000000
000000000000
000000000000
000000000000
000000000000
ENDCHAR

STARTCHAR kor_A3D7
ENCODING 41943
SWIDTH 1024 0
DWIDTH 48 0
BBX 48 48 0 -6
BITMAP
000000000000
7FF81FFE07FF
7FF81FFE07FF
7FF81FFE07FF
1FE007F801FC
0FC003F000F8
0FE003F800F0
07E003F800F0
07E007F801E0
07E007F801E0
07F007FC01E0
03F007FC01E0
03F00FFC03C0
03F00FFC03C0
03F80FFE03C0
01F80F7E03C0
01F81E7E0780
01F81E7E0780
01FC1E7F0780
00FC1E3F0780
00FC3C3F0F00
00FC3C3F0F00
00FE3C3F8F00
007E3C1F8F00
007E781F9E00
007E781F9E00
007F781FDE00
003F780FDE00
003FF00FFC00
003FF00FFC00
003FF00FFC00
001FF007FC00
001FE007F800
001FE007F800
001FE007F800
000FE003F800
000FC003F000
000FC003F000
000FC003F000
0007C001E000
00078001E000
000000000000
000000000000
000000000000
000000000000
000000000000
000000000000
000000000000
ENDCHAR

STARTCHAR kor_A3D8
ENCODING 41944
SWIDTH 1024 0
DWIDTH 48 0
BBX 48 48 0 -6
BITMAP
000000000000
01FFFE07FFF0
01FFFE07FFF0
01FFFE07FFF0
003FF000FF80
001FE0007E00
000FF000F800
0007F800F000
0003F801F000
0003FC03E000
0001FE03C000
0000FE07C000
0000FF0F8000
00007F8F0000
00003F9E0000
00003FFE0000
00001FFC0000
00000FF80000
00000FF00000
000007F80000
000003FC0000
000007FC0000
000007FE0000
00000FFF0000
00001F7F8000
00003E7F8000
00003C3FC000
0000781FE000
0000F81FE000
0001F00FF000
0001E007F800
0003C007F800
0007C003FC00
000F8001FE00
001F0001FF00
007F0001FFC0
03FFE00FFFF8
03FFE00FFFF8
03FFE00FFFF8
000000000000
000000000000
000000000000
000000000000
000000000000
000000000000
000000000000
000000000000
000000000000
ENDCHAR

STARTCHAR kor_A3D9
ENCODING 41945
SWIDTH 1024 0
DWIDTH 48 0
BBX 48 48 0 -6
BITMAP
000000000000
1FFFFC00FFFE
1FFFFC00FFFE
1FFFFC00FFFE
01FFC0000FE0
007F80000F80
003FC0001F00
001FC0001E00
000FE0003C00
000FF0007800
0007F8007800
0003F800F000
0003FC01E000
0001FE01E000
0000FE03C000
00007F078000
00007F878000
00003F8F0000
00001FDE0000
00001FFE0000
00000FFC0000
000007F80000
000007F80000
000003F00000
000003F00000
000003F00000
000003F00000
000003F00000
000003F00000
000003F00000
000003F00000
000003F00000
000003F00000
000003F00000
000003F00000
000003F00000
000007F80000
0000FFFFC000
0000FFFFC000
0000FFFFC000
000000000000
000000000000
000000000000
000000000000
000000000000
000000000000
000000000000
000000000000
ENDCHAR

STARTCHAR kor_A3DA
ENCODING 41946
SWIDTH 1024 0
DWIDTH 48 0
BBX 48 48 0 -6
BITMAP
000000000000
0003FFFFFF00
0003FFFFFF00
0003FFFFFF00
0007FC01FE00
0007F001FC00
0007E003FC00
000FC007F800
000F8007F000
000F000FF000
000E001FE000
000E001FC000
000C003FC000
0000007F8000
0000007F0000
000000FF0000
000001FE0000
000001FC0000
000003FC0000
000007F80000
000007F00000
00000FF00000
00001FE00000
00001FC00000
00003FC00000
00007F800000
00007F000000
0000FF000000
0001FE000600
0001FC000E00
0003FC000E00
0007F8001E00
0007F0003E00
000FF0007E00
001FE000FC00
001FC001FC00
003FC007FC00
003FFFFFF800
003FFFFFF800
003FFFFFF800
000000000000
000000000000
000000000000
000000000000
000000000000
000000000000
000000000000
000000000000
ENDCHAR

STARTCHAR kor_A3DB
ENCODING 41947
SWIDTH 1024 0
DWIDTH 48 0
BBX 48 48 0 -6
BITMAP
00000001FFF8
00000001FFF8
00000001FFF8
00000001F800
00000001F800
00000001F800
00000001F800
00000001F800
00000001F800
00000001F800
00000001F800
00000001F800
00000001F800
00000001F800
00000001F800
00000001F800
00000001F800
00000001F800
00000001F800
00000001F800
00000001F800
00000001F800
00000001F800
00000001F800
00000001F800
00000001F800
00000001F800
00000001F800
00000001F800
00000001F800
00000001F800
00000001F800
00000001F800
00000001F800
00000001F800
00000001F800
00000001F800
00000001F800
00000001F800
00000001F800
00000001F800
00000001F800
00000001F800
00000001F800
00000001FFF8
00000001FFF8
00000001FFF8
000000000000
ENDCHAR

STARTCHAR kor_A3DC
ENCODING 41948
SWIDTH 1024 0
DWIDTH 48 0
BBX 48 48 0 -6
BITMAP
000000000000
000000000000
000000000000
7FFC1FFF07FF
7FFC1FFF07FF
7FFC1FFF07FF
1FF007FC01FC
0FE003F800F8
0FE003F800F0
0FE003F800E0
07E007F801E0
07E007F801E0
07F007FC01E0
03F00FFC01C0
03F00FFC03C0
03F00FFC03C0
7FFFFFFFFFFF
7FFFFFFFFFFF
7FFFFFFFFFFF
01F81E7E0780
01FC1C7F0780
00FC3C3F0700
00FC3C3F0F00
00FC3C3F0F00
00FE383F8F00
7FFFFFFFFFFF
7FFFFFFFFFFF
7FFFFFFFFFFF
007F781FDE00
003F700FDC00
003FF00FFC00
003FF00FFC00
003FF00FFC00
001FE007F800
001FE007F800
001FE007F800
001FE007F800
000FC003F000
000FC003F000
000FC003F000
000F8003E000
00078001E000
00078001E000
000000000000
000000000000
000000000000
000000000000
000000000000
ENDCHAR

STARTCHAR kor_A3DD
ENCODING 41949
SWIDTH 1024 0
DWIDTH 48 0
BBX 48 48 0 -6
BITMAP
0FFFC0000000
0FFFC0000000
0FFFC0000000
000FC0000000
000FC0000000
000FC0000000
000FC0000000
000FC0000000
000FC0000000
000FC0000000
000FC0000000
000FC0000000
000FC0000000
000FC0000000
000FC0000000
000FC0000000
000FC0000000
000FC0000000
000FC0000000
000FC0000000
000FC0000000
000FC0000000
000FC0000000
000FC0000000
000FC0000000
000FC0000000
000FC0000000
000FC0000000
000FC0000000
000FC0000000
000FC0000000
000FC0000000
000FC0000000
000FC0000000
000FC0000000
000FC0000000
000FC0000000
000FC0000000
000FC0000000
000FC0000000
000FC0000000
000FC0000000
000FC0000000
000FC0000000
0FFFC0000000
0FFFC0000000
0FFFC0000000
000000000000
ENDCHAR

STARTCHAR kor_A3DE
ENCODING 41950
SWIDTH 1024 0
DWIDTH 48 0
BBX 48 48 0 -6
BITMAP
000000000000
000000000000
000000000000
000001F00000
000003F80000
000007FC0000
00000FFE0000
00001FFF0000
00003FFF8000
00007FBFC000
0000FE0FE000
0001F803F000
0003E000F800
000380003800
000000000000
000000000000
000000000000
000000000000
000000000000
000000000000
000000000000
000000000000
000000000000
000000000000
000000000000
000000000000
000000000000
000000000000
000000000000
000000000000
000000000000
000000000000
000000000000
000000000000
000000000000
000000000000
000000000000
000000000000
000000000000
000000000000
000000000000
000000000000
000000000000
000000000000
000000000000
000000000000
000000000000
000000000000
ENDCHAR

STARTCHAR kor_A3DF
ENCODING 41951
SWIDTH 1024 0
DWIDTH 48 0
BBX 48 48 0 -6
BITMAP
000000000000
000000000000
000000000000
000000000000
000000000000
000000000000
000000000000
000000000000
000000000000
000000000000
000000000000
000000000000
000000000000
000000000000
000000000000
000000000000
000000000000
000000000000
000000000000
000000000000
000000000000
000000000000
000000000000
000000000000
000000000000
000000000000
000000000000
000000000000
000000000000
000000000000
000000000000
000000000000
000000000000
000000000000
000000000000
000000000000
000000000000
000000000000
000000000000
000000000000
000000000000
000000000000
7FFFFFFFFFFF
7FFFFFFFFFFF
7FFFFFFFFFFF
7FFFFFFFFFFF
000000000000
000000000000
ENDCHAR

STARTCHAR kor_A3E0
ENCODING 41952
SWIDTH 1024 0
DWIDTH 48 0
BBX 48 48 0 -6
BITMAP
000000000000
000000000000
000000000000
07C000000000
0FE000000000
0FE000000000
0FF000000000
0FF000000000
0FF800000000
07F800000000
07FC00000000
03FC00000000
01FE00000000
00FE00000000
007F00000000
003F00000000
001F80000000
000F80000000
0007C0000000
0003C0000000
0001C0000000
0000C0000000
000000000000
000000000000
000000000000
000000000000
000000000000
000000000000
000000000000
000000000000
000000000000
000000000000
000000000000
000000000000
000000000000
000000000000
000000000000
000000000000
000000000000
000000000000
000000000000
000000000000
000000000000
000000000000
000000000000
000000000000
000000000000
000000000000
ENDCHAR

STARTCHAR kor_A3E1
ENCODING 41953
SWIDTH 1024 0
DWIDTH 48 0
BBX 48 48 0 -6
BITMAP
000000000000
000000000000
000000000000
000000000000
000000000000
000000000000
000000000000
000000000000
000000000000
000000000000
000000000000
000000000000
000000000000
000000000000
00007FF00000
0001FFFC0000
0003FFFE0000
0003F8FF0000
0007F03F0000
0007F01F8000
0007F01F8000
0007F00F8000
0003E00F8000
0000001F8000
000003FF8000
00001FFF8000
00007FFF8000
0001FFCF8000
0003FE0F8000
0007F80F8000
0007F00F8000
000FE00F8000
000FE01F8000
000FC01F8000
000FC03F8000
000FC0FFF800
000FE3FFF800
0007FFFFF800
0007FFEFF800
0003FFC7F000
0000FF03E000
000000000000
000000000000
000000000000
000000000000
000000000000
000000000000
000000000000
ENDCHAR

STARTCHAR kor_A3E2
ENCODING 41954
SWIDTH 1024 0
DWIDTH 48 0
BBX 48 48 0 -6
BITMAP
000000000000
0000F0000000
0001F0000000
0003F0000000
000FF0000000
003FF0000000
003FF0000000
003FF0000000
0001F0000000
0001F0000000
0001F0000000
0001F0000000
0001F0000000
0001F0000000
0001F0000000
0001F1FF0000
0001F7FFC000
0001FFFFE000
0001FF8FF000
0001FE03F000
0001FC01F800
0001F801F800
0001F000FC00
0001F000FC00
0001F000FC00
0001F000FC00
0001F000FC00
0001F000FC00
0001F000FC00
0001F000FC00
0001F000FC00
0001F000FC00
0001F001F800
0001F801F800
0001FC03F800
0001FE07F000
0001FF9FF000
0001FFFFE000
0001EFFFC000
0001C7FF0000
000181FC0000
000000000000
000000000000
000000000000
000000000000
000000000000
000000000000
000000000000
ENDCHAR

STARTCHAR kor_A3E3
ENCODING 41955
SWIDTH 1024 0
DWIDTH 48 0
BBX 48 48 0 -6
BITMAP
000000000000
000000000000
000000000000
000000000000
000000000000
000000000000
000000000000
000000000000
000000000000
000000000000
000000000000
000000000000
000000000000
000003FE0000
00000FFF8000
00003FFFC000
00007F9FE000
0000FE1FE000
0001FC0FE000
0001F80FE000
0003F80FE000
0003F00FE000
0007F007C000
0007F0000000
0007E0000000
0007E0000000
0007E0000000
0007E0000000
0007E0000000
0007E0000000
0007E0000000
0007F0000000
0003F0000000
0003F8003000
0001FC007000
0001FE00F000
0000FF83F000
00007FFFE000
00003FFFC000
00000FFF0000
000003FC0000
000000000000
000000000000
000000000000
000000000000
000000000000
000000000000
000000000000
ENDCHAR

STARTCHAR kor_A3E4
ENCODING 41956
SWIDTH 1024 0
DWIDTH 48 0
BBX 48 48 0 -6
BITMAP
000000000000
00000001E000
00000003E000
00000007E000
0000001FE000
0000007FE000
0000007FE000
0000007FE000
00000003E000
00000003E000
00000003E000
00000003E000
00000003E000
00000003E000
00000003E000
00001FE3E000
00007FFBE000
0000FFFFE000
0001FE7FE000
0003F81FE000
0003F00FE000
0007E007E000
0007E003E000
000FC003E000
000FC003E000
000FC003E000
000FC003E000
000FC003E000
000FC003E000
000FC003E000
000FC003E000
000FC003E000
000FE003E000
0007E003E000
0007F007E000
0003F80FE000
0003FE3FE000
0001FFFFF000
0000FFFFFE00
00007FFBFE00
00001FE1FE00
000000000000
000000000000
000000000000
000000000000
000000000000
000000000000
000000000000
ENDCHAR

STARTCHAR kor_A3E5
ENCODING 41957
SWIDTH 1024 0
DWIDTH 48 0
BBX 48 48 0 -6
BITMAP
000000000000
000000000000
000000000000
000000000000
000000000000
000000000000
000000000000
000000000000
000000000000
000000000000
000000000000
000000000000
000000000000
000007FC0000
00001FFF0000
00003FFF8000
00007F3FC000
0000FC0FE000
0001F807E000
0001F803F000
0003F003F000
0003F001F000
0007E001F800
0007E001F800
0007FFFFF800
0007FFFFF800
0007FFFFF800
0007E0000000
0007E0000000
0007E0000000
0007F0000000
0003F0000000
0003F8000000
0003F8003000
0001FC007000
0001FE00F000
0000FF83F000
00007FFFE000
00003FFFC000
00000FFF8000
000003FE0000
000000000000
000000000000
000000000000
000000000000
000000000000
000000000000
000000000000
ENDCHAR

STARTCHAR kor_A3E6
ENCODING 41958
SWIDTH 1024 0
DWIDTH 48 0
BBX 48 48 0 -6
BITMAP
000000000000
0000001F0000
0000007FC000
000000FFE000
000001FFF000
000003F7F000
000003E7F000
000007E7F000
000007C7F000
000007C3E000
00000FC00000
00000F800000
00000F800000
00000F800000
00000F800000
0003FFFF0000
0003FFFF0000
0003FFFF0000
00000F800000
00000F800000
00000F800000
00000F800000
00000F800000
00000F800000
00000F800000
00000F800000
00000F800000
00000F800000
00000F800000
00000F800000
00000F800000
00000F800000
00000F800000
00000F800000
00000F800000
00000F800000
00001FC00000
0001FFFC0000
0001FFFC0000
0001FFFC0000
000000000000
000000000000
000000000000
000000000000
000000000000
000000000000
000000000000
000000000000
ENDCHAR

STARTCHAR kor_A3E7
ENCODING 41959
SWIDTH 1024 0
DWIDTH 48 0
BBX 48 48 0 -6
BITMAP
000000000000
000000000000
000000000000
000000000000
000000000000
000000000000
000000000000
000000000000
000000000000
000000000000
000000000000
000000000000
00003FE07800
0000FFF9FC00
0001FFFFFC00
0003FDFFFC00
0007F07FFC00
0007E03FFC00
000FE03FF800
000FC01F8000
000FC01F8000
000FC01F8000
000FC01F8000
000FC01F8000
000FE03F8000
0007E03F0000
0007F07F0000
0003FDFE0000
0001FFFC0000
0003FFF80000
0007FFE00000
000FF0000000
000FFF800000
000FFFF80000
0007FFFF0000
0007FFFFC000
000FFFFFE000
001F80FFE000
003F000FF000
003F0003F000
003F0001F000
003F8003F000
003FC00FF000
001FF07FE000
000FFFFFC000
0003FFFF0000
00007FF80000
000000000000
ENDCHAR

STARTCHAR kor_A3E8
ENCODING 41960
SWIDTH 1024 0
DWIDTH 48 0
BBX 48 48 0 -6
BITMAP
000000000000
0000F0000000
0001F0000000
0003F0000000
000FF0000000
003FF0000000
003FF0000000
003FF0000000
0001F0000000
0001F0000000
0001F0000000
0001F0000000
0001F0000000
0001F0000000
0001F1FE0000
0001F7FF8000
0001FFFFC000
0001FF9FE000
0001FE07E000
0001FC03F000
0001F803F000
0001F001F000
0001F001F000
0001F001F000
0001F001F000
0001F001F000
0001F001F000
0001F001F000
0001F001F000
0001F001F000
0001F001F000
0001F001F000
0001F001F000
0001F001F000
0001F001F000
0001F001F000
0003F803F800
001FFF1FFF00
001FFF1FFF00
001FFF1FFF00
000000000000
000000000000
000000000000
000000000000
000000000000
000000000000
000000000000
000000000000
ENDCHAR

STARTCHAR kor_A3E9
ENCODING 41961
SWIDTH 1024 0
DWIDTH 48 0
BBX 48 48 0 -6
BITMAP
000000000000
000007C00000
00000FE00000
00000FE00000
00000FE00000
00000FE00000
00000FE00000
000007C00000
000000000000
000000000000
000000000000
000000000000
000000000000
000001E00000
000003E00000
00000FE00000
00003FE00000
00003FE00000
00003FE00000
000003E00000
000003E00000
000003E00000
000003E00000
000003E00000
000003E00000
000003E00000
000003E00000
000003E00000
000003E00000
000003E00000
000003E00000
000003E00000
000003E00000
000003E00000
000003E00000
000007F00000
00003FFE0000
00003FFE0000
00003FFE0000
000000000000
000000000000
000000000000
000000000000
000000000000
000000000000
000000000000
000000000000
000000000000
ENDCHAR

STARTCHAR kor_A3EA
ENCODING 41962
SWIDTH 1024 0
DWIDTH 48 0
BBX 48 48 0 -6
BITMAP
000000000000
000003E00000
000007F00000
000007F00000
000007F00000
000007F00000
000007F00000
000003E00000
000000000000
000000000000
000000000000
000000000000
000000000000
000000F00000
000001F00000
000003F00000
00000FF00000
00003FF00000
00003FF00000
00003FF00000
000001F00000
000001F00000
000001F00000
000001F00000
000001F00000
000001F00000
000001F00000
000001F00000
000001F00000
000001F00000
000001F00000
000001F00000
000001F00000
000001F00000
000001F00000
000001F00000
000001F00000
000001F00000
0001E1F00000
0003F1F00000
0003F1F00000
0003F1F00000
0003F1F00000
0001FBE00000
0001FFE00000
0000FFC00000
00003F000000
000000000000
ENDCHAR

STARTCHAR kor_A3EB
ENCODING 41963
SWIDTH 1024 0
DWIDTH 48 0
BBX 48 48 0 -6
BITMAP
000000000000
000070000000
0000F0000000
0001F0000000
0007F0000000
003FF0000000
003FF0000000
003FF0000000
0001F0000000
0001F0000000
0001F0000000
0001F0000000
0001F0000000
0001F0000000
0001F0FFFC00
0001F0FFFC00
0001F0FFFC00
0001F03FF000
0001F01FC000
0001F03E0000
0001F07C0000
0001F0F80000
0001F1F00000
0001F3F00000
0001F7F00000
0001FFF80000
0001FFFC0000
0001FFFC0000
0001FCFE0000
0001F87F0000
0001F07F0000
0001F03F8000
0001F01FC000
0001F01FC000
0001F00FE000
0001F007F000
0003F80FF800
003FFFBFFF00
003FFFBFFF00
003FFFBFFF00
000000000000
000000000000
000000000000
000000000000
000000000000
000000000000
000000000000
000000000000
ENDCHAR

STARTCHAR kor_A3EC
ENCODING 41964
SWIDTH 1024 0
DWIDTH 48 0
BBX 48 48 0 -6
BITMAP
000000000000
000000F00000
000001F00000
000003F00000
00000FF00000
00003FF00000
00003FF00000
00003FF00000
000001F00000
000001F00000
000001F00000
000001F00000
000001F00000
000001F00000
000001F00000
000001F00000
000001F00000
000001F00000
000001F00000
000001F00000
000001F00000
000001F00000
000001F00000
000001F00000
000001F00000
000001F00000
000001F00000
000001F00000
000001F00000
000001F00000
000001F00000
000001F00000
000001F00000
000001F00000
000001F00000
000003F80000
00003FFF8000
00003FFF8000
00003FFF8000
000000000000
000000000000
000000000000
000000000000
000000000000
000000000000
000000000000
000000000000
000000000000
ENDCHAR

STARTCHAR kor_A3ED
ENCODING 41965
SWIDTH 1024 0
DWIDTH 48 0
BBX 48 48 0 -6
BITMAP
000000000000
000000000000
000000000000
000000000000
000000000000
000000000000
000000000000
000000000000
000000000000
000000000000
000000000000
000000000000
000000000000
0070FE01FC00
00F3FF87FF00
03F7FFCFFF80
0FFFDFFFBFC0
0FFF07FE0FC0
0FFE03FC07E0
01FC03F807E0
01F801F003E0
01F001F003E0
01F001F003E0
01F001F003E0
01F001F003E0
01F001F003E0
01F001F003E0
01F001F003E0
01F001F003E0
01F001F003E0
01F001F003E0
01F001F003E0
01F001F003E0
01F001F003E0
01F001F003E0
01F001F003E0
03F803F807F0
1FFF1FFF3FFE
1FFF1FFF3FFE
1FFF1FFF3FFE
000000000000
000000000000
000000000000
000000000000
000000000000
000000000000
000000000000
000000000000
ENDCHAR

STARTCHAR kor_A3EE
ENCODING 41966
SWIDTH 1024 0
DWIDTH 48 0
BBX 48 48 0 -6
BITMAP
000000000000
000000000000
000000000000
000000000000
000000000000
000000000000
000000000000
000000000000
000000000000
000000000000
000000000000
000000000000
000000000000
0001E1FE0000
0003E7FF8000
000FEFFFC000
003FFF9FE000
003FFE07E000
003FFC03F000
0003F803F000
0003F001F000
0003E001F000
0003E001F000
0003E001F000
0003E001F000
0003E001F000
0003E001F000
0003E001F000
0003E001F000
0003E001F000
0003E001F000
0003E001F000
0003E001F000
0003E001F000
0003E001F000
0007F003F800
003FFE1FFF00
003FFE1FFF00
003FFE1FFF00
000000000000
000000000000
000000000000
000000000000
000000000000
000000000000
000000000000
000000000000
000000000000
ENDCHAR

STARTCHAR kor_A3EF
ENCODING 41967
SWIDTH 1024 0
DWIDTH 48 0
BBX 48 48 0 -6
BITMAP
000000000000
000000000000
000000000000
000000000000
000000000000
000000000000
000000000000
000000000000
000000000000
000000000000
000000000000
000000000000
000000000000
000003F80000
00000FFE0000
00003FFF8000
00007F1FC000
0000FC07E000
0001F803F000
0001F803F000
0003F001F800
0003F001F800
0003F001F800
0007E000FC00
0007E000FC00
0007E000FC00
0007E000FC00
0007E000FC00
0007E000FC00
0007E000FC00
0003F001F800
0003F001F800
0003F001F800
0001F803F000
0001F803F000
0000FC07E000
00007F1FC000
00003FFF8000
00000FFE0000
000003F80000
000000000000
000000000000
000000000000
000000000000
000000000000
000000000000
000000000000
000000000000
ENDCHAR

STARTCHAR kor_A3F0
ENCODING 41968
SWIDTH 1024 0
DWIDTH 48 0
BBX 48 48 0 -6
BITMAP
000000000000
000000000000
000000000000
000000000000
000000000000
000000000000
000000000000
000000000000
000000000000
000000000000
000000000000
000000000000
0000F1FF0000
0001F7FFC000
0007FFFFE000
001FFF8FF000
001FFE03F800
001FFC01F800
0001F801FC00
0001F000FC00
0001F000FC00
0001F000FE00
0001F0007E00
0001F0007E00
0001F0007E00
0001F0007E00
0001F0007E00
0001F0007E00
0001F000FE00
0001F000FC00
0001F800FC00
0001F801F800
0001FC01F800
0001FE03F000
0001FF8FE000
0001FFFFC000
0001F7FF0000
0001F1FC0000
0001F0000000
0001F0000000
0001F0000000
0001F0000000
0001F0000000
0003F8000000
003FFF800000
003FFF800000
003FFF800000
000000000000
ENDCHAR

STARTCHAR kor_A3F1
ENCODING 41969
SWIDTH 1024 0
DWIDTH 48 0
BBX 48 48 0 -6
BITMAP
000000000000
000000000000
000000000000
000000000000
000000000000
000000000000
000000000000
000000000000
000000000000
000000000000
000000000000
000000000000
00001FE06000
00007FF8E000
0000FFFDE000
0001FE7FE000
0003F81FE000
0007F00FE000
0007E007E000
000FE007E000
000FC007E000
001FC007E000
001FC007E000
001F8007E000
001F8007E000
001F8007E000
001F8007E000
001F8007E000
001FC007E000
001FC007E000
001FC007E000
000FE007E000
000FE007E000
0007F00FE000
0007F81FE000
0003FE7FE000
0001FFFFE000
0000FFFFE000
00003FE7E000
00000007E000
00000007E000
00000007E000
0000000FF000
0000007FFE00
000000FFFF00
000000FFFF00
000000FFFF00
000000000000
ENDCHAR

STARTCHAR kor_A3F2
ENCODING 41970
SWIDTH 1024 0
DWIDTH 48 0
BBX 48 48 0 -6
BITMAP
000000000000
000000000000
000000000000
000000000000
000000000000
000000000000
000000000000
000000000000
000000000000
000000000000
000000000000
000000000000
000000000000
00000F07E000
00001F1FF000
00007F7FF000
0001FFFFF000
0001FFFFF000
0001FFF7F000
00001FC3E000
00001F800000
00001F000000
00001F000000
00001F000000
00001F000000
00001F000000
00001F000000
00001F000000
00001F000000
00001F000000
00001F000000
00001F000000
00001F000000
00001F000000
00001F000000
00003F800000
0001FFF00000
0001FFF00000
0001FFF00000
000000000000
000000000000
000000000000
000000000000
000000000000
000000000000
000000000000
000000000000
000000000000
ENDCHAR

STARTCHAR kor_A3F3
ENCODING 41971
SWIDTH 1024 0
DWIDTH 48 0
BBX 48 48 0 -6
BITMAP
000000000000
000000000000
000000000000
000000000000
000000000000
000000000000
000000000000
000000000000
000000000000
000000000000
000000000000
000000000000
000000000000
00000FF38000
00003FFF8000
00007FFF8000
0000FE7FC000
0000F81FC000
0001F007C000
0001F003E000
0001F001E000
0001F800E000
0001FE006000
0000FF800000
0000FFF00000
00007FFE0000
00001FFF8000
000007FFC000
000000FFE000
0000001FE000
00000007F000
00018003F000
0001C003F000
0001E001F000
0001F003F000
0000F803E000
0000FE07E000
00007F9FC000
00007FFF8000
00003FFF0000
000039FC0000
000000000000
000000000000
000000000000
000000000000
000000000000
000000000000
000000000000
ENDCHAR

STARTCHAR kor_A3F4
ENCODING 41972
SWIDTH 1024 0
DWIDTH 48 0
BBX 48 48 0 -6
BITMAP
000000000000
000000000000
000000000000
000000000000
000000000000
000003800000
000003800000
000003800000
000007800000
000007800000
000007800000
00000F800000
00000F800000
00001F800000
00007F800000
0001FFFF8000
0001FFFF8000
0001FFFF8000
00000F800000
00000F800000
00000F800000
00000F800000
00000F800000
00000F800000
00000F800000
00000F800000
00000F800000
00000F800000
00000F800000
00000F800000
00000F800000
00000F800000
00000F806000
00000F80E000
00000F81E000
00000FC7C000
00000FFFC000
000007FF8000
000007FF0000
000003FE0000
000000F80000
000000000000
000000000000
000000000000
000000000000
000000000000
000000000000
000000000000
ENDCHAR

STARTCHAR kor_A3F5
ENCODING 41973
SWIDTH 1024 0
DWIDTH 48 0
BBX 48 48 0 -6
BITMAP
000000000000
000000000000
000000000000
000000000000
000000000000
000000000000
000000000000
000000000000
000000000000
000000000000
000000000000
000000000000
000000000000
00007000E000
0000F001E000
0003F007E000
001FF03FE000
001FF03FE000
001FF03FE000
0001F003E000
0001F003E000
0001F003E000
0001F003E000
0001F003E000
0001F003E000
0001F003E000
0001F003E000
0001F003E000
0001F003E000
0001F003E000
0001F003E000
0001F003E000
0001F003E000
0001F007E000
0001F80FE000
0001F81FE000
0000FC7FF000
0000FFFFFC00
00007FFBFC00
00001FE1FC00
000000000000
000000000000
000000000000
000000000000
000000000000
000000000000
000000000000
000000000000
ENDCHAR

STARTCHAR kor_A3F6
ENCODING 41974
SWIDTH 1024 0
DWIDTH 48 0
BBX 48 48 0 -6
BITMAP
000000000000
000000000000
000000000000
000000000000
000000000000
000000000000
000000000000
000000000000
000000000000
000000000000
000000000000
000000000000
000000000000
000000000000
003FFF1FFE00
003FFF1FFE00
003FFF1FFE00
0007F803F000
0003F803E000
0001F803C000
0001F803C000
0001FC078000
0000FC078000
0000FC070000
0000FE0F0000
00007E0F0000
00007E0E0000
00007F1E0000
00003F1E0000
00003F1C0000
00003FBC0000
00001FBC0000
00001FB80000
00001FF80000
00000FF80000
00000FF00000
00000FF00000
000007F00000
000007E00000
000007E00000
000003E00000
000000000000
000000000000
000000000000
000000000000
000000000000
000000000000
000000000000
ENDCHAR

STARTCHAR kor_A3F7
ENCODING 41975
SWIDTH 1024 0
DWIDTH 48 0
BBX 48 48 0 -6
BITMAP
000000000000
000000000000
000000000000
000000000000
000000000000
000000000000
000000000000
000000000000
000000000000
000000000000
000000000000
000000000000
000000000000
000000000000
07FFDFFE3FF8
07FFDFFE3FF8
07FFDFFE3FF8
01FE07F807E0
00FE03F803C0
007E01F80780
007E01F80780
003F01FC0700
003F03FC0F00
003F03FC0F00
001F83FE0E00
001F87FE1E00
001F87FE1E00
000FC73F1C00
000FCF3F3C00
000FCF3F3C00
0007EE1FB800
0007FE1FF800
0007FE1FF800
0003FC0FF000
0003FC0FF000
0003FC0FF000
0001F807E000
0001F807E000
0001F807E000
0000F003C000
000000000000
000000000000
000000000000
000000000000
000000000000
000000000000
000000000000
000000000000
ENDCHAR

STARTCHAR kor_A3F8
ENCODING 41976
SWIDTH 1024 0
DWIDTH 48 0
BBX 48 48 0 -6
BITMAP
000000000000
000000000000
000000000000
000000000000
000000000000
000000000000
000000000000
000000000000
000000000000
000000000000
000000000000
000000000000
000000000000
000000000000
00FFFF1FFF00
00FFFF1FFF00
00FFFF1FFF00
001FF803F800
0007F803E000
0003FC07C000
0001FE0F8000
0000FF1F0000
00007FBE0000
00003FFC0000
00001FF80000
00000FF00000
000007F80000
000007FC0000
00000FFE0000
00001FFF0000
00003E7F8000
00007C3FC000
0000F81FE000
0001F00FF000
0003E007F800
0007C003FC00
001FC003FF00
00FFF81FFFE0
00FFF81FFFE0
00FFF81FFFE0
000000000000
000000000000
000000000000
000000000000
000000000000
000000000000
000000000000
000000000000
ENDCHAR

STARTCHAR kor_A3F9
ENCODING 41977
SWIDTH 1024 0
DWIDTH 48 0
BBX 48 48 0 -6
BITMAP
000000000000
000000000000
000000000000
000000000000
000000000000
000000000000
000000000000
000000000000
000000000000
000000000000
000000000000
000000000000
000000000000
000000000000
003FFF07FF80
003FFF07FF80
003FFF07FF80
0007F800FE00
0003F0007800
0003F800F000
0001F800F000
0001FC01E000
0000FC01E000
0000FE03C000
00007E03C000
00007F078000
00003F078000
00003F8F0000
00001F8F0000
00001FDE0000
00000FDE0000
00000FFC0000
000007FC0000
000007F80000
000003F80000
000003F00000
000001F00000
000001E00000
000001E00000
000F03C00000
001F83C00000
001F87800000
001F8F800000
001FDF000000
001FFE000000
000FFC000000
0007F0000000
000000000000
ENDCHAR

STARTCHAR kor_A3FA
ENCODING 41978
SWIDTH 1024 0
DWIDTH 48 0
BBX 48 48 0 -6
BITMAP
000000000000
000000000000
000000000000
000000000000
000000000000
000000000000
000000000000
000000000000
000000000000
000000000000
000000000000
000000000000
000000000000
000000000000
0000FFFFF000
0000FFFFF000
0001FFFFF000
0001FC0FE000
0001F01FC000
0003E03F8000
0003C03F8000
0003807F0000
000380FE0000
000301FC0000
000001FC0000
000003F80000
000007F00000
00000FE00000
00000FE00000
00001FC00000
00003F803000
00007F007000
00007F007000
0000FE00F000
0001FC01F000
0003F803E000
0007F00FE000
0007FFFFE000
0007FFFFC000
0007FFFFC000
000000000000
000000000000
000000000000
000000000000
000000000000
000000000000
000000000000
000000000000
ENDCHAR

STARTCHAR kor_A3FB
ENCODING 41979
SWIDTH 1024 0
DWIDTH 48 0
BBX 48 48 0 -6
BITMAP
0000000000F0
0000000003F0
0000000007E0
000000000FC0
000000000F80
000000001F80
000000001F00
000000001F00
000000003F00
000000003E00
000000003E00
000000003E00
000000003E00
000000003E00
000000003E00
000000003E00
000000003E00
000000003E00
000000003E00
000000003E00
000000003E00
000000007C00
00000001FC00
00000007F800
00000007F800
00000001FC00
000000007C00
000000003E00
000000003E00
000000003E00
000000003E00
000000003E00
000000003E00
000000003E00
000000003E00
000000003E00
000000003E00
000000003E00
000000003F00
000000001F00
000000001F00
000000001F80
000000000F80
000000000FC0
0000000007E0
0000000001F0
000000000070
000000000000
ENDCHAR

STARTCHAR kor_A3FC
ENCODING 41980
SWIDTH 1024 0
DWIDTH 48 0
BBX 48 48 0 -6
BITMAP
000003E00000
000003E00000
000003E00000
000003E00000
000003E00000
000003E00000
000003E00000
000003E00000
000003E00000
000003E00000
000003E00000
000003E00000
000003E00000
000003E00000
000003E00000
000003E00000
000003E00000
000003E00000
000003E00000
000003E00000
000003E00000
000003E00000
000003E00000
000003E00000
000003E00000
000003E00000
000003E00000
000003E00000
000003E00000
000003E00000
000003E00000
000003E00000
000003E00000
000003E00000
000003E00000
000003E00000
000003E00000
000003E00000
000003E00000
000003E00000
000003E00000
000003E00000
000003E00000
000003E00000
000003E00000
000003E00000
000003E00000
000000000000
ENDCHAR

STARTCHAR kor_A3FD
ENCODING 41981
SWIDTH 1024 0
DWIDTH 48 0
BBX 48 48 0 -6
BITMAP
078000000000
07E000000000
03F000000000
01F800000000
00F800000000
00FC00000000
007C00000000
007C00000000
007E00000000
003E00000000
003E00000000
003E00000000
003E00000000
003E00000000
003E00000000
003E00000000
003E00000000
003E00000000
003E00000000
003E00000000
003E00000000
001F00000000
001FC0000000
000FF0000000
000FF0000000
001FC0000000
001F00000000
003E00000000
003E00000000
003E00000000
003E00000000
003E00000000
003E00000000
003E00000000
003E00000000
003E00000000
003E00000000
003E00000000
007E00000000
007C00000000
007C00000000
00FC00000000
00F800000000
01F800000000
03F000000000
07E000000000
078000000000
000000000000
ENDCHAR

STARTCHAR kor_A3FE
ENCODING 41982
SWIDTH 1024 0
DWIDTH 48 0
BBX 48 48 0 -6
BITMAP
000000000000
7FFFFFFFFFFF
7FFFFFFFFFFF
7FFFFFFFFFFF
7FFFFFFFFFFF
000000000000
000000000000
000000000000
000000000000
000000000000
000000000000
000000000000
000000000000
000000000000
000000000000
000000000000
000000000000
000000000000
000000000000
000000000000
000000000000
000000000000
000000000000
000000000000
000000000000
000000000000
000000000000
000000000000
000000000000
000000000000
000000000000
000000000000
000000000000
000000000000
000000000000
000000000000
000000000000
000000000000
000000000000
000000000000
000000000000
000000000000
000000000000
000000000000
000000000000
000000000000
000000000000
000000000000
ENDCHAR

STARTCHAR kor_A4A1
ENCODING 42145
SWIDTH 1024 0
DWIDTH 48 0
BBX 48 48 0 -6
BITMAP
000000000000
000000000000
000000000000
000000000000
000000000000
000000000000
000000000000
000000000000
000000000000
000000000000
000000000000
00FFFFFFE000
00FFFFFFF800
00FFFFFFFC00
007FFFFFFE00
000000007E00
000000003F00
000000001F00
000000001F00
000000001F00
000000001F00
000000001F00
000000001F00
000000001F00
000000001F00
000000001F00
000000003F00
000000003E00
000000003E00
000000003E00
000000007C00
000000007C00
00000000F800
00000000F800
000000007000
000000000000
000000000000
000000000000
000000000000
000000000000
000000000000
000000000000
000000000000
000000000000
000000000000
000000000000
000000000000
000000000000
ENDCHAR

STARTCHAR kor_A4A2
ENCODING 42146
SWIDTH 1024 0
DWIDTH 48 0
BBX 48 48 0 -6
BITMAP
000000000000
000000000000
000000000000
000000000000
000000000000
000000000000
000000000000
000000000000
000000000000
000000000000
000000000000
00FFC07FF800
03FFF1FFFE00
07FFFBFFFF00
07FFFFFFFF80
03C0FDE01F80
00007E000FC0
00003E0007C0
00003E0007C0
00003E0007C0
00003E0007C0
00003E0007C0
00003E0007C0
00003E0007C0
00003E0007C0
00003E0007C0
00003E0007C0
00007E000FC0
00007E000FC0
00007C000F80
00007C000F80
0000FC001F80
0000F8001F00
0001F8003F00
0001F0003E00
0000E0003C00
000000000000
000000000000
000000000000
000000000000
000000000000
000000000000
000000000000
000000000000
000000000000
000000000000
000000000000
000000000000
ENDCHAR

STARTCHAR kor_A4A3
ENCODING 42147
SWIDTH 1024 0
DWIDTH 48 0
BBX 48 48 0 -6
BITMAP
000000000000
000000000000
000000000000
000000000000
000000000000
000000000000
000000000000
000000000000
000000000000
000000000000
000000007000
007FC000F800
03FFF001F800
07FFF801F800
07FFFC03F000
03E0FC03E000
00007E07E000
00003E07C000
00003E0FC000
00003E0F8000
00003E0F8000
00003E1F0000
00003E1FC000
00003E1FE000
00003E3FF000
00003E3FF800
00007E3DFE00
00007E7CFF00
00007C7C3F80
00007C781FC0
0000FCF80FE0
0000FCF807F0
0000F8F003F8
0001F8F001F8
0001F9F000F8
0000E1F00070
000001E00000
000000E00000
000000000000
000000000000
000000000000
000000000000
000000000000
000000000000
000000000000
000000000000
000000000000
000000000000
ENDCHAR

STARTCHAR kor_A4A4
ENCODING 42148
SWIDTH 1024 0
DWIDTH 48 0
BBX 48 48 0 -6
BITMAP
000000000000
000000000000
000000000000
000000000000
000000000000
000000000000
000000000000
000000000000
000000000000
000000000000
000000000000
000000000000
000000000000
000F00000000
001F80000000
001F80000000
001F00000000
003F00000000
003F00000000
003E00000000
003E00000000
003E00000000
003E00000000
003E00000000
003E00000000
003E00000000
003E00000000
003F00000000
001F80000000
001FFFFFFF00
000FFFFFFF80
0007FFFFFF80
0001FFFFFF80
000000000000
000000000000
000000000000
000000000000
000000000000
000000000000
000000000000
000000000000
000000000000
000000000000
000000000000
000000000000
000000000000
000000000000
000000000000
ENDCHAR

STARTCHAR kor_A4A5
ENCODING 42149
SWIDTH 1024 0
DWIDTH 48 0
BBX 48 48 0 -6
BITMAP
000000000000
000000000000
000000000000
000000000000
000000000000
000000000000
000000000000
000000000000
000000000000
000000000000
000000000000
000000000000
0000000FF000
007001FFFC00
00F801FFFE00
00F801FFFE00
01F800FC3F00
01F800001F00
01F000001F00
01F000003F00
03F000003F00
03F000007E00
03E000007E00
03E00000FC00
03E00000FE00
03E00001FF00
03E00001FFC0
03E00003FFE0
03E00007EFF0
03F00007C7F8
03F0000FC1FC
01F8FE1F80FE
01FFFF3F007E
00FFFFFE003E
007FFFFC001C
001FC1F80000
000001F00000
000000E00000
000000000000
000000000000
000000000000
000000000000
000000000000
000000000000
000000000000
000000000000
000000000000
000000000000
ENDCHAR

STARTCHAR kor_A4A6
ENCODING 42150
SWIDTH 1024 0
DWIDTH 48 0
BBX 48 48 0 -6
BITMAP
000000000000
000000000000
000000000000
000000000000
000000000000
000000000000
000000000000
000000000000
000000000000
000000000000
0000001C0000
0000003F0000
0000003F8000
0070001FC000
00F80007E000
00F80003F000
01F80001F000
01F001F0E000
01F003FC0000
01F003FE0000
03F003FFFC00
03E0003FFF00
03E0001FFF80
03E0003E1FC0
03E0007E07C0
03E0007C03E0
03E000FC03E0
03E000F801E0
03E000F803E0
03E000F803E0
03F000FC07E0
01F8FC7E1FC0
01FFFE7FFFC0
00FFFE3FFF80
007FFE1FFF00
001FC007F800
000000000000
000000000000
000000000000
000000000000
000000000000
000000000000
000000000000
000000000000
000000000000
000000000000
000000000000
000000000000
ENDCHAR

STARTCHAR kor_A4A7
ENCODING 42151
SWIDTH 1024 0
DWIDTH 48 0
BBX 48 48 0 -6
BITMAP
000000000000
000000000000
000000000000
000000000000
000000000000
000000000000
000000000000
000000000000
000000000000
000000000000
000000000000
000000000000
00007FFFFE00
001FFFFFFF00
03FFFFFFFF00
03FFFFFFFF00
03FFF8000000
01F7C0000000
000F80000000
000F80000000
001F00000000
001F00000000
001F00000000
003E00000000
003E00000000
003E00000000
003E00000000
003F00000000
003F80000000
001FE01FFF00
001FFFFFFF80
000FFFFFFF80
0003FFFFFF80
0000FFF80000
000000000000
000000000000
000000000000
000000000000
000000000000
000000000000
000000000000
000000000000
000000000000
000000000000
000000000000
000000000000
000000000000
000000000000
ENDCHAR

STARTCHAR kor_A4A8
ENCODING 42152
SWIDTH 1024 0
DWIDTH 48 0
BBX 48 48 0 -6
BITMAP
000000000000
000000000000
000000000000
000000000000
000000000000
000000000000
000000000000
000000000000
000000000000
000000000000
000000000000
00000007FF80
000FFEFFFFC0
03FFFFFFFFC0
03FFFFFFFFC0
03FFFF7F8000
00FF001F0000
003E003E0000
007C003E0000
007C007C0000
00F8007C0000
00F800F80000
01F000F80000
01F000F80000
01F001F80000
03F001F00000
03E001F00000
03E001F00000
03E001F80000
03F001FC1FE0
03FC7EFFFFF0
01FFFFFFFFF0
01FFFF7FFFF0
00FFFF1FF800
003FE0000000
000000000000
000000000000
000000000000
000000000000
000000000000
000000000000
000000000000
000000000000
000000000000
000000000000
000000000000
000000000000
000000000000
ENDCHAR

STARTCHAR kor_A4A9
ENCODING 42153
SWIDTH 1024 0
DWIDTH 48 0
BBX 48 48 0 -6
BITMAP
000000000000
000000000000
000000000000
000000000000
000000000000
000000000000
000000000000
000000000000
000000000000
000000000000
000000000000
000007FFC000
0001FFFFF000
003FFFFFF800
003FFFFFF800
003FFE01F800
001F8000F800
00000001F800
00000001F000
00000003E000
0000000FFF00
00007FFFFF00
007FFFFFFF00
00FFFFFFFE00
00FFFFFC0000
00FFE0000000
000F80000000
001F00000000
001F00000000
003E00000000
003E00000000
003E00000000
003E0007FF00
003F03FFFF00
001FFFFFFF00
001FFFFFFE00
000FFFFE0000
0003FF000000
000000000000
000000000000
000000000000
000000000000
000000000000
000000000000
000000000000
000000000000
000000000000
000000000000
ENDCHAR

STARTCHAR kor_A4AA
ENCODING 42154
SWIDTH 1024 0
DWIDTH 48 0
BBX 48 48 0 -6
BITMAP
000000000000
000000000000
000000000000
000000000000
000000000000
000000000000
000000000000
000000000000
000000000000
000000000000
000000000000
000FFC03FF80
03FFFF3FFFE0
03FFFFBFFFF0
03FFFFBFFFF0
01FC1F9F01F8
00000F8000F8
00000F8000F8
00000F0000F8
00003F0000F8
0001FFE000F8
003FFFE000F8
0FFFFFE000F8
0FFFFFC000F8
07FFC00000F8
07FE000000F8
00F8000001F8
01F0000001F0
03E0000001F0
03E0000001F0
07C0000003F0
07C0000003E0
07C01FF003E0
07E3FFF807C0
03FFFFF807C0
03FFFFF80F80
01FFF8000F80
007F00000700
000000000000
000000000000
000000000000
000000000000
000000000000
000000000000
000000000000
000000000000
000000000000
000000000000
ENDCHAR

STARTCHAR kor_A4AB
ENCODING 42155
SWIDTH 1024 0
DWIDTH 48 0
BBX 48 48 0 -6
BITMAP
000000000000
000000000000
000000000000
000000000000
000000000000
000000000000
000000000000
000000000000
000000000000
000000000000
0000000C0000
003FE01E3F80
03FFF81FFFE0
03FFFC1FFFF0
03FFFE1FFFF0
01F07E1FF1F8
00003E1F80F8
00003E1E00F8
00007C1E00F8
00007C1E01F8
0001FF9E01F8
007FFFBE01F8
0FFFFFBE01F0
0FFFFF3C03F0
0FFF803C03F0
07FE003C07E0
00F8003C07E0
01F0007C0FC0
01F0007C0F80
03E000781F80
03E000783F00
03E00078FFF8
03E01F7BFFFC
03F3FFFBFFFC
01FFFFF3FFFC
01FFFF800000
00FFF8000000
003F00000000
000000000000
000000000000
000000000000
000000000000
000000000000
000000000000
000000000000
000000000000
000000000000
000000000000
ENDCHAR

STARTCHAR kor_A4AC
ENCODING 42156
SWIDTH 1024 0
DWIDTH 48 0
BBX 48 48 0 -6
BITMAP
000000000000
000000000000
000000000000
000000000000
000000000000
000000000000
000000000000
000000000000
000000000000
000000000000
0000000C0700
003FF01E0F80
03FFFC1E0F80
03FFFE1E0FC0
03FFFE1E07C0
01F07E1E03E0
00003E1E03E0
00007E1E01E0
00007C1E01F0
00007C1E0FF0
0000FF1E3FF0
007FFFBE7FF8
0FFFFFBEFEF8
0FFFFFBDF8F8
07FF003DF0F8
07FC003FE0F8
00F8003FE0F8
01F0003FC0F8
01F0003FC0F8
03E0003FC1F8
03E0003FC1F0
03E0003FE3F0
03E01F3DFFE0
03F3FFBDFFE0
01FFFFBCFFC0
01FFFFB83F00
00FFF8000000
003F00000000
000000000000
000000000000
000000000000
000000000000
000000000000
000000000000
000000000000
000000000000
000000000000
000000000000
ENDCHAR

STARTCHAR kor_A4AD
ENCODING 42157
SWIDTH 1024 0
DWIDTH 48 0
BBX 48 48 0 -6
BITMAP
000000000000
000000000000
000000000000
000000000000
000000000000
000000000000
000000000000
000000000000
000000000000
000000000000
000000001C00
003FF0003E00
03FFFC007E00
03FFFE007E00
03FFFE00FC00
00F07E00F800
00003E01F000
00007E03F000
00007C03E000
00007C03E000
0000FF07E000
003FFF87C000
0FFFFF87E000
0FFFFF8FF000
07FF800FF800
07F8000FFC00
01F0001FFF00
03E0001F7F80
03E0001E3FC0
07C0003E1FE0
07C0003E07F0
07C0003C03F8
07C07E3C01FC
07E7FF7C00FC
07FFFF7C007C
03FFFF7C0038
01FFE0780000
007E00380000
000000000000
000000000000
000000000000
000000000000
000000000000
000000000000
000000000000
000000000000
000000000000
000000000000
ENDCHAR

STARTCHAR kor_A4AE
ENCODING 42158
SWIDTH 1024 0
DWIDTH 48 0
BBX 48 48 0 -6
BITMAP
000000000000
000000000000
000000000000
000000000000
000000000000
000000000000
000000000000
000000000000
000000000000
000000000000
000000000000
003FE0007FF0
03FFF8FFFFF8
03FFFCFFFFF8
03FFFEFFFFF8
01F07E7FF000
00003E07E000
00003E07C000
00007E0FC000
00007C0F8000
0001FF0F8000
007FFF9F9FF0
0FFFFF9FFFF8
0FFFFF9FFFF8
07FF801FFFF8
07F8001FF800
01F0001F0000
03E0001F0000
03E0001F0000
07C0001F0000
07C0001F0000
07C0001F87F0
07C03FDFFFF8
07EFFFEFFFF8
07FFFFE7FFF8
03FFFFE3FE00
01FFF8000000
007E00000000
000000000000
000000000000
000000000000
000000000000
000000000000
000000000000
000000000000
000000000000
000000000000
000000000000
ENDCHAR

STARTCHAR kor_A4AF
ENCODING 42159
SWIDTH 1024 0
DWIDTH 48 0
BBX 48 48 0 -6
BITMAP
000000000000
000000000000
000000000000
000000000000
000000000000
000000000000
000000000000
000000000000
000000000000
000000000000
000000000000
003FE0003FE0
07FFF9FFFFF8
07FFFDFFFFF8
07FFFDFFFFF8
03F0FCFFFE00
00007C0F9F00
0000F80F9F00
0000F80F9F00
0001F01FBF00
0003FE1F3F00
003FFF1F3E00
1FFFFF1F3E00
1FFFFF1F3E00
0FFF001F3E00
0FF0001F3E00
07E0001F3E00
07C0001F3E00
0FC0001F3E00
0F80001F3E0C
0F80001FBE1C
0F80001FFF7C
0F807F0FFFFC
0FCFFF8FDFF8
0FFFFF878FF0
07FFFF8003C0
03FFE0000000
00FC00000000
000000000000
000000000000
000000000000
000000000000
000000000000
000000000000
000000000000
000000000000
000000000000
000000000000
ENDCHAR

STARTCHAR kor_A4B0
ENCODING 42160
SWIDTH 1024 0
DWIDTH 48 0
BBX 48 48 0 -6
BITMAP
000000000000
000000000000
000000000000
000000000000
000000000000
000000000000
000000000000
000000000000
000000000000
000000000000
000000038000
001FC007E000
07FFF007F000
07FFF803F800
07FFFC00FC00
03F0FC007C00
00007C003C00
0000FDF81800
0000F9FF0000
0000F9FFC000
0003FFFFFF80
003FFF9FFFE0
1FFFFF83E7F0
1FFFFF87C1F8
1FFF800F80F8
0FF8000F80FC
03F0001F007C
03E0001F007C
07E0001F00FC
07C0001F00FC
07C0001F81F8
07C0000FC7F8
07C03FCFFFF0
07E3FFE7FFE0
07FFFFE3FFC0
03FFFFE0FF00
01FFE0000000
007E00000000
000000000000
000000000000
000000000000
000000000000
000000000000
000000000000
000000000000
000000000000
000000000000
000000000000
ENDCHAR

STARTCHAR kor_A4B1
ENCODING 42161
SWIDTH 1024 0
DWIDTH 48 0
BBX 48 48 0 -6
BITMAP
000000000000
000000000000
000000000000
000000000000
000000000000
000000000000
000000000000
000000000000
000000000000
000E00000000
001F00000000
001F03FFE000
001F7FFFF800
001FFFFFFC00
001FFFFFFE00
001FFF007E00
001FE0003E00
001F00007E00
001F00007E00
001F0000FC00
001F0001FC00
001E0007F800
001E000FF000
001E001FE000
001E003FC000
003E007F8000
003E01FE0000
003E03F80000
003E0FF00000
003C1FCFFF00
003C3FFFFF80
003C7FFFFF80
003CFFFFFF80
003CFFFC0000
0038FC000000
000000000000
000000000000
000000000000
000000000000
000000000000
000000000000
000000000000
000000000000
000000000000
000000000000
000000000000
000000000000
000000000000
ENDCHAR

STARTCHAR kor_A4B2
ENCODING 42162
SWIDTH 1024 0
DWIDTH 48 0
BBX 48 48 0 -6
BITMAP
000000000000
000000000000
000000000000
000000000000
000000000000
000000000000
000000000000
000000000000
00000001C000
00000003E000
000E0003E000
001F0003F000
001F0003F000
001F0001F000
001F0001F000
001F0001F800
001F0001F800
001F0000F800
001F0000F800
001F01FFFE00
001F07FFFF00
001F1FFFFF00
001F3FFFFF00
003F7F80F800
003E7E00F800
003EFC00F800
003EFC00F800
003EF800F800
003EF801F800
003CF801F000
003CFC03F000
003C7E0FF000
003C7FFFE000
003C3FFFC000
00381FFF8000
000007FE0000
000000000000
000000000000
000000000000
000000000000
000000000000
000000000000
000000000000
000000000000
000000000000
000000000000
000000000000
000000000000
ENDCHAR

STARTCHAR kor_A4B3
ENCODING 42163
SWIDTH 1024 0
DWIDTH 48 0
BBX 48 48 0 -6
BITMAP
000000000000
000000000000
000000000000
000000000000
000000000000
000000000000
000000000000
000000000000
000000000000
00E0E01C0700
01F1F03E0F00
01F1F83E0F80
01F1F83E0F80
01F0FC3E0F80
01F07C3E07C0
01F07C3E07C0
01F07E3E07C0
01F03E3E07E0
01F03E3E1FE0
01F0FE3E7FE0
01F3FE7EFFE0
01F7FE7FFFE0
03FFFE7DF3E0
03EFBE7FE3E0
03FF3E7FE3E0
03FF3E7FC3E0
03FE3E7FC3E0
03FE3E7FC3E0
03FE3E7FC3E0
03FE3E7FC3E0
03FE3E7FE7E0
03FF7E7DFFC0
03EFFC7DFFC0
03EFFC7CFF80
01C7F8387E00
0003E0000000
000000000000
000000000000
000000000000
000000000000
000000000000
000000000000
000000000000
000000000000
000000000000
000000000000
000000000000
000000000000
ENDCHAR

STARTCHAR kor_A4B4
ENCODING 42164
SWIDTH 1024 0
DWIDTH 48 0
BBX 48 48 0 -6
BITMAP
000000000000
000000000000
000000000000
000000000000
000000000000
000000000000
000000000000
000000000000
000000000000
00003800F000
00E07800F800
01F07C01F800
01F07C01F800
01F07E03F000
01F07E03F000
01F03E07E000
01F03F07E000
01F03F07C000
01F01F0FC000
01F0FF0FC000
01F3FF0FE000
03F7FF1FF000
03EFDF1FF800
03EF9F1FFC00
03FF9F3FFF00
03FF1F3E7F80
03FF1F3E3FC0
03FF1F7E1FE0
03FF1F7C07F0
03FF1F7C03F8
03FF1F7C01FC
03FFBFFC00FC
03EFFEF8007C
03EFFEF80038
01C7FC780000
0003F8000000
000000000000
000000000000
000000000000
000000000000
000000000000
000000000000
000000000000
000000000000
000000000000
000000000000
000000000000
000000000000
ENDCHAR

ENDFONT
